
<svg style="position: absolute; width: 0; height: 0; overflow: hidden;" version="1.1" xmlns="http://www.w3.org/2000/svg" xmlns:xlink="http://www.w3.org/1999/xlink">
<defs>

<symbol id="speccol-mobile" viewBox="0 0 288.45 47.01">
	<title>Special Collections</title>
	<path id="path3231_1_"  fill="#FFFFFF" d="M56.95,19.94l-1.67,0.99c-0.31-0.54-0.61-0.9-0.89-1.06
		c-0.29-0.19-0.67-0.28-1.14-0.28c-0.57,0-1.05,0.16-1.42,0.49c-0.38,0.32-0.57,0.72-0.57,1.2c0,0.67,0.49,1.2,1.49,1.61l1.36,0.56
		c1.11,0.45,1.92,1,2.43,1.64c0.51,0.64,0.77,1.43,0.77,2.37c0,1.26-0.42,2.29-1.26,3.11c-0.84,0.82-1.89,1.24-3.14,1.24
		c-1.18,0-2.16-0.35-2.93-1.05c-0.76-0.7-1.23-1.69-1.42-2.96l2.09-0.46c0.09,0.8,0.26,1.36,0.49,1.66c0.42,0.59,1.04,0.88,1.86,0.88
		c0.64,0,1.18-0.21,1.6-0.65c0.42-0.43,0.64-0.97,0.64-1.63c0-0.27-0.04-0.51-0.12-0.72c-0.07-0.22-0.19-0.43-0.34-0.61
		c-0.15-0.19-0.35-0.36-0.6-0.52c-0.25-0.17-0.54-0.32-0.88-0.47l-1.32-0.55c-1.87-0.79-2.8-1.94-2.8-3.46
		c0-1.02,0.39-1.88,1.18-2.57c0.78-0.7,1.76-1.04,2.93-1.04C54.84,17.65,56.07,18.41,56.95,19.94"/>
	<path id="path3233_1_"  fill="#FFFFFF" d="M64.21,26.01v5.54h-2.06V17.91h2.33
		c1.14,0,2.01,0.08,2.59,0.24c0.59,0.16,1.11,0.46,1.56,0.9c0.78,0.77,1.18,1.73,1.18,2.9c0,1.25-0.42,2.24-1.26,2.97
		c-0.84,0.73-1.97,1.1-3.38,1.1H64.21 M64.21,24.11h0.77c1.89,0,2.84-0.73,2.84-2.18c0-1.41-0.97-2.11-2.93-2.11h-0.68L64.21,24.11"
		/>
	<path id="path3235_1_"  fill="#FFFFFF" d="M81.81,19.85h-5.47v3.28h5.31v1.94h-5.31v4.56h5.47v1.94
		h-7.53V17.91h7.53V19.85"/>
	<path id="path3237_1_"  fill="#FFFFFF" d="M96.96,18.64v2.44c-1.19-1-2.42-1.49-3.69-1.49
		c-1.4,0-2.58,0.5-3.54,1.51c-0.97,1-1.45,2.23-1.45,3.68c0,1.43,0.48,2.64,1.45,3.62c0.97,0.98,2.15,1.48,3.55,1.48
		c0.72,0,1.34-0.12,1.85-0.35c0.28-0.12,0.57-0.28,0.88-0.48c0.31-0.2,0.63-0.44,0.96-0.72v2.48c-1.18,0.67-2.41,1-3.71,1
		c-1.95,0-3.61-0.68-4.99-2.04c-1.37-1.37-2.06-3.03-2.06-4.97c0-1.74,0.57-3.29,1.72-4.65c1.41-1.67,3.24-2.5,5.49-2.5
		C94.63,17.65,95.82,17.98,96.96,18.64"/>
	<path id="path3239_1_"  fill="#FFFFFF" d="M103.97,17.91v13.64h-2.06V17.91H103.97"/>
	<path id="path3241_1_"  fill="#FFFFFF" d="M117.61,28.24h-5.84l-1.52,3.31h-2.22l6.75-14.5
		l6.51,14.5h-2.25L117.61,28.24 M116.77,26.31l-2.02-4.64l-2.12,4.64H116.77"/>
	<path id="path3243_1_"  fill="#FFFFFF" d="M127.39,17.91v11.71h4.01v1.94h-6.07V17.91H127.39"/>
	<path id="path3245_1_"  fill="#FFFFFF" d="M153.71,18.64v2.44c-1.19-1-2.42-1.49-3.69-1.49
		c-1.4,0-2.58,0.5-3.54,1.51c-0.97,1-1.45,2.23-1.45,3.68c0,1.43,0.48,2.64,1.45,3.62c0.97,0.98,2.15,1.48,3.55,1.48
		c0.72,0,1.34-0.12,1.85-0.35c0.28-0.12,0.57-0.28,0.88-0.48c0.31-0.2,0.63-0.44,0.96-0.72v2.48c-1.18,0.67-2.41,1-3.71,1
		c-1.95,0-3.61-0.68-4.99-2.04c-1.37-1.37-2.06-3.03-2.06-4.97c0-1.74,0.57-3.29,1.72-4.65c1.41-1.67,3.24-2.5,5.49-2.5
		C151.38,17.65,152.57,17.98,153.71,18.64"/>
	<path id="path3247_1_"  fill="#FFFFFF" d="M157.91,24.67c0-1.92,0.7-3.57,2.11-4.95
		c1.4-1.38,3.09-2.07,5.05-2.07c1.94,0,3.61,0.7,5,2.09c1.4,1.39,2.1,3.06,2.1,5.01c0,1.96-0.7,3.63-2.1,4.99
		c-1.41,1.37-3.11,2.06-5.1,2.06c-1.76,0-3.34-0.61-4.74-1.83C158.68,28.62,157.91,26.86,157.91,24.67 M159.99,24.7
		c0,1.51,0.51,2.75,1.52,3.72c1.01,0.97,2.17,1.46,3.49,1.46c1.43,0,2.64-0.49,3.62-1.48c0.98-1,1.48-2.22,1.48-3.66
		c0-1.45-0.49-2.67-1.46-3.66c-0.97-0.99-2.16-1.48-3.59-1.48c-1.42,0-2.62,0.49-3.6,1.48C160.48,22.05,159.99,23.26,159.99,24.7"/>
	<path id="path3249_1_"  fill="#FFFFFF" d="M179.18,17.91v11.71h4.01v1.94h-6.07V17.91H179.18"/>
	<path id="path3251_1_"  fill="#FFFFFF" d="M189.55,17.91v11.71h4.01v1.94h-6.07V17.91H189.55"/>
	<path id="path3253_1_"  fill="#FFFFFF" d="M205.39,19.85h-5.47v3.28h5.31v1.94h-5.31v4.56h5.47
		v1.94h-7.53V17.91h7.53V19.85"/>
	<path id="path3255_1_"  fill="#FFFFFF" d="M220.53,18.64v2.44c-1.19-1-2.42-1.49-3.69-1.49
		c-1.4,0-2.58,0.5-3.54,1.51c-0.97,1-1.45,2.23-1.45,3.68c0,1.43,0.48,2.64,1.45,3.62c0.97,0.98,2.15,1.48,3.55,1.48
		c0.72,0,1.34-0.12,1.85-0.35c0.28-0.12,0.57-0.28,0.88-0.48c0.31-0.2,0.63-0.44,0.96-0.72v2.48c-1.18,0.67-2.42,1-3.71,1
		c-1.95,0-3.61-0.68-4.99-2.04c-1.37-1.37-2.06-3.03-2.06-4.97c0-1.74,0.57-3.29,1.72-4.65c1.41-1.67,3.24-2.5,5.49-2.5
		C218.21,17.65,219.39,17.98,220.53,18.64"/>
	<path id="path3257_1_"  fill="#FFFFFF" d="M229.25,19.85v11.71h-2.06V19.85h-3.14v-1.93h8.32v1.93
		H229.25"/>
	<path id="path3259_1_"  fill="#FFFFFF" d="M238.62,17.91v13.64h-2.06V17.91H238.62"/>
	<path id="path3261_1_"  fill="#FFFFFF" d="M243.56,24.67c0-1.92,0.7-3.57,2.11-4.95
		c1.4-1.38,3.09-2.07,5.05-2.07c1.94,0,3.61,0.7,5,2.09c1.4,1.39,2.09,3.06,2.09,5.01c0,1.96-0.7,3.63-2.1,4.99
		c-1.41,1.37-3.11,2.06-5.1,2.06c-1.76,0-3.34-0.61-4.75-1.83C244.33,28.62,243.56,26.86,243.56,24.67 M245.64,24.7
		c0,1.51,0.51,2.75,1.52,3.72c1.01,0.97,2.17,1.46,3.49,1.46c1.43,0,2.64-0.49,3.62-1.48c0.98-1,1.48-2.22,1.48-3.66
		c0-1.45-0.49-2.67-1.46-3.66c-0.97-0.99-2.16-1.48-3.59-1.48c-1.42,0-2.62,0.49-3.6,1.48C246.12,22.05,245.64,23.26,245.64,24.7"/>
	<path id="path3263_1_"  fill="#FFFFFF" d="M262.77,31.56V16.98l9.95,10.41v-9.48h2.06v14.47
		L264.83,22v9.55L262.77,31.56"/>
	<path id="path3265_1_"  fill="#FFFFFF" d="M288.1,19.94l-1.67,0.99c-0.31-0.54-0.61-0.9-0.89-1.06
		c-0.29-0.19-0.67-0.28-1.14-0.28c-0.57,0-1.05,0.16-1.42,0.49c-0.38,0.32-0.57,0.72-0.57,1.2c0,0.67,0.49,1.2,1.48,1.61l1.36,0.56
		c1.11,0.45,1.92,1,2.43,1.64c0.51,0.64,0.77,1.43,0.77,2.37c0,1.26-0.42,2.29-1.26,3.11c-0.84,0.82-1.89,1.24-3.14,1.24
		c-1.18,0-2.16-0.35-2.93-1.05c-0.76-0.7-1.23-1.69-1.42-2.96l2.09-0.46c0.09,0.8,0.26,1.36,0.49,1.66c0.42,0.59,1.04,0.88,1.86,0.88
		c0.64,0,1.18-0.21,1.6-0.65c0.42-0.43,0.64-0.97,0.64-1.63c0-0.27-0.04-0.51-0.12-0.72c-0.07-0.22-0.19-0.43-0.34-0.61
		c-0.15-0.19-0.35-0.36-0.6-0.52c-0.25-0.17-0.54-0.32-0.88-0.47l-1.32-0.55c-1.87-0.79-2.8-1.94-2.8-3.46
		c0-1.02,0.39-1.88,1.18-2.57c0.78-0.7,1.76-1.04,2.93-1.04C285.99,17.65,287.22,18.41,288.1,19.94"/>
	<path id="path4459_1_"  fill="#FFFFFF" d="M25.89,8v8.77l-0.89,0l3.54,9.46l3.04,0v8.78H2.32v-8.77
		l3.01,0l3.57-9.49l-0.91,0L8,8L25.89,8z"/>
	<path id="path4467_1_"  fill="#231F20" d="M16.94,11.28l6.27,16.25c0,0,0.8,1.98,2.11,1.98h-4.56
		c0,0,0.23,0.03,0.46-0.35c0.13-0.22,0.02-0.54,0.02-0.54l-1.41-3.63h-2.88h-2.87l-1.41,3.63c0,0-0.11,0.33,0.02,0.54
		c0.23,0.38,0.46,0.35,0.46,0.35H8.58c1.3,0,2.11-1.98,2.11-1.98L16.94,11.28"/>
	<path id="path4471_1_"  fill="#131313" d="M16.95,11.26h5.65v2.26h-2.35l6.17,15.91h1.83v2.34H20.6
		v-2.28h-2.15v4.46h12.07V27.3l-2.71,0l-4.35-11.59h1.36V9.06h-7.89H9.06v6.65h1.37L6.08,27.29L3.37,27.3v6.66h12.08v-4.46h-2.15
		v2.28H5.64v-2.34h1.83l6.17-15.91h-2.35v-2.26L16.95,11.26L16.95,11.26z"/>
	<path id="path4475_1_"  fill="#231F20" d="M34.01,32.02c0.22,0.22,0.33,0.48,0.33,0.79
		c0,0.31-0.11,0.58-0.33,0.79c-0.22,0.22-0.49,0.32-0.81,0.32c-0.32,0-0.59-0.11-0.81-0.32c-0.22-0.22-0.33-0.48-0.33-0.79
		c0-0.31,0.11-0.58,0.33-0.79c0.22-0.22,0.49-0.32,0.81-0.32S33.79,31.8,34.01,32.02 M33.85,32.15c-0.18-0.18-0.39-0.27-0.65-0.27
		s-0.47,0.09-0.65,0.27c-0.18,0.18-0.26,0.4-0.26,0.66c0,0.26,0.09,0.48,0.26,0.66c0.18,0.18,0.39,0.27,0.65,0.27
		c0.25,0,0.47-0.09,0.65-0.27c0.18-0.18,0.26-0.4,0.26-0.66C34.12,32.55,34.03,32.33,33.85,32.15 M32.71,32.17h0.1h0.41
		c0.14,0,0.25,0.03,0.33,0.09c0.08,0.06,0.12,0.15,0.12,0.26c0,0.12-0.04,0.21-0.12,0.28c-0.06,0.05-0.14,0.08-0.23,0.1l0.37,0.57
		h-0.12h-0.12l-0.33-0.56l-0.22,0v0.56h-0.1h-0.1V32.17z M32.91,32.73h0.28c0.1,0,0.17-0.02,0.21-0.05c0.04-0.03,0.07-0.09,0.07-0.16
		c0-0.06-0.02-0.11-0.07-0.14c-0.04-0.03-0.11-0.05-0.21-0.05h-0.28V32.73z"/>
	<path id="path4479_1_"  fill="#FFFFFF" d="M16.93,23.26h2.21l-2.16-5.7l-2.24,5.7H16.93z"/>
	<path id="path4483_1_"  fill="#FFFFFF" d="M2.96,37.46l-0.87,2.21h1.71L2.96,37.46z M3.06,35.56
		l0.47,1.15l1.8,4.5c0.2,0.5,0.36,0.99,0.85,1.24v0.03H4.4v-0.03c0.42-0.19,0.35-0.29,0.12-0.9l-0.47-1.24H1.87l-0.45,1.24
		c-0.18,0.49-0.24,0.74,0.17,0.9v0.03H0v-0.03c0.5-0.25,0.65-0.74,0.84-1.24l2.22-5.62V35.56z"/>
	<path id="path4487_1_"  fill="#FFFFFF" d="M7.4,41.57c0,0.26,0.02,0.46,0.07,0.58
		c0.04,0.12,0.12,0.24,0.23,0.34H6.29c0.11-0.1,0.19-0.21,0.23-0.34c0.05-0.12,0.07-0.32,0.07-0.58V38.2c0-0.26-0.02-0.46-0.07-0.58
		c-0.05-0.13-0.12-0.24-0.23-0.33h1.78c0.51,0,0.92,0.12,1.23,0.37c0.31,0.25,0.47,0.56,0.47,0.96c0,0.28-0.09,0.54-0.28,0.75
		C9.29,39.58,9,39.77,8.61,39.93l1.33,1.81c0.08,0.11,0.17,0.22,0.28,0.34c0.11,0.12,0.24,0.24,0.38,0.37l-0.4,0.04h-0.06
		c-0.19,0-0.37-0.05-0.55-0.15c-0.18-0.1-0.33-0.24-0.45-0.41l-1.53-2.14c0.45-0.1,0.79-0.24,1-0.42c0.21-0.18,0.32-0.41,0.32-0.69
		c0-0.26-0.09-0.48-0.27-0.64c-0.18-0.17-0.42-0.25-0.71-0.25c-0.07,0-0.15,0.01-0.24,0.02c-0.09,0.01-0.2,0.03-0.32,0.05V41.57z"/>
	<path id="path4491_1_"  fill="#FFFFFF" d="M12.15,41.57c0,0.26,0.02,0.46,0.07,0.58
		c0.05,0.12,0.12,0.24,0.23,0.34h-1.41c0.11-0.1,0.19-0.21,0.23-0.34c0.05-0.13,0.07-0.32,0.07-0.58v-3.37
		c0-0.26-0.02-0.46-0.07-0.58c-0.05-0.12-0.12-0.24-0.23-0.33h1.41c-0.11,0.1-0.19,0.21-0.23,0.33c-0.04,0.12-0.07,0.32-0.07,0.58
		V41.57z"/>
	<path id="path4495_1_"  fill="#FFFFFF" d="M17.36,41.51l-0.37,0.97h-4l2.73-4.54
		c-0.2-0.05-0.4-0.09-0.58-0.12c-0.18-0.03-0.35-0.04-0.5-0.04c-0.23,0-0.45,0.03-0.66,0.08c-0.21,0.06-0.43,0.15-0.64,0.27
		l0.35-0.87h3.33l-2.73,4.54c0.3,0.04,0.56,0.06,0.77,0.08c0.21,0.02,0.38,0.02,0.53,0.02c0.35,0,0.68-0.03,0.97-0.1
		C16.85,41.75,17.12,41.65,17.36,41.51"/>
	<path id="path4499_1_"  fill="#FFFFFF" d="M20.34,37.71c-0.57,0-1.04,0.2-1.41,0.6
		c-0.37,0.4-0.56,0.91-0.56,1.52c0,0.64,0.18,1.17,0.55,1.59c0.37,0.42,0.82,0.63,1.37,0.63c0.57,0,1.04-0.2,1.41-0.6
		c0.37-0.4,0.56-0.91,0.56-1.53c0-0.64-0.18-1.17-0.55-1.59C21.35,37.92,20.89,37.71,20.34,37.71 M20.31,42.61
		c-0.39,0-0.76-0.06-1.11-0.19c-0.35-0.13-0.64-0.31-0.89-0.55c-0.26-0.25-0.46-0.54-0.61-0.88c-0.14-0.34-0.21-0.69-0.21-1.07
		c0-0.29,0.04-0.58,0.13-0.85c0.09-0.28,0.22-0.53,0.39-0.77c0.27-0.37,0.6-0.65,1-0.85c0.4-0.2,0.83-0.3,1.29-0.3
		c0.4,0,0.77,0.06,1.12,0.19c0.35,0.13,0.64,0.31,0.89,0.55c0.27,0.25,0.47,0.55,0.61,0.89c0.14,0.34,0.21,0.71,0.21,1.11
		c0,0.36-0.08,0.72-0.24,1.07c-0.16,0.35-0.38,0.66-0.66,0.92c-0.26,0.24-0.55,0.42-0.88,0.55C21.04,42.55,20.69,42.61,20.31,42.61"
		/>
	<path id="path4503_1_"  fill="#FFFFFF" d="M28.5,37.28c-0.11,0.1-0.19,0.21-0.23,0.33
		c-0.05,0.13-0.07,0.32-0.07,0.58v4.41c-0.18-0.01-0.35-0.06-0.51-0.18c-0.16-0.11-0.36-0.33-0.61-0.64l-2.65-3.39v3.17
		c0,0.27,0.02,0.47,0.07,0.59c0.04,0.12,0.12,0.23,0.23,0.33h-1.16c0.11-0.1,0.18-0.21,0.23-0.34c0.05-0.13,0.07-0.32,0.07-0.58
		v-3.37c0-0.26-0.02-0.46-0.07-0.58c-0.05-0.12-0.12-0.24-0.23-0.33h1.04l3.04,3.91v-3c0-0.26-0.02-0.46-0.07-0.58
		c-0.05-0.12-0.12-0.24-0.23-0.33H28.5z"/>
	<path id="path4507_1_"  fill="#FFFFFF" d="M30.39,40.02h1.51L31.18,38L30.39,40.02z M29.7,41.79
		c-0.02,0.05-0.04,0.11-0.05,0.16c-0.01,0.06-0.02,0.11-0.02,0.17c0,0.05,0.02,0.1,0.05,0.16c0.04,0.06,0.09,0.13,0.17,0.2h-1.21
		c0.1-0.07,0.19-0.17,0.27-0.29c0.08-0.12,0.16-0.29,0.25-0.5l1.45-3.72c0.03-0.07,0.05-0.14,0.07-0.21
		c0.01-0.07,0.02-0.13,0.02-0.18c0-0.06-0.01-0.11-0.04-0.17c-0.03-0.05-0.08-0.1-0.14-0.15h1.17l1.63,4.37
		c0.08,0.2,0.16,0.36,0.25,0.48c0.09,0.12,0.2,0.24,0.34,0.36h-1.47l0.02-0.02c0.14-0.14,0.2-0.25,0.2-0.32
		c0-0.08-0.03-0.2-0.09-0.35c-0.01-0.03-0.01-0.04-0.02-0.06l-0.44-1.2h-1.91L29.7,41.79z"/>
	<path id="path3995_1_"  fill="none" stroke="#CCCCCC" d="M40.4,0v47.01"/>
</symbol>

<symbol id="ua-libraries">
	<title>University Libraries</title>
	<path id="path3076_1_"  fill="#D1D1D1" d="M1.59,0.72v6.36c0,0.91,0.15,1.57,0.44,1.99
	C2.48,9.67,3.1,9.97,3.9,9.97c0.81,0,1.43-0.3,1.87-0.91c0.3-0.41,0.44-1.07,0.44-1.99V0.72h1.59v6.79c0,1.11-0.35,2.03-1.04,2.75
	c-0.78,0.8-1.74,1.2-2.87,1.2s-2.09-0.4-2.86-1.2C0.35,9.54,0,8.62,0,7.51V0.72H1.59"/>
<path id="path3078_1_"  fill="#D1D1D1" d="M13.31,11.27V0l7.7,8.05V0.72h1.59v11.2l-7.7-8.03v7.39
	L13.31,11.27"/>
<path id="path3080_1_"  fill="#D1D1D1" d="M29.92,0.72v10.55h-1.59V0.72H29.92"/>
<path id="path3082_1_"  fill="#D1D1D1" d="M36.2,0.72l2.92,7.31l2.96-7.31h1.74l-4.74,11.35
	L34.45,0.72H36.2"/>
<path id="path3084_1_"  fill="#D1D1D1" d="M53.93,2.21h-4.23v2.54h4.11v1.5h-4.11v3.53h4.23v1.5
	H48.1V0.72h5.82V2.21"/>
<path id="path3086_1_"  fill="#D1D1D1" d="M62.59,6.77l3.27,4.5h-1.95l-3.02-4.32H60.6v4.32h-1.59
	V0.72h1.87c1.39,0,2.4,0.26,3.02,0.79c0.68,0.58,1.02,1.35,1.02,2.31c0,0.75-0.21,1.39-0.64,1.93C63.85,6.28,63.29,6.62,62.59,6.77
	 M60.6,5.56h0.51c1.51,0,2.26-0.58,2.26-1.73c0-1.08-0.73-1.62-2.2-1.62H60.6L60.6,5.56"/>
<path id="path3088_1_"  fill="#D1D1D1" d="M76.38,2.29l-1.29,0.77c-0.24-0.42-0.47-0.69-0.69-0.82
	c-0.23-0.15-0.52-0.22-0.88-0.22c-0.44,0-0.81,0.12-1.1,0.38c-0.29,0.25-0.44,0.56-0.44,0.93c0,0.52,0.38,0.93,1.15,1.24L74.18,5
	c0.86,0.35,1.48,0.77,1.88,1.27c0.4,0.5,0.6,1.11,0.6,1.83c0,0.97-0.32,1.77-0.97,2.41c-0.65,0.64-1.46,0.96-2.43,0.96
	c-0.92,0-1.67-0.27-2.27-0.81c-0.59-0.54-0.95-1.31-1.1-2.29l1.61-0.35c0.07,0.62,0.2,1.05,0.38,1.28c0.33,0.46,0.81,0.68,1.44,0.68
	c0.5,0,0.91-0.17,1.24-0.5s0.49-0.75,0.49-1.27c0-0.21-0.03-0.39-0.09-0.56c-0.05-0.17-0.14-0.33-0.27-0.47
	c-0.12-0.15-0.27-0.28-0.46-0.4c-0.19-0.13-0.42-0.25-0.68-0.36l-1.02-0.42c-1.45-0.61-2.17-1.5-2.17-2.68
	c0-0.79,0.3-1.46,0.91-1.99c0.61-0.54,1.36-0.81,2.26-0.81C74.74,0.51,75.69,1.1,76.38,2.29"/>
<path id="path3090_1_"  fill="#D1D1D1" d="M83.16,0.72v10.55h-1.59V0.72H83.16"/>
<path id="path3092_1_"  fill="#D1D1D1" d="M91.58,2.21v9.06h-1.59V2.21h-2.43v-1.5H94v1.5H91.58"/>
<path id="path3094_1_"  fill="#D1D1D1" d="M100.31,6.71l-3.45-5.99h1.83l2.41,4.22l2.42-4.22h1.83
	l-3.46,5.99v4.56h-1.59L100.31,6.71"/>
<path id="path3057_1_"  fill="#D1D1D1" d="M8.81,19.54v9.06h3.1v1.5h-4.7V19.54H8.81"/>
<path id="path3059_1_"  fill="#D1D1D1" d="M18.41,19.54v10.55h-1.59V19.54H18.41"/>
<path id="path3061_1_"  fill="#D1D1D1" d="M24.12,30.09V19.54h1.59c0.71,0,1.27,0.05,1.69,0.16
	c0.42,0.11,0.78,0.29,1.07,0.55c0.3,0.27,0.53,0.6,0.7,1.01c0.18,0.41,0.27,0.82,0.27,1.23c0,0.76-0.29,1.4-0.87,1.92
	c0.56,0.19,1,0.53,1.33,1.01c0.33,0.47,0.49,1.03,0.49,1.65c0,0.83-0.29,1.52-0.88,2.09c-0.35,0.35-0.74,0.59-1.18,0.73
	c-0.48,0.13-1.08,0.2-1.8,0.2L24.12,30.09 M25.71,24.07h0.5c0.59,0,1.02-0.13,1.3-0.39c0.28-0.27,0.42-0.65,0.42-1.16
	c0-0.5-0.14-0.87-0.42-1.13C27.22,21.13,26.81,21,26.27,21h-0.56L25.71,24.07 M25.71,28.59h0.98c0.72,0,1.25-0.14,1.59-0.42
	c0.36-0.31,0.53-0.69,0.53-1.16c0-0.46-0.17-0.84-0.51-1.15c-0.33-0.31-0.93-0.46-1.78-0.46h-0.81L25.71,28.59"/>
<path id="path3063_1_"  fill="#D1D1D1" d="M39.15,25.59l3.27,4.5h-1.95l-3.02-4.32h-0.29v4.32
	h-1.59V19.54h1.87c1.39,0,2.4,0.26,3.02,0.79c0.68,0.58,1.02,1.35,1.02,2.31c0,0.75-0.21,1.39-0.64,1.93
	C40.41,25.1,39.85,25.44,39.15,25.59 M37.16,24.38h0.51c1.51,0,2.26-0.58,2.26-1.73c0-1.08-0.73-1.62-2.2-1.62h-0.57L37.16,24.38"/>
<path id="path3065_1_"  fill="#D1D1D1" d="M53.36,27.53h-4.52l-1.18,2.56h-1.72l5.22-11.22
	l5.04,11.22h-1.74L53.36,27.53 M52.71,26.03l-1.57-3.59l-1.64,3.59H52.71"/>
<path id="path3067_1_"  fill="#D1D1D1" d="M64.27,25.59l3.27,4.5h-1.95l-3.02-4.32h-0.29v4.32
	h-1.59V19.54h1.87c1.39,0,2.4,0.26,3.02,0.79c0.68,0.58,1.02,1.35,1.02,2.31c0,0.75-0.21,1.39-0.64,1.93
	C65.53,25.1,64.97,25.44,64.27,25.59 M62.28,24.38h0.51c1.51,0,2.26-0.58,2.26-1.73c0-1.08-0.73-1.62-2.2-1.62h-0.57L62.28,24.38"/>
<path id="path3069_1_"  fill="#D1D1D1" d="M73.87,19.54v10.55h-1.59V19.54H73.87"/>
<path id="path3071_1_"  fill="#D1D1D1" d="M85.4,21.03h-4.23v2.54h4.11v1.5h-4.11v3.53h4.23v1.5
	h-5.82V19.53h5.82V21.03"/>
<path id="path3073_1_"  fill="#D1D1D1" d="M96.64,21.11l-1.29,0.77c-0.24-0.42-0.47-0.69-0.69-0.82
	c-0.23-0.15-0.52-0.22-0.88-0.22c-0.44,0-0.81,0.12-1.1,0.38c-0.29,0.25-0.44,0.56-0.44,0.93c0,0.52,0.38,0.93,1.15,1.24l1.05,0.43
	c0.86,0.35,1.48,0.77,1.88,1.27c0.4,0.5,0.59,1.11,0.59,1.83c0,0.97-0.32,1.77-0.97,2.41c-0.65,0.64-1.46,0.96-2.43,0.96
	c-0.92,0-1.67-0.27-2.27-0.81c-0.59-0.54-0.95-1.31-1.1-2.29l1.61-0.35c0.07,0.62,0.2,1.05,0.38,1.28c0.33,0.46,0.81,0.68,1.44,0.68
	c0.5,0,0.91-0.17,1.24-0.5c0.33-0.33,0.49-0.75,0.49-1.27c0-0.21-0.03-0.39-0.09-0.56c-0.05-0.17-0.14-0.33-0.27-0.47
	c-0.12-0.15-0.27-0.28-0.47-0.4c-0.19-0.13-0.42-0.25-0.68-0.36l-1.02-0.42c-1.45-0.61-2.17-1.5-2.17-2.68
	c0-0.79,0.3-1.46,0.91-1.99c0.61-0.54,1.36-0.81,2.26-0.81C95.01,19.33,95.96,19.92,96.64,21.11"/>
</symbol>
<symbol id="veggieburger" viewBox="0 0 33 31">
	<title>Mobile Menu</title>
	<rect x="0.5" y="0.5" fill="none" stroke="#FFFFFF" stroke-miterlimit="10" width="32" height="30"/>
	<rect x="6.43" y="5.3" fill="#FFFFFF" width="20.15" height="3.6"/>
	<rect x="6.43" y="13.1" fill="#FFFFFF" width="20.15" height="3.6"/>
	<rect x="6.43" y="20.9" fill="#FFFFFF" width="20.15" height="3.6"/>
</symbol>
<symbol id="icon-search" viewBox="0 0 41 40">
		<title>Search Icon</title>
	<g id="Page 1" stroke="none" stroke-width="1" fill="none" fill-rule="evenodd">
		<g id="search" fill="#C6C8C8">
			<path d="M0.504,16.338 C0.504,25.085 7.635,32.165 16.444,32.165 C25.24,32.165 32.382,25.085 32.382,16.338 C32.382,7.591 25.24,0.5 16.444,0.5 C7.635,0.5 0.504,7.591 0.504,16.338 L0.504,16.338 Z M5.555,16.338 C5.555,10.359 10.423,5.521 16.445,5.521 C22.455,5.521 27.333,10.36 27.333,16.338 C27.333,22.317 22.455,27.156 16.445,27.156 C10.423,27.156 5.555,22.316 5.555,16.338 L5.555,16.338 Z M27.666,30.861 L34.521,38.67 C35.625,39.772 36.338,39.781 37.46,38.67 L39.661,36.489 C40.743,35.408 40.811,34.711 39.661,33.568 L31.765,26.793 L27.666,30.861 L27.666,30.861 Z M27.666,30.861" id="Shape"></path>
		</g>
	</g>
</symbol>
<symbol id="logo-avma" viewBox="76 166 394 117">
<title>American Vaudeville Museum Archive Logo</title>
<g fill="#6C6C6C" fill-rule="evenodd">
	<path d="M221.224 274.232l5.544-13.992h7.008v.96c-.528 0-.956.052-1.284.156-.328.104-.58.292-.756.564-.176.272-.292.644-.348 1.116-.056.472-.084 1.068-.084 1.788v9.312c0 .8.032 1.432.096 1.896.064.464.192.824.384 1.08.192.256.468.424.828.504.36.08.836.128 1.428.144v.96h-9.024v-.96c.592-.016 1.068-.068 1.428-.156.36-.088.64-.252.84-.492.2-.24.332-.58.396-1.02.064-.44.096-1.036.096-1.788v-11.232h-.12L221.2 278.96h-1.776l-6.672-15.888h-.096v11.064c0 .8.032 1.432.096 1.896.064.464.192.824.384 1.08.192.256.468.424.828.504.36.08.836.128 1.428.144v.96H208v-.96c.592-.016 1.072-.068 1.44-.156.368-.088.652-.252.852-.492.2-.24.332-.58.396-1.02.064-.44.096-1.036.096-1.788v-9.648c0-.672-.032-1.232-.096-1.68-.064-.448-.184-.804-.36-1.068s-.428-.448-.756-.552c-.328-.104-.764-.156-1.308-.156v-.96h7.272l5.592 13.992h.096zm31.704-2.952c0 1.36-.148 2.524-.444 3.492-.296.968-.756 1.764-1.38 2.388-.624.624-1.428 1.08-2.412 1.368-.984.288-2.164.432-3.54.432-2.576 0-4.46-.54-5.652-1.62-1.192-1.08-1.788-2.804-1.788-5.172v-6.576c0-.624-.008-1.148-.024-1.572-.016-.424-.04-.78-.072-1.068-.032-.288-.076-.524-.132-.708-.056-.184-.124-.34-.204-.468-.144-.224-.352-.376-.624-.456-.272-.08-.688-.12-1.248-.12v-.96h8.616v.96c-.672 0-1.168.036-1.488.108-.32.072-.568.212-.744.42-.112.128-.204.284-.276.468-.072.184-.128.424-.168.72-.04.296-.068.66-.084 1.092-.016.432-.024.96-.024 1.584v6.288c0 1.824.388 3.172 1.164 4.044.776.872 1.972 1.308 3.588 1.308 3.296 0 4.944-1.832 4.944-5.496v-5.544c0-.672-.012-1.248-.036-1.728-.024-.48-.064-.888-.12-1.224-.056-.336-.128-.616-.216-.84-.088-.224-.196-.408-.324-.552-.224-.224-.512-.388-.864-.492-.352-.104-.84-.156-1.464-.156v-.96h7.776v.96c-.592 0-1.048.044-1.368.132-.32.088-.568.244-.744.468-.128.144-.232.332-.312.564-.08.232-.144.52-.192.864-.048.344-.084.756-.108 1.236-.024.48-.036 1.056-.036 1.728v5.088zm4.248 1.32h.936c.224 1.52.832 2.716 1.824 3.588.992.872 2.216 1.308 3.672 1.308.592 0 1.136-.072 1.632-.216.496-.144.92-.348 1.272-.612s.624-.576.816-.936c.192-.36.288-.764.288-1.212 0-.384-.06-.716-.18-.996s-.348-.552-.684-.816c-.336-.264-.796-.532-1.38-.804-.584-.272-1.34-.584-2.268-.936-1.872-.72-3.256-1.556-4.152-2.508-.896-.952-1.344-2.076-1.344-3.372 0-.752.144-1.44.432-2.064.288-.624.692-1.16 1.212-1.608.52-.448 1.144-.796 1.872-1.044.728-.248 1.532-.372 2.412-.372.816 0 1.584.128 2.304.384.72.256 1.432.64 2.136 1.152l.432-1.2h.576l.264 5.184h-.936c-.384-1.312-.984-2.316-1.8-3.012-.816-.696-1.76-1.044-2.832-1.044-.992 0-1.796.244-2.412.732-.616.488-.924 1.116-.924 1.884 0 .336.056.636.168.9.112.264.32.516.624.756s.72.484 1.248.732 1.208.524 2.04.828c1.12.432 2.076.868 2.868 1.308.792.44 1.44.912 1.944 1.416.504.504.876 1.036 1.116 1.596.24.56.36 1.176.36 1.848 0 .816-.176 1.56-.528 2.232-.352.672-.844 1.248-1.476 1.728s-1.384.856-2.256 1.128c-.872.272-1.836.408-2.892.408-.96 0-1.824-.132-2.592-.396s-1.56-.692-2.376-1.284l-.48 1.44h-.576l-.36-6.12zm21.504-4.104c1.024 0 1.848-.032 2.472-.096.624-.064 1.108-.196 1.452-.396.344-.2.588-.492.732-.876.144-.384.256-.904.336-1.56h.888v7.032h-.888c-.096-.64-.224-1.152-.384-1.536-.16-.384-.416-.676-.768-.876-.352-.2-.828-.328-1.428-.384-.6-.056-1.404-.084-2.412-.084v4.944c0 .512.068.944.204 1.296.136.352.364.636.684.852.32.216.744.368 1.272.456.528.088 1.176.132 1.944.132.912 0 1.684-.064 2.316-.192.632-.128 1.156-.352 1.572-.672.416-.32.752-.748 1.008-1.284s.472-1.212.648-2.028h.96l-.384 5.496h-16.272v-.96c.528-.016.96-.064 1.296-.144.336-.08.592-.216.768-.408.176-.192.296-.464.36-.816.064-.352.096-.808.096-1.368v-11.088c0-.56-.028-1.012-.084-1.356-.056-.344-.164-.616-.324-.816-.16-.2-.388-.336-.684-.408-.296-.072-.684-.124-1.164-.156v-.96h15.168l.168 4.704H287.2c-.096-.672-.248-1.228-.456-1.668-.208-.44-.496-.792-.864-1.056s-.844-.448-1.428-.552c-.584-.104-1.3-.156-2.148-.156h-2.712c-.416 0-.672.052-.768.156-.096.104-.144.348-.144.732v6.096zm29.616 2.784c0 1.36-.148 2.524-.444 3.492-.296.968-.756 1.764-1.38 2.388-.624.624-1.428 1.08-2.412 1.368-.984.288-2.164.432-3.54.432-2.576 0-4.46-.54-5.652-1.62-1.192-1.08-1.788-2.804-1.788-5.172v-6.576c0-.624-.008-1.148-.024-1.572-.016-.424-.04-.78-.072-1.068-.032-.288-.076-.524-.132-.708-.056-.184-.124-.34-.204-.468-.144-.224-.352-.376-.624-.456-.272-.08-.688-.12-1.248-.12v-.96h8.616v.96c-.672 0-1.168.036-1.488.108-.32.072-.568.212-.744.42-.112.128-.204.284-.276.468-.072.184-.128.424-.168.72-.04.296-.068.66-.084 1.092-.016.432-.024.96-.024 1.584v6.288c0 1.824.388 3.172 1.164 4.044.776.872 1.972 1.308 3.588 1.308 3.296 0 4.944-1.832 4.944-5.496v-5.544c0-.672-.012-1.248-.036-1.728-.024-.48-.064-.888-.12-1.224-.056-.336-.128-.616-.216-.84-.088-.224-.196-.408-.324-.552-.224-.224-.512-.388-.864-.492-.352-.104-.84-.156-1.464-.156v-.96h7.776v.96c-.592 0-1.048.044-1.368.132-.32.088-.568.244-.744.468-.128.144-.232.332-.312.564-.08.232-.144.52-.192.864-.048.344-.084.756-.108 1.236-.024.48-.036 1.056-.036 1.728v5.088zm16.896 2.952l5.544-13.992h7.008v.96c-.528 0-.956.052-1.284.156-.328.104-.58.292-.756.564-.176.272-.292.644-.348 1.116-.056.472-.084 1.068-.084 1.788v9.312c0 .8.032 1.432.096 1.896.064.464.192.824.384 1.08.192.256.468.424.828.504.36.08.836.128 1.428.144v.96h-9.024v-.96c.592-.016 1.068-.068 1.428-.156.36-.088.64-.252.84-.492.2-.24.332-.58.396-1.02.064-.44.096-1.036.096-1.788v-11.232h-.12l-6.456 15.888h-1.776l-6.672-15.888h-.096v11.064c0 .8.032 1.432.096 1.896.064.464.192.824.384 1.08.192.256.468.424.828.504.36.08.836.128 1.428.144v.96h-7.392v-.96c.592-.016 1.072-.068 1.44-.156.368-.088.652-.252.852-.492.2-.24.332-.58.396-1.02.064-.44.096-1.036.096-1.788v-9.648c0-.672-.032-1.232-.096-1.68-.064-.448-.184-.804-.36-1.068s-.428-.448-.756-.552c-.328-.104-.764-.156-1.308-.156v-.96h7.272l5.592 13.992h.096zm30.984-1.104h-6.792c-.752 1.696-1.128 2.872-1.128 3.528 0 .48.18.784.54.912.36.128.9.192 1.62.192v.96h-6.576v-.96c.384-.048.716-.112.996-.192s.528-.192.744-.336c.216-.144.404-.332.564-.564.16-.232.312-.516.456-.852L352.912 260h1.776l5.736 14.016c.336.816.62 1.456.852 1.92.232.464.48.82.744 1.068.264.248.568.42.912.516.344.096.788.168 1.332.216v.984h-9.072v-.984c.768-.032 1.32-.112 1.656-.24.336-.128.504-.384.504-.768 0-.224-.056-.512-.168-.864-.112-.352-.264-.784-.456-1.296l-.552-1.44zm-6.24-1.44h5.712l-2.76-7.272h-.096l-2.856 7.272zm30.312-6.816c0 1.328-.384 2.44-1.152 3.336-.768.896-1.992 1.496-3.672 1.8l5.568 6.384c.384.448.84.788 1.368 1.02.528.232 1.064.348 1.608.348v.96h-5.688l-5.952-7.296c-.4-.48-.748-.804-1.044-.972-.296-.168-.572-.252-.828-.252v4.704c0 .592.04 1.076.12 1.452.08.376.24.668.48.876.24.208.588.348 1.044.42.456.072 1.068.108 1.836.108v.96h-9.528v-.96c.528 0 .956-.036 1.284-.108.328-.072.584-.208.768-.408.184-.2.308-.48.372-.84s.096-.82.096-1.38v-11.088c0-.56-.024-1.012-.072-1.356-.048-.344-.152-.616-.312-.816-.16-.2-.388-.336-.684-.408-.296-.072-.692-.124-1.188-.156v-.96h8.304c2.32 0 4.112.408 5.376 1.224 1.264.816 1.896 1.952 1.896 3.408zm-9.792 3.888h1.56c1.504 0 2.628-.292 3.372-.876.744-.584 1.116-1.548 1.116-2.892 0-1.024-.312-1.848-.936-2.472-.624-.624-1.488-.936-2.592-.936h-2.088c-.288 0-.432.136-.432.408v6.768zm29.304-8.52h1.176l-.48 6.072h-.96c-.336-1.472-.988-2.632-1.956-3.48-.968-.848-2.14-1.272-3.516-1.272-.944 0-1.784.188-2.52.564-.736.376-1.356.912-1.86 1.608-.504.696-.888 1.544-1.152 2.544-.264 1-.396 2.124-.396 3.372 0 2.48.508 4.388 1.524 5.724 1.016 1.336 2.516 2.004 4.5 2.004 1.6 0 2.924-.432 3.972-1.296 1.048-.864 1.796-2.152 2.244-3.864h1.056v6.504h-1.128l-.336-1.896c-1.76 1.424-3.896 2.136-6.408 2.136-1.456 0-2.776-.216-3.96-.648-1.184-.432-2.192-1.044-3.024-1.836-.832-.792-1.476-1.756-1.932-2.892-.456-1.136-.684-2.4-.684-3.792 0-1.456.24-2.784.72-3.984.48-1.2 1.156-2.232 2.028-3.096.872-.864 1.912-1.532 3.12-2.004 1.208-.472 2.548-.708 4.02-.708.976 0 1.888.136 2.736.408.848.272 1.768.712 2.76 1.32l.456-1.488zm22.104 14.616c0 .608.028 1.1.084 1.476.056.376.176.664.36.864.184.2.44.34.768.42.328.08.764.128 1.308.144v.96h-8.808v-.96c.592-.016 1.068-.064 1.428-.144.36-.08.64-.216.84-.408.2-.192.332-.464.396-.816.064-.352.096-.808.096-1.368v-5.016h-8.904v4.848c0 .608.032 1.1.096 1.476.064.376.192.664.384.864.192.2.468.34.828.42.36.08.836.128 1.428.144v.96h-8.784v-.96c.544-.016.98-.064 1.308-.144.328-.08.58-.216.756-.408.176-.192.296-.464.36-.816.064-.352.096-.808.096-1.368v-11.088c0-.56-.028-1.012-.084-1.356-.056-.344-.164-.616-.324-.816-.16-.2-.388-.336-.684-.408-.296-.072-.684-.124-1.164-.156v-.96h8.28v.96c-.544.016-.98.064-1.308.144-.328.08-.58.224-.756.432-.176.208-.292.496-.348.864-.056.368-.084.856-.084 1.464v4.416h8.904v-4.584c0-.56-.032-1.012-.096-1.356-.064-.344-.184-.616-.36-.816-.176-.2-.428-.336-.756-.408-.328-.072-.764-.124-1.308-.156v-.96h8.304v.96c-.48.016-.868.064-1.164.144-.296.08-.524.224-.684.432-.16.208-.268.496-.324.864-.056.368-.084.856-.084 1.464v10.752zm12.792 3.864h-8.568v-.96c.544-.016.98-.068 1.308-.156.328-.088.58-.252.756-.492.176-.24.296-.58.36-1.02.064-.44.096-1.036.096-1.788v-9.648c0-.672-.028-1.228-.084-1.668-.056-.44-.164-.788-.324-1.044s-.388-.436-.684-.54c-.296-.104-.692-.172-1.188-.204v-.96h8.088v.96c-.496.032-.892.1-1.188.204-.296.104-.524.284-.684.54-.16.256-.268.604-.324 1.044-.056.44-.084.996-.084 1.668v9.648c0 .752.028 1.348.084 1.788.056.44.176.78.36 1.02s.44.404.768.492c.328.088.764.14 1.308.156v.96zm11.376-4.128l3.12-7.992c.304-.784.548-1.424.732-1.92.184-.496.324-.904.42-1.224.096-.32.16-.576.192-.768.032-.192.048-.376.048-.552 0-.384-.144-.636-.432-.756-.288-.12-.864-.18-1.728-.18v-.96h6.816v.96c-1.328 0-2.248.648-2.76 1.944l-6.312 15.816h-1.776l-5.736-14.016c-.32-.752-.608-1.368-.864-1.848s-.528-.86-.816-1.14c-.288-.28-.604-.472-.948-.576-.344-.104-.748-.156-1.212-.156v-.984h9.072v.984c-.416.016-.764.04-1.044.072-.28.032-.5.084-.66.156-.16.072-.272.168-.336.288-.064.12-.096.268-.096.444 0 .224.04.488.12.792.08.304.2.672.36 1.104l3.84 10.512zm15.696-6.096c1.024 0 1.848-.032 2.472-.096.624-.064 1.108-.196 1.452-.396.344-.2.588-.492.732-.876.144-.384.256-.904.336-1.56h.888v7.032h-.888c-.096-.64-.224-1.152-.384-1.536-.16-.384-.416-.676-.768-.876-.352-.2-.828-.328-1.428-.384-.6-.056-1.404-.084-2.412-.084v4.944c0 .512.068.944.204 1.296.136.352.364.636.684.852.32.216.744.368 1.272.456.528.088 1.176.132 1.944.132.912 0 1.684-.064 2.316-.192.632-.128 1.156-.352 1.572-.672.416-.32.752-.748 1.008-1.284s.472-1.212.648-2.028h.96l-.384 5.496H455.68v-.96c.528-.016.96-.064 1.296-.144.336-.08.592-.216.768-.408.176-.192.296-.464.36-.816.064-.352.096-.808.096-1.368v-11.088c0-.56-.028-1.012-.084-1.356-.056-.344-.164-.616-.324-.816-.16-.2-.388-.336-.684-.408-.296-.072-.684-.124-1.164-.156v-.96h15.168l.168 4.704h-1.032c-.096-.672-.248-1.228-.456-1.668-.208-.44-.496-.792-.864-1.056s-.844-.448-1.428-.552c-.584-.104-1.3-.156-2.148-.156h-2.712c-.416 0-.672.052-.768.156-.096.104-.144.348-.144.732v6.096zM100.388 240.616l6.76-17.316c.66-1.7 1.187-3.085 1.586-4.16.4-1.075.702-1.96.91-2.652.208-.693.347-1.248.416-1.664.07-.416.104-.815.104-1.196 0-.832-.312-1.378-.936-1.638-.624-.26-1.872-.39-3.744-.39v-2.08h14.768v2.08c-2.877 0-4.87 1.404-5.98 4.212l-13.676 34.268h-3.848L84.32 219.712c-.693-1.63-1.317-2.964-1.872-4.004-.555-1.04-1.144-1.863-1.768-2.47-.624-.607-1.31-1.023-2.054-1.248-.745-.225-1.62-.338-2.626-.338v-2.132h19.656v2.132c-.9.035-1.655.087-2.262.156-.607.07-1.083.182-1.43.338-.347.156-.59.364-.728.624-.14.26-.208.58-.208.962 0 .485.087 1.057.26 1.716.173.66.433 1.456.78 2.392l8.32 22.776zm36.716-3.172h-14.716c-1.63 3.675-2.444 6.223-2.444 7.644 0 1.04.39 1.7 1.17 1.976.78.277 1.95.416 3.51.416v2.08h-14.248v-2.08c.832-.104 1.55-.243 2.158-.416.607-.173 1.144-.416 1.612-.728.468-.312.875-.72 1.222-1.222.347-.503.676-1.118.988-1.846L130.032 209h3.848l12.428 30.368c.728 1.768 1.343 3.155 1.846 4.16.503 1.005 1.04 1.777 1.612 2.314.572.537 1.23.91 1.976 1.118.745.208 1.707.364 2.886.468v2.132h-19.656v-2.132c1.664-.07 2.86-.243 3.588-.52.728-.277 1.092-.832 1.092-1.664 0-.485-.12-1.11-.364-1.872-.243-.763-.572-1.7-.988-2.808l-1.196-3.12zm-13.52-3.12h12.376l-5.98-15.756h-.208l-6.188 15.756zm67.028-.884c0 2.947-.32 5.47-.962 7.566-.64 2.097-1.638 3.822-2.99 5.174-1.352 1.352-3.094 2.34-5.226 2.964-2.132.624-4.69.936-7.67.936-5.58 0-9.663-1.17-12.246-3.51s-3.874-6.075-3.874-11.206v-14.248c0-1.352-.017-2.487-.052-3.406-.035-.92-.087-1.69-.156-2.314-.07-.624-.165-1.135-.286-1.534-.12-.4-.27-.737-.442-1.014-.312-.485-.763-.815-1.352-.988-.59-.173-1.49-.26-2.704-.26v-2.08h18.668v2.08c-1.456 0-2.53.078-3.224.234-.693.156-1.23.46-1.612.91-.243.277-.442.615-.598 1.014-.156.4-.277.92-.364 1.56-.087.64-.147 1.43-.182 2.366-.035.936-.052 2.08-.052 3.432v13.624c0 3.952.84 6.873 2.522 8.762 1.68 1.89 4.273 2.834 7.774 2.834 7.14 0 10.712-3.97 10.712-11.908v-12.012c0-1.456-.026-2.704-.078-3.744-.052-1.04-.14-1.924-.26-2.652-.12-.728-.277-1.335-.468-1.82-.19-.485-.425-.884-.702-1.196-.485-.485-1.11-.84-1.872-1.066-.763-.225-1.82-.338-3.172-.338v-2.08h16.848v2.08c-1.283 0-2.27.095-2.964.286-.693.19-1.23.53-1.612 1.014-.277.312-.503.72-.676 1.222-.173.503-.312 1.127-.416 1.872-.104.745-.182 1.638-.234 2.678-.052 1.04-.078 2.288-.078 3.744v11.024zm11.216 16.12v-2.08c1.144-.035 2.07-.13 2.782-.286.71-.156 1.265-.45 1.664-.884.4-.433.667-1.023.806-1.768.14-.745.208-1.742.208-2.99v-24.024c0-1.213-.052-2.193-.156-2.938-.104-.745-.33-1.335-.676-1.768-.347-.433-.823-.728-1.43-.884-.607-.156-1.395-.27-2.366-.338v-2.08h19.76c3.328 0 6.396.52 9.204 1.56 2.808 1.04 5.235 2.48 7.28 4.316 2.045 1.837 3.64 4.02 4.784 6.552 1.144 2.53 1.716 5.287 1.716 8.268 0 2.843-.537 5.45-1.612 7.826-1.075 2.375-2.574 4.41-4.498 6.11-1.924 1.7-4.23 3.025-6.916 3.978-2.687.953-5.642 1.43-8.866 1.43h-21.684zm15.988-36.868c-.59 0-.884.295-.884.884v26.884c0 2.01.624 3.5 1.872 4.472 1.248.97 3.172 1.456 5.772 1.456 4.54 0 8.034-1.37 10.478-4.108 2.444-2.74 3.666-6.725 3.666-11.96 0-2.773-.33-5.252-.988-7.436-.66-2.184-1.612-4.03-2.86-5.538-1.248-1.508-2.765-2.66-4.55-3.458-1.785-.797-3.787-1.196-6.006-1.196h-6.5zm44.28 14.716c2.22 0 4.004-.07 5.356-.208 1.352-.14 2.4-.425 3.146-.858.745-.433 1.274-1.066 1.586-1.898.312-.832.555-1.96.728-3.38h1.924V236.3h-1.924c-.208-1.387-.485-2.496-.832-3.328-.347-.832-.9-1.465-1.664-1.898-.763-.433-1.794-.71-3.094-.832-1.3-.12-3.042-.182-5.226-.182v10.712c0 1.11.147 2.045.442 2.808.295.763.79 1.378 1.482 1.846.693.468 1.612.797 2.756.988 1.144.19 2.548.286 4.212.286 1.976 0 3.65-.14 5.018-.416 1.37-.277 2.505-.763 3.406-1.456.9-.693 1.63-1.62 2.184-2.782.555-1.16 1.023-2.626 1.404-4.394h2.08l-.832 11.908h-35.256v-2.08c1.144-.035 2.08-.14 2.808-.312.728-.173 1.283-.468 1.664-.884.38-.416.64-1.005.78-1.768.14-.763.208-1.75.208-2.964v-24.024c0-1.213-.06-2.193-.182-2.938-.12-.745-.355-1.335-.702-1.768-.347-.433-.84-.728-1.482-.884-.64-.156-1.482-.27-2.522-.338v-2.08h32.864l.364 10.192h-2.236c-.208-1.456-.537-2.66-.988-3.614-.45-.953-1.075-1.716-1.872-2.288-.797-.572-1.83-.97-3.094-1.196-1.265-.225-2.817-.338-4.654-.338h-5.876c-.9 0-1.456.113-1.664.338-.208.225-.312.754-.312 1.586v13.208zm50.58 13.208l6.76-17.316c.66-1.7 1.187-3.085 1.586-4.16.4-1.075.702-1.96.91-2.652.208-.693.347-1.248.416-1.664.07-.416.104-.815.104-1.196 0-.832-.312-1.378-.936-1.638-.624-.26-1.872-.39-3.744-.39v-2.08h14.768v2.08c-2.877 0-4.87 1.404-5.98 4.212l-13.676 34.268h-3.848l-12.428-30.368c-.693-1.63-1.317-2.964-1.872-4.004-.555-1.04-1.144-1.863-1.768-2.47-.624-.607-1.31-1.023-2.054-1.248-.745-.225-1.62-.338-2.626-.338v-2.132h19.656v2.132c-.9.035-1.655.087-2.262.156-.607.07-1.083.182-1.43.338-.347.156-.59.364-.728.624-.14.26-.208.58-.208.962 0 .485.087 1.057.26 1.716.173.66.433 1.456.78 2.392l8.32 22.776zm41.52 8.944h-18.564v-2.08c1.18-.035 2.123-.147 2.834-.338.71-.19 1.257-.546 1.638-1.066.38-.52.64-1.257.78-2.21.14-.953.208-2.245.208-3.874v-20.904c0-1.456-.06-2.66-.182-3.614-.12-.953-.355-1.707-.702-2.262-.347-.555-.84-.945-1.482-1.17-.64-.225-1.5-.373-2.574-.442v-2.08h17.524v2.08c-1.075.07-1.933.217-2.574.442-.64.225-1.135.615-1.482 1.17-.347.555-.58 1.31-.702 2.262-.12.953-.182 2.158-.182 3.614v20.904c0 1.63.06 2.92.182 3.874.12.953.38 1.69.78 2.21s.953.875 1.664 1.066c.71.19 1.655.303 2.834.338v2.08zm39.52 0h-35.828v-2.08c1.144-.035 2.08-.14 2.808-.312.728-.173 1.283-.468 1.664-.884.38-.416.64-1.005.78-1.768.14-.763.208-1.75.208-2.964v-24.024c0-1.213-.06-2.193-.182-2.938-.12-.745-.355-1.335-.702-1.768-.347-.433-.84-.728-1.482-.884-.64-.156-1.482-.27-2.522-.338v-2.08h17.94v2.08c-1.18.035-2.123.14-2.834.312-.71.173-1.257.485-1.638.936-.38.45-.633 1.075-.754 1.872-.12.797-.182 1.855-.182 3.172v21.788c0 1.456.147 2.643.442 3.562.295.92.806 1.63 1.534 2.132.728.503 1.7.85 2.912 1.04 1.213.19 2.72.286 4.524.286 2.01 0 3.692-.12 5.044-.364 1.352-.243 2.487-.702 3.406-1.378.92-.676 1.655-1.586 2.21-2.73.555-1.144 1.023-2.635 1.404-4.472h2.08l-.832 11.804zm39.26 0h-35.828v-2.08c1.144-.035 2.08-.14 2.808-.312.728-.173 1.283-.468 1.664-.884.38-.416.64-1.005.78-1.768.14-.763.208-1.75.208-2.964v-24.024c0-1.213-.06-2.193-.182-2.938-.12-.745-.355-1.335-.702-1.768-.347-.433-.84-.728-1.482-.884-.64-.156-1.482-.27-2.522-.338v-2.08h17.94v2.08c-1.18.035-2.123.14-2.834.312-.71.173-1.257.485-1.638.936-.38.45-.633 1.075-.754 1.872-.12.797-.182 1.855-.182 3.172v21.788c0 1.456.147 2.643.442 3.562.295.92.806 1.63 1.534 2.132.728.503 1.7.85 2.912 1.04 1.213.19 2.72.286 4.524.286 2.01 0 3.692-.12 5.044-.364 1.352-.243 2.487-.702 3.406-1.378.92-.676 1.655-1.586 2.21-2.73.555-1.144 1.023-2.635 1.404-4.472h2.08l-.832 11.804zm16.536-22.152c2.22 0 4.004-.07 5.356-.208 1.352-.14 2.4-.425 3.146-.858.745-.433 1.274-1.066 1.586-1.898.312-.832.555-1.96.728-3.38h1.924V236.3h-1.924c-.208-1.387-.485-2.496-.832-3.328-.347-.832-.9-1.465-1.664-1.898-.763-.433-1.794-.71-3.094-.832-1.3-.12-3.042-.182-5.226-.182v10.712c0 1.11.147 2.045.442 2.808.295.763.79 1.378 1.482 1.846.693.468 1.612.797 2.756.988 1.144.19 2.548.286 4.212.286 1.976 0 3.65-.14 5.018-.416 1.37-.277 2.505-.763 3.406-1.456.9-.693 1.63-1.62 2.184-2.782.555-1.16 1.023-2.626 1.404-4.394h2.08l-.832 11.908h-35.256v-2.08c1.144-.035 2.08-.14 2.808-.312.728-.173 1.283-.468 1.664-.884.38-.416.64-1.005.78-1.768.14-.763.208-1.75.208-2.964v-24.024c0-1.213-.06-2.193-.182-2.938-.12-.745-.355-1.335-.702-1.768-.347-.433-.84-.728-1.482-.884-.64-.156-1.482-.27-2.522-.338v-2.08h32.864l.364 10.192h-2.236c-.208-1.456-.537-2.66-.988-3.614-.45-.953-1.075-1.716-1.872-2.288-.797-.572-1.83-.97-3.094-1.196-1.265-.225-2.817-.338-4.654-.338h-5.876c-.9 0-1.456.113-1.664.338-.208.225-.312.754-.312 1.586v13.208zM136.04 188.68h-11.32c-1.253 2.827-1.88 4.787-1.88 5.88 0 .8.3 1.307.9 1.52.6.213 1.5.32 2.7.32v1.6h-10.96v-1.6c.64-.08 1.193-.187 1.66-.32.467-.133.88-.32 1.24-.56.36-.24.673-.553.94-.94.267-.387.52-.86.76-1.42l10.52-26.36h2.96l9.56 23.36c.56 1.36 1.033 2.427 1.42 3.2.387.773.8 1.367 1.24 1.78.44.413.947.7 1.52.86.573.16 1.313.28 2.22.36V198H134.4v-1.64c1.28-.053 2.2-.187 2.76-.4.56-.213.84-.64.84-1.28 0-.373-.093-.853-.28-1.44-.187-.587-.44-1.307-.76-2.16l-.92-2.4zm-10.4-2.4h9.52l-4.6-12.12h-.16l-4.76 12.12zm48.56 4.24l9.24-23.32h11.68v1.6c-.88 0-1.593.087-2.14.26-.547.173-.967.487-1.26.94-.293.453-.487 1.073-.58 1.86-.093.787-.14 1.78-.14 2.98v15.52c0 1.333.053 2.387.16 3.16.107.773.32 1.373.64 1.8.32.427.78.707 1.38.84.6.133 1.393.213 2.38.24v1.6h-15.04v-1.6c.987-.027 1.78-.113 2.38-.26.6-.147 1.067-.42 1.4-.82.333-.4.553-.967.66-1.7.107-.733.16-1.727.16-2.98v-18.72h-.2l-10.76 26.48h-2.96l-11.12-26.48h-.16v18.44c0 1.333.053 2.387.16 3.16.107.773.32 1.373.64 1.8.32.427.78.707 1.38.84.6.133 1.393.213 2.38.24v1.6h-12.32v-1.6c.987-.027 1.787-.113 2.4-.26.613-.147 1.087-.42 1.42-.82.333-.4.553-.967.66-1.7.107-.733.16-1.727.16-2.98v-16.08c0-1.12-.053-2.053-.16-2.8-.107-.747-.307-1.34-.6-1.78-.293-.44-.713-.747-1.26-.92-.547-.173-1.273-.26-2.18-.26v-1.6h12.12l9.32 23.32h.16zm35.04-9.56c1.707 0 3.08-.053 4.12-.16 1.04-.107 1.847-.327 2.42-.66s.98-.82 1.22-1.46.427-1.507.56-2.6h1.48v11.72h-1.48c-.16-1.067-.373-1.92-.64-2.56-.267-.64-.693-1.127-1.28-1.46-.587-.333-1.38-.547-2.38-.64-1-.093-2.34-.14-4.02-.14v8.24c0 .853.113 1.573.34 2.16.227.587.607 1.06 1.14 1.42.533.36 1.24.613 2.12.76.88.147 1.96.22 3.24.22 1.52 0 2.807-.107 3.86-.32 1.053-.213 1.927-.587 2.62-1.12.693-.533 1.253-1.247 1.68-2.14.427-.893.787-2.02 1.08-3.38h1.6l-.64 9.16h-27.12v-1.6c.88-.027 1.6-.107 2.16-.24s.987-.36 1.28-.68c.293-.32.493-.773.6-1.36.107-.587.16-1.347.16-2.28v-18.48c0-.933-.047-1.687-.14-2.26-.093-.573-.273-1.027-.54-1.36-.267-.333-.647-.56-1.14-.68-.493-.12-1.14-.207-1.94-.26v-1.6h25.28l.28 7.84h-1.72c-.16-1.12-.413-2.047-.76-2.78-.347-.733-.827-1.32-1.44-1.76-.613-.44-1.407-.747-2.38-.92-.973-.173-2.167-.26-3.58-.26h-4.52c-.693 0-1.12.087-1.28.26-.16.173-.24.58-.24 1.22v10.16zm45.88-6.04c0 2.213-.64 4.067-1.92 5.56-1.28 1.493-3.32 2.493-6.12 3l9.28 10.64c.64.747 1.4 1.313 2.28 1.7.88.387 1.773.58 2.68.58v1.6h-9.48l-9.92-12.16c-.667-.8-1.247-1.34-1.74-1.62-.493-.28-.953-.42-1.38-.42v7.84c0 .987.067 1.793.2 2.42s.4 1.113.8 1.46.98.58 1.74.7 1.78.18 3.06.18v1.6h-15.88v-1.6c.88 0 1.593-.06 2.14-.18.547-.12.973-.347 1.28-.68.307-.333.513-.8.62-1.4.107-.6.16-1.367.16-2.3v-18.48c0-.933-.04-1.687-.12-2.26-.08-.573-.253-1.027-.52-1.36-.267-.333-.647-.56-1.14-.68-.493-.12-1.153-.207-1.98-.26v-1.6H243c3.867 0 6.853.68 8.96 2.04 2.107 1.36 3.16 3.253 3.16 5.68zm-16.32 6.48h2.6c2.507 0 4.38-.487 5.62-1.46 1.24-.973 1.86-2.58 1.86-4.82 0-1.707-.52-3.08-1.56-4.12s-2.48-1.56-4.32-1.56h-3.48c-.48 0-.72.227-.72.68v11.28zm39.84 16.6h-14.28v-1.6c.907-.027 1.633-.113 2.18-.26.547-.147.967-.42 1.26-.82.293-.4.493-.967.6-1.7.107-.733.16-1.727.16-2.98v-16.08c0-1.12-.047-2.047-.14-2.78-.093-.733-.273-1.313-.54-1.74-.267-.427-.647-.727-1.14-.9-.493-.173-1.153-.287-1.98-.34v-1.6h13.48v1.6c-.827.053-1.487.167-1.98.34-.493.173-.873.473-1.14.9-.267.427-.447 1.007-.54 1.74-.093.733-.14 1.66-.14 2.78v16.08c0 1.253.047 2.247.14 2.98.093.733.293 1.3.6 1.7.307.4.733.673 1.28.82.547.147 1.273.233 2.18.26v1.6zm29.32-30.8h1.96l-.8 10.12h-1.6c-.56-2.453-1.647-4.387-3.26-5.8-1.613-1.413-3.567-2.12-5.86-2.12-1.573 0-2.973.313-4.2.94-1.227.627-2.26 1.52-3.1 2.68-.84 1.16-1.48 2.573-1.92 4.24-.44 1.667-.66 3.54-.66 5.62 0 4.133.847 7.313 2.54 9.54 1.693 2.227 4.193 3.34 7.5 3.34 2.667 0 4.873-.72 6.62-2.16 1.747-1.44 2.993-3.587 3.74-6.44h1.76V198h-1.88l-.56-3.16c-2.933 2.373-6.493 3.56-10.68 3.56-2.427 0-4.627-.36-6.6-1.08-1.973-.72-3.653-1.74-5.04-3.06s-2.46-2.927-3.22-4.82c-.76-1.893-1.14-4-1.14-6.32 0-2.427.4-4.64 1.2-6.64.8-2 1.927-3.72 3.38-5.16 1.453-1.44 3.187-2.553 5.2-3.34 2.013-.787 4.247-1.18 6.7-1.18 1.627 0 3.147.227 4.56.68 1.413.453 2.947 1.187 4.6 2.2l.76-2.48zm26.68 21.48h-11.32c-1.253 2.827-1.88 4.787-1.88 5.88 0 .8.3 1.307.9 1.52.6.213 1.5.32 2.7.32v1.6h-10.96v-1.6c.64-.08 1.193-.187 1.66-.32.467-.133.88-.32 1.24-.56.36-.24.673-.553.94-.94.267-.387.52-.86.76-1.42l10.52-26.36h2.96l9.56 23.36c.56 1.36 1.033 2.427 1.42 3.2.387.773.8 1.367 1.24 1.78.44.413.947.7 1.52.86.573.16 1.313.28 2.22.36V198H333v-1.64c1.28-.053 2.2-.187 2.76-.4.56-.213.84-.64.84-1.28 0-.373-.093-.853-.28-1.44-.187-.587-.44-1.307-.76-2.16l-.92-2.4zm-11.4-2.4h9.52l-4.6-12.12H328l-4.76 12.12zm54.52 12.12l-17.72-25.24h-.16v17.2c0 1.333.047 2.387.14 3.16.093.773.293 1.373.6 1.8.307.427.733.707 1.28.84s1.26.213 2.14.24v1.6h-11.88v-1.6c.987-.027 1.78-.113 2.38-.26.6-.147 1.067-.42 1.4-.82.333-.4.553-.967.66-1.7.107-.733.16-1.727.16-2.98v-16.08c0-1.12-.053-2.047-.16-2.78-.107-.733-.307-1.313-.6-1.74-.293-.427-.713-.727-1.26-.9-.547-.173-1.273-.287-2.18-.34v-1.6h11.16l16.12 23.12h.16v-15.48c0-1.307-.047-2.353-.14-3.14-.093-.787-.293-1.393-.6-1.82-.307-.427-.733-.707-1.28-.84s-1.26-.213-2.14-.24v-1.6h11.88v1.6c-.987.027-1.78.113-2.38.26-.6.147-1.067.42-1.4.82-.333.4-.553.973-.66 1.72-.107.747-.16 1.733-.16 2.96v23.84h-5.36zM83.213 181.514c-.087.337-.168.625-.24.866-.074.242-.11.465-.11.67 0 .467.19.796.57.986.38.19 1.03.285 1.95.285l-.262.878h-7.63l.242-.877c.44 0 .82-.028 1.14-.087.322-.058.61-.175.866-.35.256-.176.475-.436.658-.78.183-.343.354-.8.515-1.37l2.676-9.997c.132-.526.197-.965.197-1.316 0-.424-.095-.727-.285-.91-.19-.182-.497-.274-.92-.274-1.287 0-2.4.33-3.344.987-.943.658-1.728 1.58-2.357 2.763H76l2.083-4.67H92.73l-.44 4.67h-.833c0-1.404-.26-2.38-.778-2.927-.52-.55-1.29-.824-2.314-.824-.366 0-.676.037-.932.11-.256.073-.482.205-.68.395-.197.19-.372.454-.526.79-.153.336-.296.767-.427 1.294l-2.587 9.69zm15.765-3.135c.248-.746.427-1.338.537-1.777.11-.438.164-.826.164-1.162 0-.335-.056-.573-.165-.71-.11-.14-.296-.21-.56-.21-.453 0-.898.176-1.337.527-.438.35-.88.898-1.326 1.644-.446.746-.91 1.696-1.393 2.85-.483 1.156-.994 2.537-1.535 4.145l-.505 1.513h-1.84l4.34-14.865c.102-.366.183-.687.24-.965.06-.278.09-.497.09-.658 0-.292-.14-.497-.418-.614-.278-.117-.79-.19-1.535-.22l.154-.876h4.474l-2.5 8.463.066.044c.468-.687 1.008-1.217 1.622-1.59.614-.372 1.257-.56 1.93-.56.7 0 1.235.206 1.6.615.366.41.548 1 .548 1.776 0 .482-.073 1.045-.22 1.688-.145.643-.372 1.382-.678 2.215-.293.79-.52 1.41-.68 1.864-.16.454-.278.8-.35 1.042-.074.24-.122.405-.143.493-.023.087-.034.16-.034.218 0 .337.138.505.416.505.293 0 .654-.172 1.086-.516.43-.343.866-.822 1.304-1.436l.614.462c-.234.424-.523.826-.866 1.206-.344.38-.716.712-1.118.997-.402.285-.81.512-1.228.68-.417.168-.808.252-1.173.252-.394 0-.68-.11-.854-.33-.176-.218-.263-.57-.263-1.05 0-.25.022-.513.066-.79.042-.278.12-.625.23-1.042.108-.417.262-.928.46-1.535.196-.606.456-1.37.778-2.29zm12.913 3.902c-1.27 2.09-2.834 3.135-4.69 3.135-1.01 0-1.784-.31-2.325-.932-.54-.62-.81-1.502-.81-2.642 0-1.008.207-2.017.624-3.025.416-1.01.96-1.92 1.632-2.73.673-.81 1.426-1.47 2.26-1.973.832-.505 1.665-.757 2.498-.757.702 0 1.275.18 1.72.537.447.36.67.815.67 1.37 0 .512-.19 1.04-.57 1.58-.38.54-.895 1.052-1.546 1.534-.65.48-1.41.92-2.28 1.315-.87.394-1.794.7-2.774.92-.03.205-.05.406-.065.603-.015.198-.022.4-.022.603 0 1.595.563 2.39 1.688 2.39.542 0 1.1-.21 1.678-.635.578-.424 1.115-1.008 1.612-1.754l.7.462zm-1.248-7.893c-.38 0-.775.145-1.184.437-.41.293-.8.684-1.173 1.173-.373.49-.713 1.05-1.02 1.678-.307.628-.555 1.278-.745 1.95.7-.19 1.352-.438 1.95-.745.6-.307 1.116-.654 1.547-1.04.43-.388.77-.798 1.02-1.23.248-.43.372-.865.372-1.303 0-.614-.257-.92-.768-.92z"/>
  </g>
</symbol>
<symbol>
	<title></title>

</symbol>
</defs>
</svg>
