<svg id="monarch-butterfly-path" xmlns="http://www.w3.org/2000/svg" width="171.467" height="146.64" viewBox="0 0 171.467 146.64">
  <path id="monarch-butterfly-path-2" data-name="monarch-butterfly-path" d="M170.41,3.66h.154v.154c.344.084.275.224.386.545h.079c.084.27-.065.517-.079.7.028.415.051.83.079,1.244h-.079v.545h-.079v.62h-.079V8.554h-.079v.233h-.079V9.02h-.079v.545h-.079V9.8H170.4c-.028.233-.051.466-.079.7h-.079v.233h-.079v.154h-.079V11.2H170v.233h-.079v.233h-.079v.312h-.079v.233h-.079v.233h-.079c-.051.261-.1.517-.154.778h-.079v.466h-.079v.154h-.079v.233h-.079v.387h-.079v.312h-.079V15H168.9c-.028.182-.051.364-.079.545h-.079c-.028.1-.051.205-.079.312h-.079v.312H168.5v.154h-.079c-.028.182-.051.364-.079.545h-.079c-.028.1-.051.205-.079.312h-.079v.233h-.079c-.051.154-.1.312-.154.466h-.079c-.028.1-.051.205-.079.312-.051.028-.1.051-.154.079v.154l-.154.154v.154h-.079v.154c-.051.028-.1.051-.154.079v.312H167.1v.233h-.079v.154h-.079v.387h-.079v.154h-.079v.233H166.7V20.6h-.079c-.028.154-.051.312-.079.466h-.079c-.028.182-.051.364-.079.545h-.079v.233h-.079c-.028.261-.051.517-.079.778h-.079v.312h-.079V23.4h-.079c-.028.1-.051.205-.079.312h-.079v.233h-.079c-.051.154-.1.312-.154.466h-.079v.154h-.079v.154h-.079v.154H165.2v.154h-.079v.154h-.079v.154h-.079v.154h-.079c-.028.13-.051.261-.079.387h-.079c-.028.1-.051.205-.079.312h-.079v.233h-.079v.233h-.079v.233h-.079v.233h-.079v.154h-.079V27.5H164.1c-.028.1-.051.205-.079.312h-.079v.312c-.051.028-.1.051-.154.079-.051.154-.1.312-.154.466h-.079c-.028.1-.051.205-.079.312h-.079v.387h-.079v.233h-.079v.154h-.079v.233h-.079V30.3c-.051.028-.1.051-.154.079-.028.13-.051.261-.079.387h-.079c-.028.1-.051.205-.079.312h-.079c-.1.517-.2,1.035-.312,1.552h-.079v.154h-.079c-.028.13-.051.261-.079.387-.051.028-.1.051-.154.079v.233h-.079v.154h-.079v.233h-.079v.154h-.079c-.051.154-.1.312-.154.466h-.079c-.051.261-.1.517-.154.778h-.079v.154h-.079v.233h-.079v.233h-.079v.233H160.8v.233h-.079c-.028.182-.051.364-.079.545h-.079v.154h-.079v.62h-.079v.387h-.079V38.3h-.079v.387h-.079v.154h-.079v.233h-.079c-.028.205-.051.415-.079.62h-.079v.154h-.079v.466H159.7v.154h-.079V40.7h-.079v.387h-.079V41.4h-.079v.154H159.3v.387h-.079c-.028.1-.051.205-.079.312h-.079v.312h-.079v.233h-.079c-.028.261-.051.517-.079.778h-.079v.233h-.079l-.154.853h-.079v.154h-.079V45.2h-.079v.154H158.2v.233h-.079c-.028.13-.051.261-.079.387-.051.028-.1.051-.154.079v.154h-.079c-.028.13-.051.261-.079.387-.051.028-.1.051-.154.079v.154H157.5v.233h-.079c-.028.1-.051.205-.079.312h-.079V47.6h-.079c-.028.182-.051.364-.079.545h-.079c-.028.13-.051.261-.079.387-.051.028-.1.051-.154.079v.154h-.079v.154h-.079v.233c-.051.028-.1.051-.154.079v.154H156.4v.154h-.079c-.028.13-.051.261-.079.387-.051.028-.1.051-.154.079-.028.1-.051.205-.079.312h-.079c-.051.154-.1.312-.154.466h-.079V51.1c-.051.028-.1.051-.154.079v.154h-.079v.154l-.154.154v.154c-.079.051-.154.1-.233.154-.028.13-.051.261-.079.387-.079.051-.154.1-.233.154v.154c-.051.028-.1.051-.154.079v.154h-.079c-.028.079-.051.154-.079.233H154.3c-.233.312-.465.62-.7.932h-.154a.657.657,0,0,1-.154.312h-.079c-.028.079-.051.154-.079.233-.051.028-.1.051-.154.079-.028.1-.051.205-.079.312-.051.028-.1.051-.154.079v.154h-.079c-.079.1-.154.205-.233.312h-.154c-.079.1-.154.205-.233.312H151.9c-.051.079-.1.154-.154.233h-.154c-.2.233-.414.466-.619.7h-.154c-.051.079-.1.154-.154.233h-.154c-.079.1-.154.205-.233.312-.079.028-.154.051-.233.079-.028.051-.051.1-.079.154h-.154c-.028.051-.051.1-.079.154l-.465.154c-.028.051-.051.1-.079.154h-.154c-.028.051-.051.1-.079.154-.079.028-.154.051-.233.079-.051.079-.1.154-.154.233h-.154c-.028.051-.051.1-.079.154-.079.028-.154.051-.233.079v.079l-.465.154c-.028.051-.051.1-.079.154h-.233v.079h-.154v.079c-.154.028-.312.051-.465.079v.079h-.154v.079H146.4c-.028.051-.051.1-.079.154-.1.028-.2.051-.312.079-.028.051-.051.1-.079.154h-.154v.079l-.465.154v.079h-.233v.079h-.233v.079h-.233v.079h-.233v.079h-.233v.079h-.233c-.2.1-.414.205-.619.312v.312c.191.121.047.089.154.233.154.13.312.261.465.387.028.051.051.1.079.154.079.028.154.051.233.079.079.1.154.205.233.312.13.028.261.051.386.079.079.1.154.205.233.312h.154c.028.051.051.1.079.154h.154c.079.1.154.205.233.312h.154c.028.051.051.1.079.154l.465.154c.028.051.051.1.079.154h.154v.079h.154c.028.079.051.154.079.233.079.051.154.1.233.154v.154h.079c.079.1.154.205.233.312h.154c.181.205.363.415.544.62h.154c.079.1.154.205.233.312h.154c.028.051.051.1.079.154h.154l.154.154v.154l.386.312v.154c.154.131.312.261.465.387v.154c.13.1.261.205.386.312v.154c.181.154.363.312.544.466v.154c.1.079.2.154.312.233.028.1.051.205.079.312.079.051.154.1.233.154v.154c.051.028.1.051.154.079V69.2c.051.028.1.051.154.079v.233h.079v.154h.079V69.9h.079v.154h.079V70.2c.051.028.1.051.154.079v.154h.079c.028.154.051.312.079.466h.079v.233h.079v.233h.079v.62h.079v.387h.079v1.011h-.079v1.086h-.079v.079h.079c.047.219-.079.387-.079.466h.079V75.4h.079v.387h.079v.079c-.019.047-.112,0-.079.154h.079v.466h.079c.079.364-.279.657-.154,1.086.2.6.414,1.193.619,1.785-.028.312-.051.62-.079.932a1.949,1.949,0,0,1,.777.7c.028.13.051.261.079.387.079.051.154.1.233.154.028.1.051.205.079.312.051.028.1.051.154.079v.233h.079c-.079.7-.154,1.4-.233,2.1H154.4v.233h-.079v.154c-.051.028-.1.051-.154.079v.154h-.079v.154h-.079v.233h-.079c-.182.452-.172.988-.386,1.4h-.079v.154l-.154.154v.154c-.079.051-.154.1-.233.154-.028.13-.051.261-.079.387-.051.028-.1.051-.154.079V87.9h-.079c-.028.261-.051.517-.079.778h-.079c-.028.1-.051.205-.079.312h-.079v.154h-.079v.154h-.079v.154h-.079V89.6h-.079v.154h-.079v.154h-.079c-.028.233-.051.466-.079.7-.079.051-.154.1-.233.154v.079h.079v.079h-.079v.312c-.051.028-.1.051-.154.079v.079h.079l-.079.7h-.079v.387h-.079v.387h-.079v.466H151.2v.233h-.079c-.028.205-.051.415-.079.62h-.079c-.051.154-.1.312-.154.466h-.079V94.8h-.079c-.028.1-.051.205-.079.312-.051.028-.1.051-.154.079v.154c-.051.028-.1.051-.154.079v.154c-.181.154-.363.312-.544.466V96.2h-.079c-.051.079-.1.154-.154.233h-.154c-.028.051-.051.1-.079.154H149.1c-.051.079-.1.154-.154.233h-.233V96.9h-.154c-.079.1-.154.205-.233.312-.1.028-.2.051-.312.079-.079.1-.154.205-.233.312-.284.261-.568.517-.852.778v.154c-.051.028-.1.051-.154.079v.154c-.1.079-.2.154-.312.233-.028.1-.051.205-.079.312l-.386.312v.154h-.079c-.051.154-.1.312-.154.466h-.079v.312h-.079v.154h-.079c-.028.154-.051.312-.079.466h-.079c-.028.1-.051.205-.079.312h-.079v.233h-.079a2.484,2.484,0,0,0,.233,1.477c.028.233.051.466.079.7h.079v.312h.079v.233h.079v.233h.079v.233h.079c.028.154.051.312.079.466H146v.154h.079c.079.233.154.466.233.7.079.051.154.1.233.154.028.1.051.205.079.312.051.028.1.051.154.079v.154h.079v.154l.154.154v.154c.051.028.1.051.154.079v.154h.079v.154h.079c.028.079.051.154.079.233.051.028.1.051.154.079.028.13.051.261.079.387.079.051.154.1.233.154.028.1.051.205.079.312.051.028.1.051.154.079v.154c.051.028.1.051.154.079v.154h.079v.154h.079a.873.873,0,0,1,.233.387c.316.093.14.126.312.312.154.13.312.261.465.387.028.1.051.205.079.312.079.051.154.1.233.154v.154c.051.028.1.051.154.079v.154h.079c.079.1.154.205.233.312h.154c.261.284.517.569.777.853.154.13.312.261.465.387v.154c.1.079.2.154.312.233.2.233.414.466.619.7.079.028.154.051.233.079v.154c.1.079.2.154.312.233v.154c.13.1.261.205.386.312.312.336.619.671.931,1.011.233.205.465.415.7.62.079.1.154.205.233.312h.154c.1.131.2.261.312.387.079.028.154.051.233.079v.154c.591.154.856,1.072,1.163,1.552.051.028.1.051.154.079v.154c.051.028.1.051.154.079v.154c.051.028.1.051.154.079v.154l.154.154v.154h.079v.154c.051.028.1.051.154.079v.154c.079.051.154.1.233.154a3.242,3.242,0,0,1,.465,2.1h-.079v.233h-.079c-.028.1-.051.205-.079.312H158.4c-.028.1-.051.205-.079.312-.13.079-.261.154-.386.233-.1.131-.2.261-.312.387-.168.107-.414.079-.619.154v.079h-.233v.079l-1.01-.154v-.079l-.7-.154v-.079L154.6,124v-.079c-.1-.028-.2-.051-.312-.079-.028-.051-.051-.1-.079-.154-.1-.028-.2-.051-.312-.079-.1-.13-.2-.261-.312-.387h-.154c-.028-.051-.051-.1-.079-.154-.1-.079-.2-.154-.312-.233v-.154c-.154-.13-.312-.261-.465-.387v-.154h-.154v-.154c-.079-.051-.154-.1-.233-.154v-.154c-.13-.1-.261-.205-.386-.312v-.154c-.051-.028-.1-.051-.154-.079v-.154c-.051-.028-.1-.051-.154-.079v-.154l-.154-.154v-.154h-.079v-.154h-.079c-.028-.1-.051-.205-.079-.312h-.079c-.028-.079-.051-.154-.079-.233-.051-.028-.1-.051-.154-.079v-.154c-.051-.028-.1-.051-.154-.079v-.154c-.079-.051-.154-.1-.233-.154-.079-.233-.154-.466-.233-.7-.051-.028-.1-.051-.154-.079v-.233h-.079c-.028-.154-.051-.312-.079-.466h-.079v-.154h-.079c-.028-.13-.051-.261-.079-.387-.051-.028-.1-.051-.154-.079v-.154c-.079-.051-.154-.1-.233-.154v-.154c-.051-.028-.1-.051-.154-.079v-.154c-.079-.051-.154-.1-.233-.154v-.154c-.051-.028-.1-.051-.154-.079v-.154c-.1-.079-.2-.154-.312-.233V115.4c-.1-.079-.2-.154-.312-.233v-.154c-.079-.051-.154-.1-.233-.154v-.154c-.051-.028-.1-.051-.154-.079v-.154c-.154-.13-.312-.261-.465-.387-.028-.079-.051-.154-.079-.233-.051-.028-.1-.051-.154-.079v-.154c-.051-.028-.1-.051-.154-.079v-.079h-.154v-.079h-.154c-.051-.079-.1-.154-.154-.233h-.154c-.028-.051-.051-.1-.079-.154-.1-.079-.2-.154-.312-.233-.051-.079-.1-.154-.154-.233H145.6v-.154l-.619-.466v-.154c-.051-.028-.1-.051-.154-.079-.079-.1-.154-.205-.233-.312h-.154c-.028-.051-.051-.1-.079-.154h-.154c-.1-.13-.2-.261-.312-.387-.1-.028-.2-.051-.312-.079-.028-.051-.051-.1-.079-.154h-.154v-.079l-.465-.154v-.079c-.182-.028-.363-.051-.544-.079v-.079c-.437.028-.88.051-1.317.079v.079h-.386v.079h-.312v.079c-.284.079-.568.154-.852.233-.028.051-.051.1-.079.154-.079.028-.154.051-.233.079v.154c-.051.028-.1.051-.154.079v.154h-.079c-.051.336-.1.671-.154,1.011a1.563,1.563,0,0,1,.079.7h-.079v.7H138.7v.312h-.079v.312c-.051.028-.1.051-.154.079v.233c-.051.028-.1.051-.154.079-.051.079-.1.154-.154.233h-.154c-.028.051-.051.1-.079.154h-.312v.079h-.154v.079a2.215,2.215,0,0,1-1.01-.079c-.107-.186-.293-.256-.386-.387v-.154c-.051-.028-.1-.051-.154-.079-.028-.1-.051-.205-.079-.312h-.079a1.143,1.143,0,0,1-.312-.466l-.465-.154c-.028-.051-.051-.1-.079-.154l-.465-.154c-.028-.051-.051-.1-.079-.154H134.2v-.079h-.312v-.079h-.154v-.079h-.465s-.023-.1-.154-.079v.079c-.284.028-.568.051-.852.079v.079h-.312v.079h-.233v.079h-.233v.079h-.233v.079c-.182.028-.363.051-.544.079v.079c-.233.028-.465.051-.7.079v.079h-.619v.079c-.465.028-.931.051-1.4.079V113.8h-.233v-.079H127.3v-.079h-.154v-.079h-.233v-.079h-.154c-.028-.051-.051-.1-.079-.154h-.154v-.079h-.154l-.154-.154h-.154c-.028-.051-.051-.1-.079-.154-.13-.028-.261-.051-.386-.079v-.079h-.154c-.028-.051-.051-.1-.079-.154-.13-.028-.261-.051-.386-.079-.028-.051-.051-.1-.079-.154-.1-.028-.2-.051-.312-.079-.028-.051-.051-.1-.079-.154-.1-.028-.2-.051-.312-.079-.028-.051-.051-.1-.079-.154h-.154c-.028-.051-.051-.1-.079-.154-.154-.13-.312-.261-.465-.387v-.154c-.1-.079-.2-.154-.312-.233v-.154c-.051-.028-.1-.051-.154-.079v-.154c-.051-.028-.1-.051-.154-.079-.051-.154-.1-.312-.154-.466-.181-.154-.363-.312-.544-.466v-.154c-.079-.051-.154-.1-.233-.154v-.154h-.079c-.028-.079-.051-.154-.079-.233-.051-.028-.1-.051-.154-.079v-.154c-.1-.079-.2-.154-.312-.233v-.154c-.051-.028-.1-.051-.154-.079v-.233h-.079v-.233h-.079v-.233h-.079v-.233h-.079v-.233H120.7V106.9h-.079c-.079-.233-.154-.466-.233-.7-.051-.028-.1-.051-.154-.079v-.154c-.051-.028-.1-.051-.154-.079v-.154c-.051-.028-.1-.051-.154-.079V105.5c-.1-.079-.2-.154-.312-.233v-.154c-.051-.028-.1-.051-.154-.079v-.154c-.051-.028-.1-.051-.154-.079v-.154c-.051-.028-.1-.051-.154-.079-.13-.154-.261-.312-.386-.466l-.465-.154c-.028-.051-.051-.1-.079-.154h-.154v-.079h-.312v-.079c-.1-.028-.2-.051-.312-.079v-.079h-.312V103.4h-.312v-.079h-.312v-.079h-.386v-.079h-.154v-.079h-.233V103h-.154v-.079h-.233c-.051-.079-.1-.154-.154-.233h-.154c-.1-.131-.2-.261-.312-.387h-.154c-.154-.182-.312-.364-.465-.545-.051-.028-.1-.051-.154-.079-.2-.648-.414-1.3-.619-1.943h-.079c-.028-.1-.051-.205-.079-.312h-.079c-.028-.1-.051-.205-.079-.312-.051-.028-.1-.051-.154-.079v-.154c-.051-.028-.1-.051-.154-.079q-.775-2.4-1.55-4.814v-.853h-.079v-.466h-.079v-.7h-.079v-.853h-.079V90.8h-.079v-.387H110.7v-.62h.079a3.77,3.77,0,0,0-.154-.62c-.028-.466-.051-.932-.079-1.4h-.079v-.312h-.079v-.387H110.3v-.466h-.079c-.028-.336-.051-.671-.079-1.011h-.079c-.051-.261-.1-.517-.154-.778h-.079v-.233h-.079v-.233h-.079V84.12H109.6v-.233h-.079v-.233h-.079c-.028-.154-.051-.312-.079-.466h-.079c-.051-.387-.1-.778-.154-1.165h-.079V81.79h-.079v-.233h-.079v-.233h-.079v-.778h-.079v-.312h-.079v-.312h-.079v-.312h-.079V79.3h-.079l-.154-.7c-.135-.34-.33-.75-.465-1.086-.079-.336-.154-.671-.233-1.011h-.079v-.154h-.079c-.079-.336-.154-.671-.233-1.011h-.079c-.028-.154-.051-.312-.079-.466h-.079c-.028-.1-.051-.205-.079-.312h-.079v-.233c-.051-.028-.1-.051-.154-.079-.028-.1-.051-.205-.079-.312-.051-.028-.1-.051-.154-.079V73.7c-.051-.028-.1-.051-.154-.079v-.154c-.051-.028-.1-.051-.154-.079l-.154-.7h-.079c-.028-.1-.051-.205-.079-.312h-.079c-.028-.1-.051-.205-.079-.312-.051-.028-.1-.051-.154-.079-.028-.1-.051-.205-.079-.312-.051-.028-.1-.051-.154-.079v-.154l-.154-.154v-.154h-.079v-.154c-.051-.028-.1-.051-.154-.079v-.233c-.051-.028-.1-.051-.154-.079-.028-.079-.051-.154-.079-.233h-.079c-.028-.13-.051-.261-.079-.387-.051-.028-.1-.051-.154-.079v-.233h-.079V69.5h-.079c-.028-.13-.051-.261-.079-.387-.079-.051-.154-.1-.233-.154v-.154c-.079-.051-.154-.1-.233-.154V68.5c-.051-.028-.1-.051-.154-.079v-.154c-.051-.028-.1-.051-.154-.079v-.154h-.079v-.154h-.079v-.154l-.154-.154v-.154c-.079-.051-.154-.1-.233-.154V67.03h-.079c-.028-.079-.051-.154-.079-.233-.051-.028-.1-.051-.154-.079-.028-.1-.051-.205-.079-.312-.051-.028-.1-.051-.154-.079v-.154h-.079v-.154h-.079v-.154l-.154-.154v-.154c-.051-.028-.1-.051-.154-.079-.1-.284-.2-.569-.312-.853h-.079v-.154h-.079v-.154h-.079v-.154H101.1V64.01h-.079v-.154h-.079c-.028-.1-.051-.205-.079-.312h-.079a.636.636,0,0,1-.154-.312c-.079-.028-.154-.051-.233-.079V63l-.154-.154v-.154h-.079v-.154c-.051-.028-.1-.051-.154-.079V62.3h-.079a.6.6,0,0,1-.154-.312H99.7v.62c.158.2-.019.564.079.853h.079l.154.853h.079v.312h.079v.312h.079v.233h.079c.028.182.051.364.079.545h.079c.028.205.051.415.079.62h.079v.7h.079v.387h.079v.466h.079v.387h.079v.312h.079v.7h.079V69.6h.079v.233h.079v.233h.079v.62h.079l.154.7h.079c.028.1.051.205.079.312h.079v.154h.079v.233h.079c.028.1.051.205.079.312h.079v.233h.079v.233h.079V73.1h.079v.233h.079v.312h.079c.028.154.051.312.079.466h.079v.154h.079c.028.154.051.312.079.466h.079c.028.154.051.312.079.466h.079c.028.1.051.205.079.312h.079v.154c.051.028.1.051.154.079.028.1.051.205.079.312h.079v.154h.079c.051.154.1.312.154.466h.079v.233h.079v.233h.079v.233h.079V77.6h.079v.233c.419,1.058.772,2.251,1.163,3.342v.312h.079v.233h.079v.233h.079c.051.261.1.517.154.778h.079v1.011h.079v.62h-.079v1.011h-.079v.312h-.079c-.028.205-.051.415-.079.62h-.079v.154h-.079V86.7c-.2.261-.414.517-.619.778-.13.089-.177,0-.312.154a1.784,1.784,0,0,1-.931-.154c-.028-.051-.051-.1-.079-.154h-.233c-.1-.131-.2-.261-.312-.387-.1-.028-.2-.051-.312-.079-.079-.13-.154-.261-.233-.387-.154-.13-.312-.261-.465-.387v-.154c-.079-.051-.154-.1-.233-.154v-.154c-.079-.051-.154-.1-.233-.154-.051-.154-.1-.312-.154-.466-.051-.028-.1-.051-.154-.079-.028-.1-.051-.205-.079-.312h-.079c-.028-.1-.051-.205-.079-.312h-.079v-.233c-.079-.051-.154-.1-.233-.154-.051-.154-.1-.312-.154-.466-.051-.028-.1-.051-.154-.079v-.233h-.079v-.154h-.079v-.233h-.079v-.233h-.079v-.233h-.079c-.028-.154-.051-.312-.079-.466h-.079v-.154h-.079c-.028-.154-.051-.312-.079-.466h-.079V80.96h-.079v-.233h-.079v-.233H99.28v-.233H99.2v-.233h-.079V79.8c-.051-.028-.1-.051-.154-.079-.028-.079-.051-.154-.079-.233H98.81c-.028-.1-.051-.205-.079-.312-.051-.028-.1-.051-.154-.079v-.154H98.5c-.051-.154-.1-.312-.154-.466h-.079v-.233h-.079v-.312h-.079v-.233h-.079v-.312h-.079v-.233H97.87v-.233h-.079v-.233h-.079v-.233h-.079v-.312h-.079v-.154h-.079c-.028-.154-.051-.312-.079-.466h-.079V75.2h-.079v-.233h-.079v-.233h-.079v-.233H97v-.233h-.079c-.028-.154-.051-.312-.079-.466h-.079v-.154h-.079V73.42H96.6c-.028-.205-.051-.415-.079-.62h-.079c-.028-.131-.051-.261-.079-.387h-.079v-.154h-.079c-.028-.154-.051-.312-.079-.466h-.079l-.154-.7h-.079c-.051-.154-.1-.312-.154-.466h-.079v-.154h-.079V70.32h-.079c-.028-.1-.051-.205-.079-.312-.051-.028-.1-.051-.154-.079-.051-.154-.1-.312-.154-.466h-.079c-.028-.079-.051-.154-.079-.233-.051-.028-.1-.051-.154-.079-.051-.154-.1-.312-.154-.466-.051-.028-.1-.051-.154-.079-.051-.154-.1-.312-.154-.466-.051-.028-.1-.051-.154-.079v-.154c-.181-.154-.363-.312-.544-.466-.028-.1-.051-.205-.079-.312h-.079c-.028-.079-.051-.154-.079-.233-.051-.028-.1-.051-.154-.079v-.154c-.051-.028-.1-.051-.154-.079v-.154c-.079-.051-.154-.1-.233-.154v-.154c-.079-.051-.154-.1-.233-.154v-.154h-.079c-.028-.051-.051-.1-.079-.154h-.312a.76.76,0,0,1-.154.154c-.028.13-.051.261-.079.387h-.079a3.876,3.876,0,0,0,.312,1.477v.932h.079v.545h.079v.778h.079v.545h.079c.028.205.051.415.079.62h.079v.233h.079v.312h.079v.62c.051.364.1.727.154,1.086h.079l.154.7h.079v.233h.079v.233h.079v.233h.079v.233h.079v.233h.079v.233h.079c.028.154.051.312.079.466h.079c.079.336.154.671.233,1.011h.079v.154h.079v.233h.079c.028.284.051.569.079.853h.079V78.4h.079v.233h.079v.233h.079V79.1h.079v.233h.079c.028.205.051.415.079.62H95v.233h.079v.154h.079c.028.205.051.415.079.62h.079v.154H95.4c.028.182.051.364.079.545h.079v.233h.079v.233h.079v.233h.079v.154h.079l.154.7h.079v.154h.079c.028.182.051.364.079.545h.079v.233h.079v.233H96.5V84.6h.079v.233h.079v.154h.079v.233h.079v.154H96.9v.233h.079v.154h.079v.312h.079v.312h.079c.028.154.051.312.079.466h.079c.028.1.051.205.079.312h.079V87.4h.079v.154h.079v.233h.079v.233h.079v.233h.079v.233h.079v.233h.079v.233h.079v.233h.079v.233h.079v.233H98.4v.233h.079c.028.1.051.205.079.312h.079v.233h.079c.051.154.1.312.154.466h.079c.028.1.051.205.079.312.051.028.1.051.154.079v.154h.079V91.6h.079v.154l.154.154v.154c.051.028.1.051.154.079v.154l.154.154V92.6h.079v.154h.079c.051.154.1.312.154.466h.079v.233h.079v.233h.079v.154h.079v.154c.079.051.154.1.233.154V94.3c.051.028.1.051.154.079.028.079.051.154.079.233h.079v.154l.154.154v.154h.079v.154h.079c.028.1.051.205.079.312.051.028.1.051.154.079v.154l.154.154v.154h.079v.154c.051.028.1.051.154.079v.233h.079V96.7h.079c.028.13.051.261.079.387h.079c.079.233.154.466.233.7.051.028.1.051.154.079v.154c.079.051.154.1.233.154v.154c.13.1.261.205.386.312v.154c.079.051.154.1.233.154V99.1l.154.154v.154h.079v.154c.051.028.1.051.154.079v.154c.079.051.154.1.233.154v.154h.079v.154h.079v.233h.079v.233h.079v.233h.079v.233h.079v.233h.079v.233h.079v.233h.079v.545h.079v.387h.079v.545h.079a3.133,3.133,0,0,1-.154,1.552v.545h-.079v.154h-.079v.312h-.079c-.051.154-.1.312-.154.466H104.4v.233c-.079.051-.154.1-.233.154-.028.13-.051.261-.079.387-.051.028-.1.051-.154.079v.154h-.079v.154h-.079v.233H103.7c-.028.1-.051.205-.079.312h-.079c-.028.182-.051.364-.079.545h-.079v.154h-.079v.387h-.079v.154h-.079c-.028.205-.051.415-.079.62h-.079v.312h-.079v.387h-.079c-.051.219.251.778.312.932v.312h.079v.154h.079v.7c.4,1.24.852,2.517,1.242,3.808v.853h.079v.466h.079c.051.191-.088.3-.079.387h.079v.233h-.079c.028.051.051.1.079.154h-.079v.7h-.079v.233h-.079v.312h-.079v.154h-.079c-.023.107.019,0,.079.079v.079h-.079v.233c-.051.028-.1.051-.154.079-.028.131-.051.261-.079.387a.136.136,0,0,1,.079.154h-.079v.079c.051.065.112-.028.079.079h-.079v.154h-.079c-.028.154-.051.312-.079.466h-.079V122c-.079.051-.154.1-.233.154a1.478,1.478,0,0,0-.233.545h-.154c-.028.079-.051.154-.079.233h-.154l-.312.387c-.363.1-.726.205-1.084.312v.079H101.2v.079c-.079-.028-.154-.051-.233-.079v.079c-.233.028-.465.051-.7.079v.079h-.233v.079h-.233v.079h-.233v.079h-.233v.079h-.154v.079h-.154c-.028.051-.051.1-.079.154l-.465.154v.079h-.233v.079c-.154.028-.312.051-.465.079v.079h-.154v.079c-.13.028-.261.051-.386.079-.1.13-.2.261-.312.387-.051.028-.1.051-.154.079v.154c-.051.028-.1.051-.154.079v.154c-.051.028-.1.051-.154.079v.233H96.4c-.051.545-.1,1.086-.154,1.631h-.079c-.028.1-.051.205-.079.312-.051.028-.1.051-.154.079v.154h-.079c-.135.214.074.14-.233.233a1.553,1.553,0,0,1-1.629,1.011c-.051-.079-.1-.154-.154-.233h-.154c-.028-.051-.051-.1-.079-.154-.2-.182-.414-.364-.619-.545v-.154a.655.655,0,0,1-.312-.154v-.079h-.154v-.079c-.079-.051-.154-.1-.233-.154-.028-.051-.051-.1-.079-.154h-.154v-.079H91.9v-.079c-.13-.028-.261-.051-.386-.079v-.079h-.465v-.079h-.312v-.079a1.526,1.526,0,0,0-1.084.233c-.154.028-.312.051-.465.079v.079h-.154c-.051.079-.1.154-.154.233h-.154c-.261.284-.517.569-.777.853v.154c-.079.051-.154.1-.233.154-.028.1-.051.205-.079.312h-.079v.233h-.079v.154H87.4v.387c-.051.028-.1.051-.154.079-.042.1.061-.019.079.079v.079h-.079v.466h-.079v.154h-.079c-.019.089.121.135.079.312h-.079v.466h-.079v.466h-.079v.233h-.079c.028.438.051.881.079,1.319h-.079v.7h-.079v.233H86.7V136.3a3.161,3.161,0,0,1,.154.853c-.028.051-.051.1-.079.154h.079V138.4h.079v.387h.079a4.522,4.522,0,0,1-.079,1.477c0,.28.084.508.079.7H86.93a4.266,4.266,0,0,0,.233.545v.312h.079c-.028.079-.051.154-.079.233h.079v.233h.079c.028.387.051.778.079,1.165h-.079v.7c-.051.028-.1.051-.154.079-.047.1.06-.009.079.079v.079h-.079v.312h-.079c-.051.154-.1.312-.154.466h-.079c-.028.1-.051.205-.079.312-.051.028-.1.051-.154.079-.051.154-.1.312-.154.466-.051.028-.1.051-.154.079v.154c-.2.182-.414.364-.619.545a1.983,1.983,0,0,1-1.01-.154c-.028-.051-.051-.1-.079-.154-.1-.028-.2-.051-.312-.079-.13-.154-.261-.312-.386-.466-.1-.028-.2-.051-.312-.079-.1-.13-.2-.261-.312-.387-.051-.028-.1-.051-.154-.079v-.154c-.1-.079-.2-.154-.312-.233v-.233c-.051-.028-.1-.051-.154-.079l-.154-.7a3.454,3.454,0,0,1-.312-1.631h.079c-.051-.336-.1-.671-.154-1.011h-.079l.154-2.643h.079v-.778h.079v-.079a.12.12,0,0,1-.079-.154h.079V136.7h.079v-.545h.079v-.233H82.6v-.312h.079v-2.251a7.271,7.271,0,0,0-.079-1.631V130.4h-.079v-1.086h-.079v-.387H82.36v-.312h-.079v-.233H82.2v-.233h-.079c-.028-.182-.051-.364-.079-.545h-.079v-.233h-.079v-.154h-.079c-.028-.13-.051-.261-.079-.387-.181-.154-.363-.312-.544-.466-.028-.1-.051-.205-.079-.312-.079-.051-.154-.1-.233-.154-.028-.1-.051-.205-.079-.312-.079-.051-.154-.1-.233-.154-.028-.1-.051-.205-.079-.312-.079-.051-.154-.1-.233-.154v-.154c-.13-.1-.261-.205-.386-.312-.028-.051-.051-.1-.079-.154h-.154c-.051-.079-.1-.154-.154-.233-.1-.028-.2-.051-.312-.079l-.154-.154h-.154c-.028-.051-.051-.1-.079-.154h-.233v-.079h-.233v-.079h-.154v-.079c-.233-.028-.465-.051-.7-.079v-.079h-.312v-.079a2.45,2.45,0,0,0-1.629.312v.079h-.312v.079H73.891v-.079h-.154v-.079H73.5v-.079h-.312v-.079l-.465-.154v-.079h-.154c-.051-.079-.1-.154-.154-.233h-.154c-.414-.494-.828-.983-1.242-1.477l-.154-.545h-.079c-.028-.079-.051-.154-.079-.233-.051-.028-.1-.051-.154-.079-.051-.154-.1-.312-.154-.466-.261-.284-.517-.569-.777-.853-.1-.028-.2-.051-.312-.079-.1-.13-.2-.261-.312-.387l-.465-.154c-.154-.182-.312-.364-.465-.545H67.92v-.079c-.154-.028-.312-.051-.465-.079v-.079H67.3v-.079H66.99v-.079h-.154v-.079H66.6v-.079h-.465v-.079h-.233v-.079h-.233v-.079c-.181-.028-.363-.051-.544-.079v-.079h-.154v-.079h-.312v-.079h-.154v-.079h-.154c-.028-.051-.051-.1-.079-.154-.13-.028-.261-.051-.386-.079-.028-.051-.051-.1-.079-.154l-.465-.154c-.154-.182-.312-.364-.465-.545h-.154c-.079-.1-.154-.205-.233-.312-.233-.205-.465-.415-.7-.62v-.154c-.051-.028-.1-.051-.154-.079v-.154h-.079v-.154c-.051-.028-.1-.051-.154-.079-.051-.154-.1-.312-.154-.466h-.079c-.028-.1-.051-.205-.079-.312h-.079v-.545H60.94c-.028-.233-.051-.466-.079-.7h-.079v-.233H60.7v-.154h-.079c-.028-.154-.051-.312-.079-.466h-.079c-.028-.154-.051-.312-.079-.466h-.079c-.028-.1-.051-.205-.079-.312h-.079v-.154c-.079-.051-.154-.1-.233-.154v-.154c-.1-.079-.2-.154-.312-.233V109.8c-.079-.051-.154-.1-.233-.154v-.154c-.1-.079-.2-.154-.312-.233V109.1c-.079-.051-.154-.1-.233-.154-.051-.154-.1-.312-.154-.466-.051-.028-.1-.051-.154-.079v-.154c-.079-.051-.154-.1-.233-.154v-.154c-.051-.028-.1-.051-.154-.079-.028-.1-.051-.205-.079-.312-.1-.079-.2-.154-.312-.233v-.154c-.13-.1-.261-.205-.386-.312-.028-.1-.051-.205-.079-.312-.079-.051-.154-.1-.233-.154v-.154c-.051-.028-.1-.051-.154-.079v-.233h-.079v-.154h-.079c-.028-.1-.051-.205-.079-.312h-.079v-.233H56.5v-.154h-.079v-.154h-.079v-.154h-.079c-.028-.205-.051-.415-.079-.62H56.1V103.9h-.079v-.233h-.079v-.233h-.079c-.028-.233-.051-.466-.079-.7H55.7v-.154h-.079V102.2h-.079c.028-1.035.051-2.069.079-3.109-.014-.182-.144-.359-.079-.62,0,0,.107-.033.079-.233a.136.136,0,0,1-.079-.154h.079V96.839H55.7c-.028-.13-.051-.261-.079-.387H55.7v-.387h.079v-.387h.079v-.312h.079v-.387h.079V93.814H56.1V93.66h.079v-.312h.079v-.233h.079v-.154h.079v-.233H56.5v-.154h.079v-.154c.051-.028.1-.051.154-.079v-.154h.079v-.154h.079c.13-.387.261-.778.386-1.165a.772.772,0,0,0-.312-.079c-.2.2-.34.051-.619.154v.079h-.154V91.1h-.233v.079H55.8v.079H55.57v.079c-.1.028-.2.051-.312.079V91.5c-.154.028-.312.051-.465.079v.079h-.154v.079c-.154.028-.312.051-.465.079v.079h-.233v.079h-.233v.079h-.233v.079h-.233v.079H53.01v.079c-.852.079-1.708.154-2.559.233v-.079c-.312-.028-.619-.051-.931-.079v.079h-.312v.079h-.852v-.079h-.931v-.079h-.544v-.079h-.465v-.079h-.465v-.079h-.233v-.079h-.544v-.079h-.312v-.079h-.619V91.81c-.181-.028-.363-.051-.544-.079v-.079h-.312v-.079h-.154v-.079h-.312v-.079l-.465-.154v-.079c-.154-.028-.312-.051-.465-.079v-.079h-.154v-.079h-.312v-.079h-.154v-.079c-.154-.028-.312-.051-.465-.079v-.079c-.1-.028-.2-.051-.312-.079v-.079h-.154v-.079c-.13-.028-.261-.051-.386-.079-.028-.051-.051-.1-.079-.154h-.154v-.079c-.13-.028-.261-.051-.386-.079-.028-.051-.051-.1-.079-.154H39.2v-.079h-.233c-.028-.051-.051-.1-.079-.154-.233-.079-.465-.154-.7-.233-.028-.051-.051-.1-.079-.154h-.154v-.079h-.154v-.079h-.233v-.079c-.1-.028-.2-.051-.312-.079v-.079H37.03c-.028-.051-.051-.1-.079-.154-.233-.079-.465-.154-.7-.233-.028-.051-.051-.1-.079-.154H36.02l-.154-.154h-.154v-.079H35.56c-.028-.051-.051-.1-.079-.154h-.233c-.028-.051-.051-.1-.079-.154l-.465-.154c-.051-.079-.1-.154-.154-.233-.13-.028-.261-.051-.386-.079V87.2c-.079-.028-.154-.051-.233-.079-.028-.051-.051-.1-.079-.154-.1-.028-.2-.051-.312-.079-.028-.051-.051-.1-.079-.154h-.154c-.051-.079-.1-.154-.154-.233H33c-.028-.051-.051-.1-.079-.154h-.154c-.051-.079-.1-.154-.154-.233h-.154c-.051-.079-.1-.154-.154-.233h-.154c-.051-.079-.1-.154-.154-.233h-.154c-.028-.051-.051-.1-.079-.154-.13-.028-.261-.051-.386-.079-.028-.051-.051-.1-.079-.154h-.233c-.028-.051-.051-.1-.079-.154h-.154v-.079h-.154V84.95H30.45c-.079-.1-.154-.205-.233-.312-.1-.028-.2-.051-.312-.079-.079-.1-.154-.205-.233-.312h-.154c-.028-.051-.051-.1-.079-.154h-.154c-.028-.051-.051-.1-.079-.154-.1-.028-.2-.051-.312-.079-.028-.051-.051-.1-.079-.154h-.154v-.079c-.1-.028-.2-.051-.312-.079-.051-.079-.1-.154-.154-.233h-.154c-.028-.051-.051-.1-.079-.154h-.154c-.051-.079-.1-.154-.154-.233H27.5c-.051-.079-.1-.154-.154-.233H27.2c-.028-.051-.051-.1-.079-.154h-.154c-.051-.079-.1-.154-.154-.233h-.154c-.028-.051-.051-.1-.079-.154h-.154c-.028-.051-.051-.1-.079-.154h-.154c-.028-.051-.051-.1-.079-.154H25.88v-.079h-.154c-.028-.051-.051-.1-.079-.154h-.154v-.079h-.233c-.028-.051-.051-.1-.079-.154-.079-.028-.154-.051-.233-.079v-.079c-.1-.028-.2-.051-.312-.079-.028-.051-.051-.1-.079-.154-.079-.028-.154-.051-.233-.079-.051-.079-.1-.154-.154-.233h-.154c-.028-.051-.051-.1-.079-.154h-.154c-.051-.079-.1-.154-.154-.233-.1-.028-.2-.051-.312-.079-.028-.051-.051-.1-.079-.154h-.154c-.028-.051-.051-.1-.079-.154h-.154v-.079H22.7c-.154-.182-.312-.364-.465-.545-.079-.028-.154-.051-.233-.079-.051-.079-.1-.154-.154-.233-.1-.028-.2-.051-.312-.079-.028-.051-.051-.1-.079-.154h-.154c-.028-.051-.051-.1-.079-.154h-.154V78.5h-.233c-.028-.051-.051-.1-.079-.154l-.465-.154c-.028-.051-.051-.1-.079-.154-.079-.028-.154-.051-.233-.079V77.88h-.154V77.8h-.154v-.079h-.233c-.028-.051-.051-.1-.079-.154h-.154v-.079h-.154v-.079H18.9l-.154-.154H18.6c-.028-.051-.051-.1-.079-.154l-.465-.154c-.028-.051-.051-.1-.079-.154-.079-.028-.154-.051-.233-.079-.051-.079-.1-.154-.154-.233h-.154l-.154-.154h-.154v-.079h-.154c-.028-.051-.051-.1-.079-.154h-.154v-.079h-.154v-.079h-.154l-.154-.154h-.154c-.028-.051-.051-.1-.079-.154-.1-.028-.2-.051-.312-.079-.028-.051-.051-.1-.079-.154l-.465-.154c-.028-.051-.051-.1-.079-.154h-.154c-.051-.079-.1-.154-.154-.233-.1-.028-.2-.051-.312-.079-.079-.1-.154-.205-.233-.312h-.154c-.028-.051-.051-.1-.079-.154h-.154c-.079-.1-.154-.205-.233-.312h-.154c-.028-.051-.051-.1-.079-.154-.1-.028-.2-.051-.312-.079-.051-.079-.1-.154-.154-.233H12.79v-.079c-.1-.028-.2-.051-.312-.079-.051-.079-.1-.154-.154-.233h-.154c-.028-.051-.051-.1-.079-.154-.079-.028-.154-.051-.233-.079v-.079h-.154c-.028-.051-.051-.1-.079-.154-.1-.028-.2-.051-.312-.079-.028-.051-.051-.1-.079-.154l-.465-.154c-.028-.051-.051-.1-.079-.154h-.154l-.154-.154h-.154c-.028-.051-.051-.1-.079-.154-.079-.028-.154-.051-.233-.079-.051-.079-.1-.154-.154-.233L9.3,71.36c-.028-.051-.051-.1-.079-.154H9.067v-.079H8.835c-.028-.051-.051-.1-.079-.154H8.6c-.028-.051-.051-.1-.079-.154-.1-.028-.2-.051-.312-.079-.028-.051-.051-.1-.079-.154H7.978c-.079-.1-.154-.205-.233-.312-.079-.028-.154-.051-.233-.079-.028-.051-.051-.1-.079-.154H7.28c-.028-.051-.051-.1-.079-.154-.079-.028-.154-.051-.233-.079v-.079c-.1-.028-.2-.051-.312-.079-.051-.079-.1-.154-.154-.233-.1-.028-.2-.051-.312-.079-.1-.13-.2-.261-.312-.387H5.726c-.2-.233-.414-.466-.619-.7H4.954c-.181-.205-.363-.415-.544-.62-.1-.028-.2-.051-.312-.079-.079-.1-.154-.205-.233-.312-.1-.028-.2-.051-.312-.079-.028-.051-.051-.1-.079-.154H3.32c-.028-.051-.051-.1-.079-.154H3.087c-.028-.051-.051-.1-.079-.154-.1-.028-.2-.051-.312-.079-.13-.154-.261-.312-.386-.466-.079-.028-.154-.051-.233-.079v-.154H2c-.1-.13-.2-.261-.312-.387H1.533c-.261-.284-.517-.569-.777-.853-.1-.079-.2-.154-.312-.233-.079-.233-.154-.466-.233-.7-.051-.028-.1-.051-.154-.079v-.154H-.021c-.028-.079-.051-.154-.079-.233-.079-.028-.154-.051-.233-.079-.028-.205-.051-.415-.079-.62h.079v-.466H-.412v-.545h.079c.051-.312.1-.62.154-.932H-.1v-.233h.079v-.233H.058v-.312c.051-.028.1-.051.154-.079v-.154H.291v-.154H.37v-.233c.051-.028.1-.051.154-.079.028-.13.051-.261.079-.387H.682v-.154c.051-.028.1-.051.154-.079v-.154H.914v-.233c.051-.028.1-.051.154-.079v-.154h.079v-.154l.154-.154v-.154c.079-.051.154-.1.233-.154.028-.1.051-.205.079-.312.1-.079.2-.154.312-.233v-.154c.13-.1.261-.205.386-.312v-.154c.154-.13.312-.261.465-.387V55.6c.079-.051.154-.1.233-.154v-.154c.051-.028.1-.051.154-.079.154-.182.312-.364.465-.545h.154c.181-.205.363-.415.544-.62h.154c.051-.079.1-.154.154-.233l.465-.154c.079-.1.154-.205.233-.312h.154c.051-.079.1-.154.154-.233h.154c.028-.051.051-.1.079-.154h.154v-.079h.154c.028-.051.051-.1.079-.154.13-.028.261-.051.386-.079.028-.051.051-.1.079-.154h.154v-.079h.154c.028-.051.051-.1.079-.154l.465-.154c.028-.051.051-.1.079-.154h.154v-.079H7.96V51.8l.7-.154v-.079l.465-.154v-.079h.154v-.079c.1-.028.2-.051.312-.079.028-.051.051-.1.079-.154h.154v-.079c.1-.028.2-.051.312-.079v-.079c.154-.028.312-.051.465-.079v-.079h.233v-.079h.154v-.079h.233v-.079h.233v-.079H11.6v-.079h.154c.028-.051.051-.1.079-.154.1-.028.2-.051.312-.079.028-.051.051-.1.079-.154h.154c.028-.051.051-.1.079-.154q4.384-1.44,8.763-2.876c.465-.028.931-.051,1.4-.079v-.079h.312v-.079h.233V46.5H23.4v-.079l.777-.154v-.079h.544V46.1h.312v-.079h.7v-.079h.312v-.079h.233v-.079h.852v-.079h.7v-.079h.233v-.079h.312V45.47h.386v-.079c.619-.028,1.242-.051,1.861-.079v-.079c.051.028.1.051.154.079v-.079h.465v-.079h1.242A11.571,11.571,0,0,1,35.034,45c.13-.028.261-.051.386-.079V45c.154-.028.312-.051.465-.079V45h.079V44.92h.852V45h.852a.2.2,0,0,1,.233-.079V45h.619v.079h2.792V45c.13-.023.135.075.154.079.335-.028.67-.051,1.01-.079v.079h1.084V45a.2.2,0,0,1,.233.079h1.4v.079h1.4v.079H46.9v.079h.931V45.4h1.782v.079h.544v.079h.233v.079H50.7v.079h.619a1.679,1.679,0,0,0,.619.154v-.079H52.4v.079h.386v.079h.852v.079h.312V46.1h.312v.079h.386v.079h.312v.079c.284.028.568.051.852.079V46.5c.619.028,1.242.051,1.861.079v.079h.465v.079h.544v.079h.386V46.9h.465v.079h.233v.079c.2.028.414.051.619.079v.079h.544v.079h.233v.079h.619v.079h.154v.079H62.4v.079h.154v.079h.312v.079l.852.154V48h.465v.079h.154v.079c.2.028.414.051.619.079v.079h.312V48.4h.386v.079h.465v.079h.233v.079h.386v.079h.386v.079h.233v.079h.619v.079h.386v.079h.544v.079h.154v.079c.335.028.67.051,1.01.079v.079c.181.028.363.051.544.079v.079h.233v.079h.233v.079h.233v.079H71.7v.079h.154V49.9l1.4.154v.079H73.4v.079c.154.028.312.051.465.079v.079h.312v.079h.233v.079h.544v.079h.233v.079H75.5v.079h.386v.079H76.2v.079h.386v.079h.7v.079h.386v.079H77.9v.079h.233v.079h.233V51.4h.386v.079h.154v.079h.233v.079h.312c.028.051.051.1.079.154h.312v.079h.233v.079h.386v.079h.233v.079h.465v.079h.233v.079H81.7v.079c.233.028.465.051.7.079v.079h.465v.079H83.1v.079h.154v.079h.386v.079h.154V52.9h.312v.079h.233v.079h.312c.028.051.051.1.079.154.13.028.261.051.386.079v.079h.233v.079H85.5v.079h.544v.079a1.212,1.212,0,0,0,1.01-.079c.27-.061.3-.14.312-.466h-.079v-.233c-.051-.028-.1-.051-.154-.079a1.66,1.66,0,0,1-.312-.853c.1-.075.149-.247.233-.312.279-.214.3-.014.312-.545a1.875,1.875,0,0,1-.386-.466v-.154c-.051-.028-.1-.051-.154-.079-.028-.13-.051-.261-.079-.387h-.079v-.466H86.59a1.629,1.629,0,0,1,.154-.778c.051-.028.1-.051.154-.079.028-.131.051-.261.079-.387.079-.051.154-.1.233-.154.261-.284.517-.569.777-.853h-.079c-.028-.13-.051-.261-.079-.387h-.079v-.079c-.172-.149-.14.084-.233-.233-.2-.051-.126-.042-.233-.154H87.2v-.154c-.1-.079-.2-.154-.312-.233v-.079c-.079-.028-.154-.051-.233-.079v-.154c-.214-.051-.177-.1-.386-.154v-.154c-.1-.028-.2-.051-.312-.079-.074-.261-.093-.149-.233-.312H85.65v-.154H85.5v-.154c-.372-.042-.228-.144-.544-.233v-.233c-.423-.047-.428-.289-.777-.387-.028-.079-.051-.154-.079-.233-.051.028-.1.051-.154.079-.13-.154-.261-.312-.386-.466H83.4c-.028-.051-.051-.1-.079-.154H83.17c-.051-.079-.1-.154-.154-.233h-.154c-.051-.079-.1-.154-.154-.233-.1-.028-.2-.051-.312-.079-.028-.051-.051-.1-.079-.154h-.154c-.028-.051-.051-.1-.079-.154h-.154v-.079h-.154v-.079c-.079-.028-.154-.051-.233-.079v-.154c-.154-.028-.312-.051-.465-.079v-.154c-.265-.051-.358-.172-.619-.233v-.154c-.177-.014-.2-.009-.312-.079v-.079h-.233c-.028-.051-.051-.1-.079-.154h-.154V40.8h-.233c-.028-.051-.051-.1-.079-.154h-.154v-.079h-.154l-.154-.154h-.154c-.028-.051-.051-.1-.079-.154h-.233V40.18h-.154V40.1l-.465-.154v-.079h-.233c-.028-.051-.051-.1-.079-.154h-.233v-.079H77.13v-.079h-.154v-.079h-.154V39.4h-.154v-.079l-.465-.154v-.079c-.154-.028-.312-.051-.465-.079-.051-.079-.1-.154-.154-.233-.051.028-.1.051-.154.079v-.079h-.154v-.079h-.154c-.028-.051-.051-.1-.079-.154-.154-.028-.312-.051-.465-.079v-.079h-.154c-.028-.051-.051-.1-.079-.154h-.233v-.079c-.1-.028-.2-.051-.312-.079V37.99c-.154-.028-.312-.051-.465-.079v-.079c-.1-.028-.2-.051-.312-.079v-.079h-.233v-.079c-.1-.028-.2-.051-.312-.079v-.079c-.154-.028-.312-.051-.465-.079v-.079c-.13-.028-.261-.051-.386-.079v-.079c-.1-.028-.2-.051-.312-.079V36.96c-.13-.028-.261-.051-.386-.079-.028-.051-.051-.1-.079-.154-.154-.028-.312-.051-.465-.079-.051-.079-.1-.154-.154-.233-.051.028-.1.051-.154.079-.028-.051-.051-.1-.079-.154-.233-.079-.465-.154-.7-.233-.051-.079-.1-.154-.154-.233-.13-.028-.261-.051-.386-.079-.051-.079-.1-.154-.154-.233-.079-.028-.154-.051-.233-.079V35.4h-.154v-.079h-.154c-.028-.051-.051-.1-.079-.154-.2-.144-.14.084-.233-.233-.247-.061-.284-.172-.544-.233V34.55c-.214-.056-.172-.023-.233-.233-.265-.07-.2-.158-.465-.233-.028-.1-.051-.205-.079-.312-.079-.028-.154-.051-.233-.079v-.154c-.154-.13-.312-.261-.465-.387-.028-.1-.051-.205-.079-.312-.051-.028-.1-.051-.154-.079v-.154c-.079-.051-.154-.1-.233-.154-.028-.1-.051-.205-.079-.312h-.079v-.154c-.051-.028-.1-.051-.154-.079-.028-.1-.051-.205-.079-.312H64.8c-.028-.466-.051-.932-.079-1.4H64.8c.028-.13.051-.261.079-.387.13-.028.261-.051.386-.079v.079c.088.065.009-.009.079.079h.079c.028.154.051.312.079.466h.154c.2.569.414,1.137.619,1.71.079.028.154.051.233.079l.154.7h.154c.028.079.051.154.079.233.181.154.363.312.544.466v.233h.079c.088-.089,0-.033.154-.079v.233h.233c.126.186.214.117.312.233.028.079.051.154.079.233h.233c.028.051.051.1.079.154.2.144.14-.084.233.233a1.755,1.755,0,0,1,.777.312v.079h.233c.028.051.051.1.079.154.079.028.154.051.233.079v.079c.13.028.261.051.386.079.028.051.051.1.079.154h.312c.028.051.051.1.079.154.079.028.154.051.233.079v.079c.051-.028.1-.051.154-.079.028.051.051.1.079.154h.233v.079h.154v.079H72.1v.079h.154c.028.051.051.1.079.154h.233v.079h.154v.079h.233c.051.079.1.154.154.233H73.5c.028.051.051.1.079.154h.154v.079h.154V37.2h.312v.079h.154c.028.051.051.1.079.154h.312c.028.051.051.1.079.154h.154v.079c.154.028.312.051.465.079.051.079.1.154.154.233h.233v.079h.154v.079h.154v.079h.154c.028.051.051.1.079.154.051-.028.1-.051.154-.079.028.051.051.1.079.154h.154c.2.107.414.354.619.233v.154c.112.121.112.033.233,0,.051.079.1.154.154.233.051-.028.1-.051.154-.079v.079c.1.028.2.051.312.079V39.3c.172.014.209.009.312.079v.079h.233v.079c.107.079.13.084.233,0v.154c.307.037.275.13.619.154V40c.079.028.154.051.233.079v.079H80v.079h.233c.051.079.1.154.154.233h.233c.028.051.051.1.079.154h.154V40.7c.191.149.2.14.544.154v.154c.074.037.14.149.154.154h.233v.079h.233c.028.051.051.1.079.154a.961.961,0,0,0,.544.233v.154h.233v.079c.088.089.033,0,.079.154.13.028.261.051.386.079v.154c.079.028.154.051.233.079v.079c.251.154.382.056.465.387h.233c.14.205.307.177.386.466.423.047.428.289.777.387v.233h.233c.154.233.219.075.312.387a.436.436,0,0,1,.386.387c.27.047.4.126.465.387h.154c.079.1.154.205.233.312h.079c.093.061,0,0,.079.079h.079v.154c.088.089.033,0,.079.154.372.042.228.144.544.233v.233h.154c.047.2.037.13.154.233v.079h.154V46.6c.1.084.13.084.233,0v.154H89v-.079c.051.028.1.051.154.079v-.079c.051-.028.1-.051.154-.079-.028-.051-.051-.1-.079-.154h.079c.028-.154.051-.312.079-.466h-.079V45.74h-.079v-.7h.465V45.2c.1.084.084.135.154.233h.079v.154c.051.028.1.051.154.079v.154h.079c.028.051.051.1.079.154h.154c.126.117.456.084.7.079a2.07,2.07,0,0,1,.154-.7v-.778c.051-.028.1-.051.154-.079-.028-.051-.051-.1-.079-.154H91.4V44.1h.079v-.545c.051-.028.1-.051.154-.079v-.312h.079v-.079l-.079-.079h.079v-.233h.079v-.312c.051-.028.1-.051.154-.079-.028-.051-.051-.1-.079-.154h.079v-.312c.033-.107.047.028.079-.079-.023-.107-.056.028-.079-.079.079-.051.154-.1.233-.154.042-.1-.061.023-.079-.079-.028-.149.061-.107.079-.154.042-.1-.056.023-.079-.079-.121-.1.149-.075.154-.079.023-.4.242-1.039.386-1.086a1.141,1.141,0,0,1,.154-.7h.079v-.312h.079v-.154h.079v-.312h.079V38.5h.079v-.312h.079v-.233h.079V37.8h.079c.028-.154.051-.312.079-.466h.079v-.154h.079v-.387h.079c.028-.13.051-.261.079-.387.051-.028.1-.051.154-.079v-.079h-.079v-.079c.051-.028.1-.051.154-.079v-.233h.079v-.079c-.033-.033-.126.019-.079-.079.079-.051.154-.1.233-.154-.028-.051-.051-.1-.079-.154h.079v-.233h.079c.028-.1.051-.205.079-.312h.079c.028-.13.051-.261.079-.387.051-.028.1-.051.154-.079v-.233h.079v-.154h.079v-.233h.079V33.6h.079v-.387c.051-.028.1-.051.154-.079v-.154H95.3v-.312c.051-.028.1-.051.154-.079V32.36h.079v-.233h.079v-.233h.079v-.233c.051-.028.1-.051.154-.079.028-.154.051-.312.079-.466.051-.028.1-.051.154-.079.028-.154.051-.312.079-.466h.079v-.154h.079c.028-.13.051-.261.079-.387h.079c.028-.182.051-.364.079-.545h.079c.028-.1.051-.205.079-.312h.079v-.233h.079c.028-.1.051-.205.079-.312h.079v-.312H97.1v-.154h.079v-.233h.079v-.233h.079v-.233h.079v-.233H97.5v-.154h.079v-.387h.079v-.154h.079V26.3h.079c-.028-.051-.051-.1-.079-.154h.079v-.154h.079c.028-.154.051-.312.079-.466h.079v-.466c.051-.028.1-.051.154-.079.028-.182.051-.364.079-.545h.079V24.2h.079c-.028-.051-.051-.1-.079-.154.051-.028.1-.051.154-.079v-.233H98.6v-.387h.079v-.312h.079v-.154h.079v-.079h-.079c.009-.163.079-.154.079-.154v-.387h.079v-.154h.079v-.7c.051-.028.1-.051.154-.079,0-.112-.028.019-.079-.079.028-.154.051-.312.079-.466h-.079v-.312c.028-.079.051-.154.079-.233h-.079v-.233c-.033-.1-.074.033-.079-.079.061-.089.1.028.079-.079h-.079c-.042-.182.093-.214.079-.312h-.079v-.233h-.079l-.154-.853c.079-.028.154-.051.233-.079v-.079h.233c.084.163.126.14.154.387h.154c-.009.275-.1.275,0,.545h.079v.233a4.263,4.263,0,0,1,.233.545c-.051.028-.1.051-.154.079-.014.107.061-.033.079.079-.028.079-.051.154-.079.233h.079v.233c.028.107.1-.028.079.079-.051.028-.1.051-.154.079l.154.7h-.079V21.8h-.079c.028.079.051.154.079.233-.051.028-.1.051-.154.079,0,.112.06-.033.079.079v.387h-.079a2.128,2.128,0,0,1,.079.312h-.154a1.34,1.34,0,0,1,0,.7s-.074-.019-.079.154c.088.089.074.023,0,.154h-.079v.233H99.3v.079h.079c-.13.466-.261.932-.386,1.4h-.154a1.155,1.155,0,0,1-.079.545H98.68v.233c-.051.028-.1.051-.154.079.028.079.051.154.079.233h-.079v.154c-.051.028-.1.051-.154.079v.312h-.079v.233h-.079a.8.8,0,0,0-.079.387h-.154c.028.051.051.1.079.154h-.079v.233c-.051.028-.1.051-.154.079-.028.182-.051.364-.079.545H97.67c-.065.112-.051.135-.079.312h-.154c-.014.489-.1.345-.154.778H97.13c.028.079.051.154.079.233H97.13v.154c-.051.028-.1.051-.154.079v.233H96.9v.312c-.051.028-.1.051-.154.079l-.154.7c-.051.028-.1.051-.154.079-.028.154-.051.312-.079.466h-.079v.233c-.051.028-.1.051-.154.079v.154h-.079v.312c-.051.028-.1.051-.154.079.028.051.051.1.079.154h-.079v.233c-.051.028-.1.051-.154.079v.233H95.66v.233c-.051.028-.1.051-.154.079v.387h-.079c-.051.154-.1.312-.154.466h-.079c.028.051.051.1.079.154h-.079v.233c-.051.028-.1.051-.154.079-.028.13-.051.261-.079.387h.079v.079c-.051.028-.1.051-.154.079v.233c-.051.028-.1.051-.154.079-.028.154-.051.312-.079.466-.051.028-.1.051-.154.079.028.051.051.1.079.154-.051.028-.1.051-.154.079V37.2h.079c-.028.079-.051.154-.079.233h-.079v.233h-.079v.154c-.051.028-.1.051-.154.079.028.079.051.154.079.233-.051.028-.1.051-.154.079-.079.336-.154.671-.233,1.011-.051.028-.1.051-.154.079v.233c-.037.1-.065-.033-.079.079h.079V39.7c-.051.028-.1.051-.154.079v.233c-.051.028-.1.051-.154.079-.009.107.014-.014.079.079a1.376,1.376,0,0,0-.079.387h-.154c-.079.336-.154.671-.233,1.011-.051.028-.1.051-.154.079.028.079.051.154.079.233h-.079v.233h-.079v.154h-.079v.466H92.57v.154h-.079c-.028.205-.051.415-.079.62h-.079c.028.051.051.1.079.154h-.079v.233h-.079v.233h-.079v.545a1.51,1.51,0,0,0-.154.7l.079.079c-.051.028-.1.051-.154.079.028.079.051.154.079.233h-.079v.387a1.142,1.142,0,0,0,.7.154V46.22s1.042.191,1.084.233a1.938,1.938,0,0,1,1.01.932v.387h.079v.778h-.079v.079h.079a.212.212,0,0,1-.079.233c.028.051.051.1.079.154-.042.1-.088-.033-.079.079v.079h.079c.144.694,1.08,1.165,1.941,1.165.13-.158.181-.065.312-.154.1-.13.2-.261.312-.387.051-.028.1-.051.154-.079v-.154c.051-.028.1-.051.154-.079v-.154c.154-.13.312-.261.465-.387v-.154c.051-.028.1-.051.154-.079V48.56c.181-.154.363-.312.544-.466.028-.1.051-.205.079-.312.1-.079.2-.154.312-.233.028-.079.051-.154.079-.233.051-.028.1-.051.154-.079v-.154c.051-.028.1-.051.154-.079V46.85c.079-.051.154-.1.233-.154v-.154c.051-.028.1-.051.154-.079v-.154c.079-.051.154-.1.233-.154V46c.261-.233.517-.466.777-.7v-.154c.13-.1.261-.205.386-.312.028-.1.051-.205.079-.312.079-.051.154-.1.233-.154.028-.079.051-.154.079-.233h.079c.2-.3.228-.592.619-.7a1.111,1.111,0,0,1,.312-.545h.079v-.154c.079-.051.154-.1.233-.154v-.154c.13-.1.261-.205.386-.312v-.154c.2-.182.414-.364.619-.545v-.154c.261-.233.517-.466.777-.7.028-.1.051-.205.079-.312.13-.1.261-.205.386-.312v-.154c.051-.028.1-.051.154-.079v-.154c.2-.182.414-.364.619-.545v-.154c.154-.13.312-.261.465-.387v-.154c.154-.13.312-.261.465-.387v-.154c.181-.154.363-.312.544-.466v-.154c.1-.079.2-.154.312-.233v-.154c.386-.364.777-.727,1.163-1.086v-.154c.2-.182.414-.364.619-.545.028-.1.051-.205.079-.312.363-.336.726-.671,1.084-1.011v-.154c.051-.028.1-.051.154-.079v-.154c.154-.13.312-.261.465-.387a9.888,9.888,0,0,0,1.084-1.244h.079a.847.847,0,0,0,.233-.387c.316-.093.1-.051.233-.233.051-.028.1-.051.154-.079v-.154c.079-.051.154-.1.233-.154v-.154c.079-.051.154-.1.233-.154v-.154c.079-.051.154-.1.233-.154v-.154c.079-.051.154-.1.233-.154v-.154c.079-.051.154-.1.233-.154v-.154h.079c.168-.2.391-.34.465-.62h.154l.777-.932c.079-.051.154-.1.233-.154v-.154c.1-.079.2-.154.312-.233.028-.079.051-.154.079-.233h.154c.088-.35.47-.629.7-.853.154-.182.312-.364.465-.545.079-.051.154-.1.233-.154.028-.1.051-.205.079-.312h.079c.028-.051.051-.1.079-.154h.154c.1-.13.2-.261.312-.387.051-.028.1-.051.154-.079v-.154c.154-.13.312-.261.465-.387.181-.256.093-.443.465-.545.107-.4.945-1.025,1.242-1.319a11.222,11.222,0,0,0,1.163-1.319c.2-.182.414-.364.619-.545v-.154c.051-.028.1-.051.154-.079v-.154c.1-.079.2-.154.312-.233V19.4c.13-.1.261-.205.386-.312.028-.051.051-.1.079-.154h.154c.028-.051.051-.1.079-.154.186-.177.521-.555.777-.62v-.154h.079c.13-.154.261-.312.386-.466h.154c.2-.233.414-.466.619-.7h.154c.028-.051.051-.1.079-.154a2.8,2.8,0,0,0,.465-.312c.237-.238.4-.6.777-.7.144-.536.782-.555.931-1.086h.154c.158-.266.237-.224.465-.387.1-.13.2-.261.312-.387h.154c.051-.079.1-.154.154-.233.1-.028.2-.051.312-.079.028-.051.051-.1.079-.154h.154c.181-.205.363-.415.544-.62h.154c.028-.051.051-.1.079-.154h.154c.051-.079.1-.154.154-.233h.154c.154-.182.312-.364.465-.545h.154c.051-.079.1-.154.154-.233h.154c.079-.1.154-.205.233-.312h.154c.051-.079.1-.154.154-.233h.154c.028-.051.051-.1.079-.154l.465-.154c.028-.051.051-.1.079-.154h.154c.051-.079.1-.154.154-.233.079-.028.154-.051.233-.079v-.079a1.367,1.367,0,0,1,.544-.387c.074-.261.093-.149.233-.312h.079V9.313h.154c.13-.191.275-.177.465-.312.1-.13.2-.261.312-.387h.154c.051-.079.1-.154.154-.233h.154c.028-.051.051-.1.079-.154.1-.028.2-.051.312-.079V8.069c.079-.028.154-.051.233-.079.028-.051.051-.1.079-.154h.154V7.757c.079-.028.154-.051.233-.079.028-.051.051-.1.079-.154h.154c.051-.079.1-.154.154-.233h.154V7.211h.154V7.132h.154l.154-.154h.154c.051-.079.1-.154.154-.233h.154c.028-.051.051-.1.079-.154h.154c.028-.051.051-.1.079-.154.079-.028.154-.051.233-.079V6.279h.154V6.2h.154V6.121h.233V6.042c.1-.028.2-.051.312-.079V5.883h.154c.028-.051.051-.1.079-.154l.7-.154V5.5c.1-.028.2-.051.312-.079V5.338c.1-.028.2-.051.312-.079.028-.051.051-.1.079-.154h.154c.028-.051.051-.1.079-.154h.154c.028-.051.051-.1.079-.154.386-.13.777-.261,1.163-.387V4.331h.154c.028-.051.051-.1.079-.154h.154l.154-.154h.154V3.944h.154c.028-.051.051-.1.079-.154h.233V3.711h.154V3.632c.154-.028.312-.051.465-.079V3.474h.233V3.394h.233V3.315h.233V3.236h.233V3.157h.233V3.078h.233V3l.7-.154V2.765l.465-.154V2.532h.154V2.453h.154V2.374c.1-.028.2-.051.312-.079V2.215c.154-.028.312-.051.465-.079V2.057c.1-.028.2-.051.312-.079V1.9h.154V1.819h.233V1.74h.154V1.661c.154-.028.312-.051.465-.079V1.5h.233V1.423h.233V1.344h.233V1.265h.312V1.185h.465V1.106h.465V1.027h.619V.948h.233V.868h.386V.789h.312V.71h.312V.631h.7V.552h.386V.472h.852V.393h1.01a1.929,1.929,0,0,1,1.01-.154V.318h1.084V.239h.312V.16h.079V.239h.777V.318h.079V.239h.386V.318c.5.14,1.3-.07,1.782.079h.386V.477h.386V.556h.233V.635h.233V.715h.386V.794h.154V.873c.181.028.363.051.544.079v.079h.233v.079h.233V1.19h.544v.079h.154v.079c.154.028.312.051.465.079.028.051.051.1.079.154h.154v.079h.154V1.74h.233v.079h.154c.028.051.051.1.079.154h.233v.079h.154v.079h.154v.079h.154V2.29l.465.154c.028.051.051.1.079.154l.465.154c.051.079.1.154.154.233.1.028.2.051.312.079.154.182.312.364.465.545h.079v.154Z" transform="translate(0.412 -0.16)" fill="#ebd999" fill-rule="evenodd"/>
</svg>
