<?xml version="1.0" encoding="utf-8"?>
<svg version="1.1" id="speccol-mobile" viewBox="0 0 288.45 47.01" width="100%" height="100%" xmlns="http://www.w3.org/2000/svg" xmlns:xlink="http://www.w3.org/1999/xlink">
	<title>Special Collections</title>
	<path id="path3231_1_" fill="#FFFFFF" d="M56.95,19.94l-1.67,0.99c-0.31-0.54-0.61-0.9-0.89-1.06   c-0.29-0.19-0.67-0.28-1.14-0.28c-0.57,0-1.05,0.16-1.42,0.49c-0.38,0.32-0.57,0.72-0.57,1.2c0,0.67,0.49,1.2,1.49,1.61l1.36,0.56   c1.11,0.45,1.92,1,2.43,1.64c0.51,0.64,0.77,1.43,0.77,2.37c0,1.26-0.42,2.29-1.26,3.11c-0.84,0.82-1.89,1.24-3.14,1.24   c-1.18,0-2.16-0.35-2.93-1.05c-0.76-0.7-1.23-1.69-1.42-2.96l2.09-0.46c0.09,0.8,0.26,1.36,0.49,1.66c0.42,0.59,1.04,0.88,1.86,0.88   c0.64,0,1.18-0.21,1.6-0.65c0.42-0.43,0.64-0.97,0.64-1.63c0-0.27-0.04-0.51-0.12-0.72c-0.07-0.22-0.19-0.43-0.34-0.61   c-0.15-0.19-0.35-0.36-0.6-0.52c-0.25-0.17-0.54-0.32-0.88-0.47l-1.32-0.55c-1.87-0.79-2.8-1.94-2.8-3.46   c0-1.02,0.39-1.88,1.18-2.57c0.78-0.7,1.76-1.04,2.93-1.04C54.84,17.65,56.07,18.41,56.95,19.94"></path>
	<path id="path3233_1_" fill="#FFFFFF" d="M64.21,26.01v5.54h-2.06V17.91h2.33   c1.14,0,2.01,0.08,2.59,0.24c0.59,0.16,1.11,0.46,1.56,0.9c0.78,0.77,1.18,1.73,1.18,2.9c0,1.25-0.42,2.24-1.26,2.97   c-0.84,0.73-1.97,1.1-3.38,1.1H64.21 M64.21,24.11h0.77c1.89,0,2.84-0.73,2.84-2.18c0-1.41-0.97-2.11-2.93-2.11h-0.68L64.21,24.11"></path>
	<path id="path3235_1_" fill="#FFFFFF" d="M81.81,19.85h-5.47v3.28h5.31v1.94h-5.31v4.56h5.47v1.94   h-7.53V17.91h7.53V19.85"></path>
	<path id="path3237_1_" fill="#FFFFFF" d="M96.96,18.64v2.44c-1.19-1-2.42-1.49-3.69-1.49   c-1.4,0-2.58,0.5-3.54,1.51c-0.97,1-1.45,2.23-1.45,3.68c0,1.43,0.48,2.64,1.45,3.62c0.97,0.98,2.15,1.48,3.55,1.48   c0.72,0,1.34-0.12,1.85-0.35c0.28-0.12,0.57-0.28,0.88-0.48c0.31-0.2,0.63-0.44,0.96-0.72v2.48c-1.18,0.67-2.41,1-3.71,1   c-1.95,0-3.61-0.68-4.99-2.04c-1.37-1.37-2.06-3.03-2.06-4.97c0-1.74,0.57-3.29,1.72-4.65c1.41-1.67,3.24-2.5,5.49-2.5   C94.63,17.65,95.82,17.98,96.96,18.64"></path>
	<path id="path3239_1_" fill="#FFFFFF" d="M103.97,17.91v13.64h-2.06V17.91H103.97"></path>
	<path id="path3241_1_" fill="#FFFFFF" d="M117.61,28.24h-5.84l-1.52,3.31h-2.22l6.75-14.5   l6.51,14.5h-2.25L117.61,28.24 M116.77,26.31l-2.02-4.64l-2.12,4.64H116.77"></path>
	<path id="path3243_1_" fill="#FFFFFF" d="M127.39,17.91v11.71h4.01v1.94h-6.07V17.91H127.39"></path>
	<path id="path3245_1_" fill="#FFFFFF" d="M153.71,18.64v2.44c-1.19-1-2.42-1.49-3.69-1.49   c-1.4,0-2.58,0.5-3.54,1.51c-0.97,1-1.45,2.23-1.45,3.68c0,1.43,0.48,2.64,1.45,3.62c0.97,0.98,2.15,1.48,3.55,1.48   c0.72,0,1.34-0.12,1.85-0.35c0.28-0.12,0.57-0.28,0.88-0.48c0.31-0.2,0.63-0.44,0.96-0.72v2.48c-1.18,0.67-2.41,1-3.71,1   c-1.95,0-3.61-0.68-4.99-2.04c-1.37-1.37-2.06-3.03-2.06-4.97c0-1.74,0.57-3.29,1.72-4.65c1.41-1.67,3.24-2.5,5.49-2.5   C151.38,17.65,152.57,17.98,153.71,18.64"></path>
	<path id="path3247_1_" fill="#FFFFFF" d="M157.91,24.67c0-1.92,0.7-3.57,2.11-4.95   c1.4-1.38,3.09-2.07,5.05-2.07c1.94,0,3.61,0.7,5,2.09c1.4,1.39,2.1,3.06,2.1,5.01c0,1.96-0.7,3.63-2.1,4.99   c-1.41,1.37-3.11,2.06-5.1,2.06c-1.76,0-3.34-0.61-4.74-1.83C158.68,28.62,157.91,26.86,157.91,24.67 M159.99,24.7   c0,1.51,0.51,2.75,1.52,3.72c1.01,0.97,2.17,1.46,3.49,1.46c1.43,0,2.64-0.49,3.62-1.48c0.98-1,1.48-2.22,1.48-3.66   c0-1.45-0.49-2.67-1.46-3.66c-0.97-0.99-2.16-1.48-3.59-1.48c-1.42,0-2.62,0.49-3.6,1.48C160.48,22.05,159.99,23.26,159.99,24.7"></path>
	<path id="path3249_1_" fill="#FFFFFF" d="M179.18,17.91v11.71h4.01v1.94h-6.07V17.91H179.18"></path>
	<path id="path3251_1_" fill="#FFFFFF" d="M189.55,17.91v11.71h4.01v1.94h-6.07V17.91H189.55"></path>
	<path id="path3253_1_" fill="#FFFFFF" d="M205.39,19.85h-5.47v3.28h5.31v1.94h-5.31v4.56h5.47   v1.94h-7.53V17.91h7.53V19.85"></path>
	<path id="path3255_1_" fill="#FFFFFF" d="M220.53,18.64v2.44c-1.19-1-2.42-1.49-3.69-1.49   c-1.4,0-2.58,0.5-3.54,1.51c-0.97,1-1.45,2.23-1.45,3.68c0,1.43,0.48,2.64,1.45,3.62c0.97,0.98,2.15,1.48,3.55,1.48   c0.72,0,1.34-0.12,1.85-0.35c0.28-0.12,0.57-0.28,0.88-0.48c0.31-0.2,0.63-0.44,0.96-0.72v2.48c-1.18,0.67-2.42,1-3.71,1   c-1.95,0-3.61-0.68-4.99-2.04c-1.37-1.37-2.06-3.03-2.06-4.97c0-1.74,0.57-3.29,1.72-4.65c1.41-1.67,3.24-2.5,5.49-2.5   C218.21,17.65,219.39,17.98,220.53,18.64"></path>
	<path id="path3257_1_" fill="#FFFFFF" d="M229.25,19.85v11.71h-2.06V19.85h-3.14v-1.93h8.32v1.93   H229.25"></path>
	<path id="path3259_1_" fill="#FFFFFF" d="M238.62,17.91v13.64h-2.06V17.91H238.62"></path>
	<path id="path3261_1_" fill="#FFFFFF" d="M243.56,24.67c0-1.92,0.7-3.57,2.11-4.95   c1.4-1.38,3.09-2.07,5.05-2.07c1.94,0,3.61,0.7,5,2.09c1.4,1.39,2.09,3.06,2.09,5.01c0,1.96-0.7,3.63-2.1,4.99   c-1.41,1.37-3.11,2.06-5.1,2.06c-1.76,0-3.34-0.61-4.75-1.83C244.33,28.62,243.56,26.86,243.56,24.67 M245.64,24.7   c0,1.51,0.51,2.75,1.52,3.72c1.01,0.97,2.17,1.46,3.49,1.46c1.43,0,2.64-0.49,3.62-1.48c0.98-1,1.48-2.22,1.48-3.66   c0-1.45-0.49-2.67-1.46-3.66c-0.97-0.99-2.16-1.48-3.59-1.48c-1.42,0-2.62,0.49-3.6,1.48C246.12,22.05,245.64,23.26,245.64,24.7"></path>
	<path id="path3263_1_" fill="#FFFFFF" d="M262.77,31.56V16.98l9.95,10.41v-9.48h2.06v14.47   L264.83,22v9.55L262.77,31.56"></path>
	<path id="path3265_1_" fill="#FFFFFF" d="M288.1,19.94l-1.67,0.99c-0.31-0.54-0.61-0.9-0.89-1.06   c-0.29-0.19-0.67-0.28-1.14-0.28c-0.57,0-1.05,0.16-1.42,0.49c-0.38,0.32-0.57,0.72-0.57,1.2c0,0.67,0.49,1.2,1.48,1.61l1.36,0.56   c1.11,0.45,1.92,1,2.43,1.64c0.51,0.64,0.77,1.43,0.77,2.37c0,1.26-0.42,2.29-1.26,3.11c-0.84,0.82-1.89,1.24-3.14,1.24   c-1.18,0-2.16-0.35-2.93-1.05c-0.76-0.7-1.23-1.69-1.42-2.96l2.09-0.46c0.09,0.8,0.26,1.36,0.49,1.66c0.42,0.59,1.04,0.88,1.86,0.88   c0.64,0,1.18-0.21,1.6-0.65c0.42-0.43,0.64-0.97,0.64-1.63c0-0.27-0.04-0.51-0.12-0.72c-0.07-0.22-0.19-0.43-0.34-0.61   c-0.15-0.19-0.35-0.36-0.6-0.52c-0.25-0.17-0.54-0.32-0.88-0.47l-1.32-0.55c-1.87-0.79-2.8-1.94-2.8-3.46   c0-1.02,0.39-1.88,1.18-2.57c0.78-0.7,1.76-1.04,2.93-1.04C285.99,17.65,287.22,18.41,288.1,19.94"></path>
	<path id="path4459_1_" fill="#FFFFFF" d="M25.89,8v8.77l-0.89,0l3.54,9.46l3.04,0v8.78H2.32v-8.77   l3.01,0l3.57-9.49l-0.91,0L8,8L25.89,8z"></path>
	<path id="path4467_1_" fill="#231F20" d="M16.94,11.28l6.27,16.25c0,0,0.8,1.98,2.11,1.98h-4.56   c0,0,0.23,0.03,0.46-0.35c0.13-0.22,0.02-0.54,0.02-0.54l-1.41-3.63h-2.88h-2.87l-1.41,3.63c0,0-0.11,0.33,0.02,0.54   c0.23,0.38,0.46,0.35,0.46,0.35H8.58c1.3,0,2.11-1.98,2.11-1.98L16.94,11.28"></path>
	<path id="path4471_1_" fill="#131313" d="M16.95,11.26h5.65v2.26h-2.35l6.17,15.91h1.83v2.34H20.6   v-2.28h-2.15v4.46h12.07V27.3l-2.71,0l-4.35-11.59h1.36V9.06h-7.89H9.06v6.65h1.37L6.08,27.29L3.37,27.3v6.66h12.08v-4.46h-2.15   v2.28H5.64v-2.34h1.83l6.17-15.91h-2.35v-2.26L16.95,11.26L16.95,11.26z"></path>
	<path id="path4475_1_" fill="#231F20" d="M34.01,32.02c0.22,0.22,0.33,0.48,0.33,0.79   c0,0.31-0.11,0.58-0.33,0.79c-0.22,0.22-0.49,0.32-0.81,0.32c-0.32,0-0.59-0.11-0.81-0.32c-0.22-0.22-0.33-0.48-0.33-0.79   c0-0.31,0.11-0.58,0.33-0.79c0.22-0.22,0.49-0.32,0.81-0.32S33.79,31.8,34.01,32.02 M33.85,32.15c-0.18-0.18-0.39-0.27-0.65-0.27   s-0.47,0.09-0.65,0.27c-0.18,0.18-0.26,0.4-0.26,0.66c0,0.26,0.09,0.48,0.26,0.66c0.18,0.18,0.39,0.27,0.65,0.27   c0.25,0,0.47-0.09,0.65-0.27c0.18-0.18,0.26-0.4,0.26-0.66C34.12,32.55,34.03,32.33,33.85,32.15 M32.71,32.17h0.1h0.41   c0.14,0,0.25,0.03,0.33,0.09c0.08,0.06,0.12,0.15,0.12,0.26c0,0.12-0.04,0.21-0.12,0.28c-0.06,0.05-0.14,0.08-0.23,0.1l0.37,0.57   h-0.12h-0.12l-0.33-0.56l-0.22,0v0.56h-0.1h-0.1V32.17z M32.91,32.73h0.28c0.1,0,0.17-0.02,0.21-0.05c0.04-0.03,0.07-0.09,0.07-0.16   c0-0.06-0.02-0.11-0.07-0.14c-0.04-0.03-0.11-0.05-0.21-0.05h-0.28V32.73z"></path>
	<path id="path4479_1_" fill="#FFFFFF" d="M16.93,23.26h2.21l-2.16-5.7l-2.24,5.7H16.93z"></path>
	<path id="path4483_1_" fill="#FFFFFF" d="M2.96,37.46l-0.87,2.21h1.71L2.96,37.46z M3.06,35.56   l0.47,1.15l1.8,4.5c0.2,0.5,0.36,0.99,0.85,1.24v0.03H4.4v-0.03c0.42-0.19,0.35-0.29,0.12-0.9l-0.47-1.24H1.87l-0.45,1.24   c-0.18,0.49-0.24,0.74,0.17,0.9v0.03H0v-0.03c0.5-0.25,0.65-0.74,0.84-1.24l2.22-5.62V35.56z"></path>
	<path id="path4487_1_" fill="#FFFFFF" d="M7.4,41.57c0,0.26,0.02,0.46,0.07,0.58   c0.04,0.12,0.12,0.24,0.23,0.34H6.29c0.11-0.1,0.19-0.21,0.23-0.34c0.05-0.12,0.07-0.32,0.07-0.58V38.2c0-0.26-0.02-0.46-0.07-0.58   c-0.05-0.13-0.12-0.24-0.23-0.33h1.78c0.51,0,0.92,0.12,1.23,0.37c0.31,0.25,0.47,0.56,0.47,0.96c0,0.28-0.09,0.54-0.28,0.75   C9.29,39.58,9,39.77,8.61,39.93l1.33,1.81c0.08,0.11,0.17,0.22,0.28,0.34c0.11,0.12,0.24,0.24,0.38,0.37l-0.4,0.04h-0.06   c-0.19,0-0.37-0.05-0.55-0.15c-0.18-0.1-0.33-0.24-0.45-0.41l-1.53-2.14c0.45-0.1,0.79-0.24,1-0.42c0.21-0.18,0.32-0.41,0.32-0.69   c0-0.26-0.09-0.48-0.27-0.64c-0.18-0.17-0.42-0.25-0.71-0.25c-0.07,0-0.15,0.01-0.24,0.02c-0.09,0.01-0.2,0.03-0.32,0.05V41.57z"></path>
	<path id="path4491_1_" fill="#FFFFFF" d="M12.15,41.57c0,0.26,0.02,0.46,0.07,0.58   c0.05,0.12,0.12,0.24,0.23,0.34h-1.41c0.11-0.1,0.19-0.21,0.23-0.34c0.05-0.13,0.07-0.32,0.07-0.58v-3.37   c0-0.26-0.02-0.46-0.07-0.58c-0.05-0.12-0.12-0.24-0.23-0.33h1.41c-0.11,0.1-0.19,0.21-0.23,0.33c-0.04,0.12-0.07,0.32-0.07,0.58   V41.57z"></path>
	<path id="path4495_1_" fill="#FFFFFF" d="M17.36,41.51l-0.37,0.97h-4l2.73-4.54   c-0.2-0.05-0.4-0.09-0.58-0.12c-0.18-0.03-0.35-0.04-0.5-0.04c-0.23,0-0.45,0.03-0.66,0.08c-0.21,0.06-0.43,0.15-0.64,0.27   l0.35-0.87h3.33l-2.73,4.54c0.3,0.04,0.56,0.06,0.77,0.08c0.21,0.02,0.38,0.02,0.53,0.02c0.35,0,0.68-0.03,0.97-0.1   C16.85,41.75,17.12,41.65,17.36,41.51"></path>
	<path id="path4499_1_" fill="#FFFFFF" d="M20.34,37.71c-0.57,0-1.04,0.2-1.41,0.6   c-0.37,0.4-0.56,0.91-0.56,1.52c0,0.64,0.18,1.17,0.55,1.59c0.37,0.42,0.82,0.63,1.37,0.63c0.57,0,1.04-0.2,1.41-0.6   c0.37-0.4,0.56-0.91,0.56-1.53c0-0.64-0.18-1.17-0.55-1.59C21.35,37.92,20.89,37.71,20.34,37.71 M20.31,42.61   c-0.39,0-0.76-0.06-1.11-0.19c-0.35-0.13-0.64-0.31-0.89-0.55c-0.26-0.25-0.46-0.54-0.61-0.88c-0.14-0.34-0.21-0.69-0.21-1.07   c0-0.29,0.04-0.58,0.13-0.85c0.09-0.28,0.22-0.53,0.39-0.77c0.27-0.37,0.6-0.65,1-0.85c0.4-0.2,0.83-0.3,1.29-0.3   c0.4,0,0.77,0.06,1.12,0.19c0.35,0.13,0.64,0.31,0.89,0.55c0.27,0.25,0.47,0.55,0.61,0.89c0.14,0.34,0.21,0.71,0.21,1.11   c0,0.36-0.08,0.72-0.24,1.07c-0.16,0.35-0.38,0.66-0.66,0.92c-0.26,0.24-0.55,0.42-0.88,0.55C21.04,42.55,20.69,42.61,20.31,42.61"></path>
	<path id="path4503_1_" fill="#FFFFFF" d="M28.5,37.28c-0.11,0.1-0.19,0.21-0.23,0.33   c-0.05,0.13-0.07,0.32-0.07,0.58v4.41c-0.18-0.01-0.35-0.06-0.51-0.18c-0.16-0.11-0.36-0.33-0.61-0.64l-2.65-3.39v3.17   c0,0.27,0.02,0.47,0.07,0.59c0.04,0.12,0.12,0.23,0.23,0.33h-1.16c0.11-0.1,0.18-0.21,0.23-0.34c0.05-0.13,0.07-0.32,0.07-0.58   v-3.37c0-0.26-0.02-0.46-0.07-0.58c-0.05-0.12-0.12-0.24-0.23-0.33h1.04l3.04,3.91v-3c0-0.26-0.02-0.46-0.07-0.58   c-0.05-0.12-0.12-0.24-0.23-0.33H28.5z"></path>
	<path id="path4507_1_" fill="#FFFFFF" d="M30.39,40.02h1.51L31.18,38L30.39,40.02z M29.7,41.79   c-0.02,0.05-0.04,0.11-0.05,0.16c-0.01,0.06-0.02,0.11-0.02,0.17c0,0.05,0.02,0.1,0.05,0.16c0.04,0.06,0.09,0.13,0.17,0.2h-1.21   c0.1-0.07,0.19-0.17,0.27-0.29c0.08-0.12,0.16-0.29,0.25-0.5l1.45-3.72c0.03-0.07,0.05-0.14,0.07-0.21   c0.01-0.07,0.02-0.13,0.02-0.18c0-0.06-0.01-0.11-0.04-0.17c-0.03-0.05-0.08-0.1-0.14-0.15h1.17l1.63,4.37   c0.08,0.2,0.16,0.36,0.25,0.48c0.09,0.12,0.2,0.24,0.34,0.36h-1.47l0.02-0.02c0.14-0.14,0.2-0.25,0.2-0.32   c0-0.08-0.03-0.2-0.09-0.35c-0.01-0.03-0.01-0.04-0.02-0.06l-0.44-1.2h-1.91L29.7,41.79z"></path>
	<path id="path3995_1_" fill="none" stroke="#CCCCCC" d="M40.4,0v47.01"></path>
</svg>
