<?xml version="1.0" encoding="utf-8"?>
<svg version="1.1" id="ua-libraries" width="100%" height="100%" xmlns="http://www.w3.org/2000/svg" xmlns:xlink="http://www.w3.org/1999/xlink">
  <title>University Libraries</title>
  <path id="path3076_1_" fill="#D1D1D1" d="M1.59,0.72v6.36c0,0.91,0.15,1.57,0.44,1.99  C2.48,9.67,3.1,9.97,3.9,9.97c0.81,0,1.43-0.3,1.87-0.91c0.3-0.41,0.44-1.07,0.44-1.99V0.72h1.59v6.79c0,1.11-0.35,2.03-1.04,2.75  c-0.78,0.8-1.74,1.2-2.87,1.2s-2.09-0.4-2.86-1.2C0.35,9.54,0,8.62,0,7.51V0.72H1.59"></path>
  <path id="path3078_1_" fill="#D1D1D1" d="M13.31,11.27V0l7.7,8.05V0.72h1.59v11.2l-7.7-8.03v7.39  L13.31,11.27"></path>
  <path id="path3080_1_" fill="#D1D1D1" d="M29.92,0.72v10.55h-1.59V0.72H29.92"></path>
  <path id="path3082_1_" fill="#D1D1D1" d="M36.2,0.72l2.92,7.31l2.96-7.31h1.74l-4.74,11.35  L34.45,0.72H36.2"></path>
  <path id="path3084_1_" fill="#D1D1D1" d="M53.93,2.21h-4.23v2.54h4.11v1.5h-4.11v3.53h4.23v1.5  H48.1V0.72h5.82V2.21"></path>
  <path id="path3086_1_" fill="#D1D1D1" d="M62.59,6.77l3.27,4.5h-1.95l-3.02-4.32H60.6v4.32h-1.59  V0.72h1.87c1.39,0,2.4,0.26,3.02,0.79c0.68,0.58,1.02,1.35,1.02,2.31c0,0.75-0.21,1.39-0.64,1.93C63.85,6.28,63.29,6.62,62.59,6.77   M60.6,5.56h0.51c1.51,0,2.26-0.58,2.26-1.73c0-1.08-0.73-1.62-2.2-1.62H60.6L60.6,5.56"></path>
  <path id="path3088_1_" fill="#D1D1D1" d="M76.38,2.29l-1.29,0.77c-0.24-0.42-0.47-0.69-0.69-0.82  c-0.23-0.15-0.52-0.22-0.88-0.22c-0.44,0-0.81,0.12-1.1,0.38c-0.29,0.25-0.44,0.56-0.44,0.93c0,0.52,0.38,0.93,1.15,1.24L74.18,5  c0.86,0.35,1.48,0.77,1.88,1.27c0.4,0.5,0.6,1.11,0.6,1.83c0,0.97-0.32,1.77-0.97,2.41c-0.65,0.64-1.46,0.96-2.43,0.96  c-0.92,0-1.67-0.27-2.27-0.81c-0.59-0.54-0.95-1.31-1.1-2.29l1.61-0.35c0.07,0.62,0.2,1.05,0.38,1.28c0.33,0.46,0.81,0.68,1.44,0.68  c0.5,0,0.91-0.17,1.24-0.5s0.49-0.75,0.49-1.27c0-0.21-0.03-0.39-0.09-0.56c-0.05-0.17-0.14-0.33-0.27-0.47  c-0.12-0.15-0.27-0.28-0.46-0.4c-0.19-0.13-0.42-0.25-0.68-0.36l-1.02-0.42c-1.45-0.61-2.17-1.5-2.17-2.68  c0-0.79,0.3-1.46,0.91-1.99c0.61-0.54,1.36-0.81,2.26-0.81C74.74,0.51,75.69,1.1,76.38,2.29"></path>
  <path id="path3090_1_" fill="#D1D1D1" d="M83.16,0.72v10.55h-1.59V0.72H83.16"></path>
  <path id="path3092_1_" fill="#D1D1D1" d="M91.58,2.21v9.06h-1.59V2.21h-2.43v-1.5H94v1.5H91.58"></path>
  <path id="path3094_1_" fill="#D1D1D1" d="M100.31,6.71l-3.45-5.99h1.83l2.41,4.22l2.42-4.22h1.83  l-3.46,5.99v4.56h-1.59L100.31,6.71"></path>
  <path id="path3057_1_" fill="#D1D1D1" d="M8.81,19.54v9.06h3.1v1.5h-4.7V19.54H8.81"></path>
  <path id="path3059_1_" fill="#D1D1D1" d="M18.41,19.54v10.55h-1.59V19.54H18.41"></path>
  <path id="path3061_1_" fill="#D1D1D1" d="M24.12,30.09V19.54h1.59c0.71,0,1.27,0.05,1.69,0.16  c0.42,0.11,0.78,0.29,1.07,0.55c0.3,0.27,0.53,0.6,0.7,1.01c0.18,0.41,0.27,0.82,0.27,1.23c0,0.76-0.29,1.4-0.87,1.92  c0.56,0.19,1,0.53,1.33,1.01c0.33,0.47,0.49,1.03,0.49,1.65c0,0.83-0.29,1.52-0.88,2.09c-0.35,0.35-0.74,0.59-1.18,0.73  c-0.48,0.13-1.08,0.2-1.8,0.2L24.12,30.09 M25.71,24.07h0.5c0.59,0,1.02-0.13,1.3-0.39c0.28-0.27,0.42-0.65,0.42-1.16  c0-0.5-0.14-0.87-0.42-1.13C27.22,21.13,26.81,21,26.27,21h-0.56L25.71,24.07 M25.71,28.59h0.98c0.72,0,1.25-0.14,1.59-0.42  c0.36-0.31,0.53-0.69,0.53-1.16c0-0.46-0.17-0.84-0.51-1.15c-0.33-0.31-0.93-0.46-1.78-0.46h-0.81L25.71,28.59"></path>
  <path id="path3063_1_" fill="#D1D1D1" d="M39.15,25.59l3.27,4.5h-1.95l-3.02-4.32h-0.29v4.32  h-1.59V19.54h1.87c1.39,0,2.4,0.26,3.02,0.79c0.68,0.58,1.02,1.35,1.02,2.31c0,0.75-0.21,1.39-0.64,1.93  C40.41,25.1,39.85,25.44,39.15,25.59 M37.16,24.38h0.51c1.51,0,2.26-0.58,2.26-1.73c0-1.08-0.73-1.62-2.2-1.62h-0.57L37.16,24.38"></path>
  <path id="path3065_1_" fill="#D1D1D1" d="M53.36,27.53h-4.52l-1.18,2.56h-1.72l5.22-11.22  l5.04,11.22h-1.74L53.36,27.53 M52.71,26.03l-1.57-3.59l-1.64,3.59H52.71"></path>
  <path id="path3067_1_" fill="#D1D1D1" d="M64.27,25.59l3.27,4.5h-1.95l-3.02-4.32h-0.29v4.32  h-1.59V19.54h1.87c1.39,0,2.4,0.26,3.02,0.79c0.68,0.58,1.02,1.35,1.02,2.31c0,0.75-0.21,1.39-0.64,1.93  C65.53,25.1,64.97,25.44,64.27,25.59 M62.28,24.38h0.51c1.51,0,2.26-0.58,2.26-1.73c0-1.08-0.73-1.62-2.2-1.62h-0.57L62.28,24.38"></path>
  <path id="path3069_1_" fill="#D1D1D1" d="M73.87,19.54v10.55h-1.59V19.54H73.87"></path>
  <path id="path3071_1_" fill="#D1D1D1" d="M85.4,21.03h-4.23v2.54h4.11v1.5h-4.11v3.53h4.23v1.5  h-5.82V19.53h5.82V21.03"></path>
  <path id="path3073_1_" fill="#D1D1D1" d="M96.64,21.11l-1.29,0.77c-0.24-0.42-0.47-0.69-0.69-0.82  c-0.23-0.15-0.52-0.22-0.88-0.22c-0.44,0-0.81,0.12-1.1,0.38c-0.29,0.25-0.44,0.56-0.44,0.93c0,0.52,0.38,0.93,1.15,1.24l1.05,0.43  c0.86,0.35,1.48,0.77,1.88,1.27c0.4,0.5,0.59,1.11,0.59,1.83c0,0.97-0.32,1.77-0.97,2.41c-0.65,0.64-1.46,0.96-2.43,0.96  c-0.92,0-1.67-0.27-2.27-0.81c-0.59-0.54-0.95-1.31-1.1-2.29l1.61-0.35c0.07,0.62,0.2,1.05,0.38,1.28c0.33,0.46,0.81,0.68,1.44,0.68  c0.5,0,0.91-0.17,1.24-0.5c0.33-0.33,0.49-0.75,0.49-1.27c0-0.21-0.03-0.39-0.09-0.56c-0.05-0.17-0.14-0.33-0.27-0.47  c-0.12-0.15-0.27-0.28-0.47-0.4c-0.19-0.13-0.42-0.25-0.68-0.36l-1.02-0.42c-1.45-0.61-2.17-1.5-2.17-2.68  c0-0.79,0.3-1.46,0.91-1.99c0.61-0.54,1.36-0.81,2.26-0.81C95.01,19.33,95.96,19.92,96.64,21.11"></path>
</svg>
