<?xml version="1.0" encoding="UTF-8"?>
<svg id="close-quotes-Layer_2" data-name="close-quotes-Layer 2" xmlns="http://www.w3.org/2000/svg" viewBox="0 0 25.64 18.9">
  <defs>
    <style>
      .cls-1 {
        fill: #fff;
      }
    </style>
  </defs>
  <g id="close-quotes-Layer_1-2" data-name="close-quotes-Layer 1">
    <path class="cls-1" d="m12.07.27c.29.18.44.43.44.75,0,.27-.1.48-.31.61-.2.14-.56.25-1.05.34-1.81.5-3.28,1.29-4.39,2.38-1.11,1.09-1.67,2.47-1.67,4.15,0,.68.27,1.3.82,1.87.54.57,1.2.94,1.97,1.12.91.18,1.63.58,2.18,1.19.54.61.82,1.39.82,2.35,0,1.04-.45,1.95-1.36,2.72-.91.77-1.93,1.16-3.06,1.16-1.9,0-3.46-.65-4.66-1.94-1.2-1.29-1.8-2.96-1.8-5,0-2.27.55-4.32,1.67-6.15,1.11-1.84,2.53-3.26,4.25-4.28,1.72-1.02,3.4-1.53,5.03-1.53.45,0,.83.09,1.12.27Zm13.12,0c.29.18.44.43.44.75,0,.27-.1.48-.31.61-.2.14-.56.25-1.05.34-1.81.5-3.28,1.29-4.39,2.38-1.11,1.09-1.67,2.47-1.67,4.15,0,.68.27,1.3.82,1.87.54.57,1.2.94,1.97,1.12.91.18,1.63.58,2.18,1.19.54.61.82,1.39.82,2.35,0,1.04-.45,1.95-1.36,2.72-.91.77-1.93,1.16-3.06,1.16-1.9,0-3.46-.65-4.66-1.94-1.2-1.29-1.8-2.96-1.8-5,0-2.27.55-4.32,1.67-6.15,1.11-1.84,2.53-3.26,4.25-4.28,1.72-1.02,3.4-1.53,5.03-1.53.45,0,.83.09,1.12.27Z"/>
  </g>
</svg>
