<svg xmlns="http://www.w3.org/2000/svg" width="275.001" height="275.002" viewBox="0 0 275.001 275.002">
  <g id="round-mask" data-name="round-mask" transform="translate(3307 2994)">
	<path id="Subtraction_3" data-name="Subtraction 3" d="M275,275H0V137.655a138.191,138.191,0,0,0,2.784,26.994,136.283,136.283,0,0,0,20.619,49A137.433,137.433,0,0,0,83.693,263.3a136.342,136.342,0,0,0,25.722,7.985,138.367,138.367,0,0,0,55.233,0,136.283,136.283,0,0,0,49-20.619,137.434,137.434,0,0,0,49.648-60.29,136.341,136.341,0,0,0,7.985-25.722,138.367,138.367,0,0,0,0-55.234,136.282,136.282,0,0,0-20.619-49,137.433,137.433,0,0,0-60.29-49.648,136.341,136.341,0,0,0-25.722-7.985A138.045,138.045,0,0,0,137.655,0H275V275ZM0,136.409H0V0H136.411a138.187,138.187,0,0,0-26.995,2.784,136.283,136.283,0,0,0-49,20.619,137.432,137.432,0,0,0-49.648,60.29,136.341,136.341,0,0,0-7.985,25.722A138.043,138.043,0,0,0,0,136.409Z" transform="translate(-3307 -2994)" fill="#fff"/>
  </g>
</svg>
