<?xml version="1.0" encoding="iso-8859-1"?>
<!-- Generator: Adobe Illustrator 19.2.1, SVG Export Plug-In . SVG Version: 6.00 Build 0)  -->
<!DOCTYPE svg PUBLIC "-//W3C//DTD SVG 1.1//EN" "http://www.w3.org/Graphics/SVG/1.1/DTD/svg11.dtd">
<svg version="1.1" id="Layer_1" xmlns="http://www.w3.org/2000/svg" xmlns:xlink="http://www.w3.org/1999/xlink" x="0px" y="0px"
	 viewBox="0 0 356.816 65.202" style="enable-background:new 0 0 356.816 65.202;" xml:space="preserve">
<polygon style="fill:#FFFFFF;" points="13.717,0 13.708,21.157 15.899,21.152 7.277,44.05 0,44.041 0,65.202 70.63,65.202 
	70.63,44.012 63.302,44.003 54.755,21.17 56.9,21.18 56.9,0.006 "/>
<g>
	<path style="fill:#BD2036;" d="M35.302,7.906L50.43,47.134c0,0,1.939,4.773,5.087,4.773H44.502c0,0,0.553,0.081,1.104-0.838
		c0.316-0.524,0.05-1.312,0.05-1.312L42.25,41h-6.948h-6.918l-3.412,8.757c0,0-0.26,0.788,0.055,1.312
		c0.549,0.919,1.101,0.838,1.101,0.838H15.114c3.146,0,5.086-4.773,5.086-4.773L35.302,7.906z"/>
</g>
<polygon style="fill:#00275B;" points="35.316,7.857 48.957,7.857 48.957,13.313 43.29,13.313 58.19,51.715 62.596,51.715 
	62.596,57.365 44.13,57.365 44.13,51.868 38.946,51.868 38.946,62.647 68.093,62.647 68.093,46.576 61.548,46.587 51.056,18.616 
	54.351,18.616 54.351,2.554 35.316,2.554 16.281,2.554 16.281,18.616 19.577,18.616 9.084,46.552 2.539,46.576 2.539,62.647 
	31.688,62.647 31.688,51.868 26.502,51.868 26.502,57.365 8.035,57.365 8.035,51.715 12.442,51.715 27.342,13.313 21.675,13.313 
	21.675,7.857 "/>
<g>
	<path style="fill:#00275B;" d="M76.519,57.98c0.533,0.521,0.799,1.159,0.799,1.915c0,0.753-0.265,1.39-0.797,1.912
		c-0.532,0.52-1.183,0.78-1.955,0.78c-0.771,0-1.42-0.26-1.953-0.78c-0.53-0.522-0.796-1.159-0.796-1.912
		c0-0.756,0.267-1.394,0.798-1.915c0.533-0.522,1.183-0.781,1.951-0.781C75.336,57.199,75.986,57.458,76.519,57.98 M76.131,58.304
		c-0.424-0.433-0.947-0.649-1.565-0.649c-0.617,0-1.137,0.216-1.562,0.649c-0.426,0.433-0.638,0.964-0.638,1.591
		c0,0.626,0.212,1.157,0.638,1.589c0.425,0.431,0.945,0.647,1.562,0.647c0.616,0,1.137-0.216,1.564-0.647
		c0.426-0.432,0.639-0.963,0.639-1.589C76.769,59.268,76.557,58.737,76.131,58.304 M73.374,58.336h0.247h1.001
		c0.337,0,0.6,0.075,0.792,0.223c0.191,0.149,0.287,0.357,0.287,0.621c0,0.287-0.096,0.515-0.288,0.678
		c-0.143,0.121-0.327,0.199-0.552,0.229l0.896,1.364h-0.282H75.19l-0.807-1.346l-0.52,0.002v1.344h-0.244h-0.245V58.336z
		 M73.863,59.692h0.663c0.231,0,0.399-0.041,0.506-0.123c0.107-0.082,0.159-0.211,0.159-0.387c0-0.155-0.052-0.267-0.159-0.341
		c-0.107-0.072-0.275-0.109-0.506-0.109h-0.663V59.692z"/>
</g>
<polygon style="fill:#FFFFFF;" points="35.29,36.842 40.619,36.842 35.395,23.081 29.985,36.842 "/>
<rect x="86.4" y="0" style="fill:#00275B;" width="1.264" height="65.202"/>
<g>
	<path style="fill:#00275B;" d="M351.543,37.621c-1.28,0-2.386,0.169-3.318,0.505c-0.933,0.337-1.648,0.828-2.146,1.473
		c-0.498,0.644-0.747,1.406-0.747,2.285c0,0.674,0.144,1.247,0.432,1.721c0.288,0.474,0.769,0.911,1.443,1.311
		c0.674,0.401,1.626,0.82,2.856,1.26c1.65,0.596,2.661,1.025,3.032,1.289c0.479,0.342,0.718,0.82,0.718,1.435
		c0,0.635-0.327,1.165-0.981,1.59c-0.655,0.425-1.465,0.637-2.432,0.637c-0.674,0-1.311-0.061-1.912-0.183
		c-0.6-0.122-1.218-0.325-1.853-0.608c-0.635-0.283-1.352-0.674-2.153-1.172l1.084,3.12c0.85,0.313,1.562,0.523,2.139,0.63
		c0.576,0.107,1.284,0.161,2.124,0.161c1.416,0,2.649-0.2,3.698-0.6c1.05-0.401,1.861-0.977,2.432-1.729
		c0.571-0.752,0.857-1.616,0.857-2.593c0-1.074-0.41-1.997-1.23-2.768c-0.411-0.371-0.867-0.674-1.37-0.908
		c-0.503-0.235-1.365-0.552-2.585-0.953c-0.86-0.273-1.529-0.517-2.007-0.732c-0.479-0.215-0.826-0.444-1.04-0.688
		c-0.215-0.244-0.323-0.518-0.323-0.821c0-0.527,0.266-0.954,0.799-1.282c0.532-0.327,1.238-0.49,2.116-0.49
		c1.231,0,2.53,0.41,3.897,1.23v-2.695C354.106,37.763,352.929,37.621,351.543,37.621 M329.767,38.046h-2.036
		c0.41,0.313,0.691,0.571,0.842,0.776c0.152,0.205,0.249,0.454,0.293,0.747c0.044,0.293,0.066,0.826,0.066,1.597v8.364
		c0,0.762-0.022,1.292-0.066,1.59c-0.044,0.298-0.141,0.549-0.293,0.754c-0.151,0.205-0.432,0.464-0.842,0.776h5.244
		c-0.4-0.322-0.676-0.583-0.827-0.783c-0.152-0.2-0.252-0.462-0.301-0.784c-0.049-0.322-0.073-0.84-0.073-1.553v-6.386
		c0-0.801,0.141-1.402,0.425-1.802c0.312-0.43,0.732-0.767,1.26-1.011c0.527-0.244,1.108-0.366,1.743-0.366
		c0.654,0,1.272,0.124,1.853,0.373c0.581,0.249,1.023,0.574,1.325,0.975c0.244,0.293,0.42,0.686,0.528,1.179
		c0.107,0.493,0.161,1.159,0.161,1.999v5.039c0,0.684-0.025,1.192-0.073,1.524c-0.049,0.332-0.152,0.603-0.308,0.813
		c-0.156,0.21-0.439,0.471-0.849,0.783h5.288c-0.557-0.439-0.896-0.817-1.018-1.135c-0.123-0.317-0.184-0.979-0.184-1.985v-5.376
		c0-1.201-0.053-2.102-0.161-2.702c-0.107-0.601-0.303-1.126-0.586-1.575c-0.302-0.439-0.703-0.832-1.201-1.179
		c-0.498-0.347-1.072-0.613-1.721-0.799c-0.65-0.185-1.296-0.278-1.941-0.278c-0.937,0-1.758,0.183-2.461,0.549
		c-0.703,0.367-1.445,1.004-2.226,1.912v-2.637C331.256,37.846,330.636,38.046,329.767,38.046 M320.276,40.492
		c0.786,0.498,1.396,1.197,1.831,2.095c0.434,0.899,0.652,1.934,0.652,3.105c0,1.036-0.208,1.949-0.623,2.74
		c-0.415,0.791-0.998,1.406-1.75,1.845c-0.752,0.44-1.602,0.66-2.549,0.66c-0.713,0-1.38-0.144-2-0.433
		c-0.62-0.288-1.169-0.705-1.647-1.252c-0.479-0.547-0.845-1.187-1.099-1.919c-0.254-0.732-0.381-1.499-0.381-2.3
		c0-1.015,0.203-1.928,0.608-2.739c0.405-0.81,0.974-1.438,1.706-1.882c0.733-0.445,1.573-0.667,2.52-0.667
		C318.579,39.745,319.49,39.994,320.276,40.492 M315.918,37.812c-0.644,0.127-1.255,0.32-1.831,0.578
		c-0.576,0.259-1.123,0.584-1.641,0.974c-0.928,0.723-1.655,1.619-2.182,2.688c-0.528,1.07-0.791,2.19-0.791,3.362
		c0,1.426,0.349,2.725,1.047,3.897c0.698,1.171,1.67,2.092,2.915,2.761c1.245,0.669,2.624,1.003,4.138,1.003
		c1.553,0,2.976-0.347,4.27-1.04c1.294-0.693,2.31-1.638,3.047-2.834c0.737-1.196,1.106-2.517,1.106-3.963
		c0-1.054-0.21-2.067-0.63-3.039c-0.42-0.972-1.03-1.819-1.831-2.542c-1.474-1.357-3.301-2.036-5.478-2.036
		C317.275,37.621,316.563,37.685,315.918,37.812 M303.738,32.758c-0.391,0.381-0.586,0.84-0.586,1.377
		c0,0.556,0.188,1.028,0.564,1.413c0.376,0.386,0.837,0.579,1.384,0.579c0.567,0,1.038-0.193,1.414-0.579
		c0.376-0.385,0.564-0.857,0.564-1.413c0-0.528-0.186-0.984-0.557-1.37c-0.371-0.385-0.825-0.578-1.362-0.578
		C304.602,32.187,304.129,32.377,303.738,32.758 M304.749,38.046h-2.197c0.41,0.313,0.69,0.571,0.842,0.776
		c0.151,0.205,0.249,0.454,0.293,0.747c0.044,0.293,0.066,0.826,0.066,1.597v8.364c0,0.762-0.022,1.292-0.066,1.59
		c-0.044,0.298-0.142,0.549-0.293,0.754c-0.152,0.205-0.432,0.464-0.842,0.776h5.244c-0.401-0.322-0.677-0.583-0.828-0.783
		s-0.252-0.462-0.3-0.784c-0.049-0.322-0.074-0.84-0.074-1.553V37.445C306.223,37.846,305.608,38.046,304.749,38.046
		 M299.051,40.141c0.537,0,0.942,0.041,1.216,0.124c0.273,0.083,0.527,0.232,0.761,0.447v-2.857
		c-0.302,0.128-0.922,0.191-1.86,0.191h-2.461v-4.717h-1.23v0.396c0,1.777-0.391,3.076-1.172,3.896
		c-0.655,0.733-1.524,1.192-2.608,1.377v1.143h2.168v6.987c0,1.016,0.03,1.777,0.088,2.285c0.059,0.508,0.166,0.925,0.323,1.253
		c0.156,0.327,0.4,0.666,0.732,1.018c0.888,0.928,1.968,1.391,3.237,1.391c0.401,0,0.781-0.063,1.143-0.19l1.64-2.241
		c-0.468,0.175-0.908,0.263-1.318,0.263c-1.035,0-1.846-0.361-2.432-1.084c-0.224-0.283-0.376-0.625-0.454-1.025
		c-0.078-0.4-0.117-1.045-0.117-1.934v-6.723H299.051z M286.116,37.621c-1.367,0-2.57,0.181-3.61,0.542
		c-1.04,0.362-1.985,0.933-2.835,1.714c-1.719,1.582-2.578,3.501-2.578,5.757c0,1.055,0.215,2.043,0.645,2.966
		c0.429,0.923,1.035,1.719,1.816,2.388c0.781,0.669,1.692,1.184,2.732,1.545c1.04,0.361,2.19,0.542,3.45,0.542
		c1.718,0,3.066-0.19,4.043-0.571l1.86-3.091c-0.527,0.342-1.062,0.628-1.604,0.857c-0.542,0.23-1.082,0.398-1.619,0.505
		c-0.537,0.108-1.074,0.162-1.611,0.162c-1.221,0-2.322-0.257-3.303-0.769c-0.982-0.513-1.756-1.228-2.322-2.146
		c-0.567-0.918-0.85-1.934-0.85-3.047c0-1.035,0.218-1.951,0.652-2.747c0.435-0.796,1.06-1.408,1.875-1.838
		c0.815-0.43,1.736-0.645,2.761-0.645c1.582,0,2.901,0.513,3.955,1.538v-3.266C288.441,37.753,287.288,37.621,286.116,37.621
		 M265.104,40.434c0.733-0.616,1.636-0.923,2.71-0.923c2.236,0,3.579,1.181,4.028,3.545h-8.188
		C263.888,41.923,264.372,41.049,265.104,40.434 M275.168,44.521c0-0.997-0.181-1.917-0.542-2.762
		c-0.362-0.844-0.865-1.574-1.509-2.19c-0.645-0.615-1.406-1.093-2.285-1.435c-0.879-0.342-1.836-0.513-2.871-0.513
		c-1.055,0-2.029,0.154-2.923,0.462c-0.893,0.307-1.677,0.764-2.351,1.369c-0.518,0.469-0.972,1.023-1.362,1.663
		c-0.391,0.64-0.691,1.318-0.901,2.036c-0.21,0.718-0.315,1.443-0.315,2.175c0,1.494,0.378,2.832,1.135,4.014
		c0.757,1.182,1.822,2.1,3.194,2.754c1.372,0.654,2.917,0.981,4.636,0.981c0.508,0,1.013-0.024,1.516-0.073
		c0.503-0.049,0.981-0.13,1.436-0.242c0.454-0.112,0.93-0.261,1.428-0.446l1.714-3.018c-0.577,0.391-1.133,0.706-1.67,0.945
		c-0.537,0.239-1.111,0.415-1.721,0.527c-0.611,0.112-1.248,0.169-1.912,0.169c-1.24,0-2.334-0.235-3.281-0.704
		c-0.948-0.468-1.68-1.147-2.198-2.036c-0.517-0.888-0.805-1.943-0.864-3.164h11.646V44.521z M257.414,51.515
		c-0.122-0.317-0.183-0.979-0.183-1.985V31.205c-0.371,0.401-0.991,0.601-1.86,0.601h-2.183c0.41,0.312,0.691,0.569,0.842,0.769
		s0.249,0.447,0.293,0.739c0.044,0.293,0.066,0.831,0.066,1.612V49.53c0,0.762-0.022,1.292-0.066,1.59
		c-0.044,0.298-0.142,0.549-0.293,0.754c-0.151,0.205-0.432,0.464-0.842,0.776h5.244C257.875,52.211,257.536,51.833,257.414,51.515
		 M250.285,51.515c-0.122-0.317-0.183-0.979-0.183-1.985V31.205c-0.371,0.401-0.991,0.601-1.86,0.601h-2.183
		c0.41,0.312,0.691,0.569,0.843,0.769c0.151,0.2,0.249,0.447,0.293,0.739c0.043,0.293,0.065,0.831,0.065,1.612V49.53
		c0,0.762-0.022,1.292-0.065,1.59c-0.044,0.298-0.142,0.549-0.293,0.754c-0.152,0.205-0.433,0.464-0.843,0.776h5.244
		C250.746,52.211,250.406,51.833,250.285,51.515 M238.675,40.492c0.786,0.498,1.397,1.197,1.831,2.095
		c0.435,0.899,0.652,1.934,0.652,3.105c0,1.036-0.207,1.949-0.622,2.74c-0.416,0.791-0.999,1.406-1.751,1.845
		c-0.752,0.44-1.602,0.66-2.549,0.66c-0.713,0-1.379-0.144-1.999-0.433c-0.62-0.288-1.17-0.705-1.648-1.252
		c-0.479-0.547-0.845-1.187-1.099-1.919c-0.254-0.732-0.381-1.499-0.381-2.3c0-1.015,0.203-1.928,0.608-2.739
		c0.405-0.81,0.974-1.438,1.707-1.882c0.732-0.445,1.572-0.667,2.519-0.667C236.979,39.745,237.889,39.994,238.675,40.492
		 M234.317,37.812c-0.644,0.127-1.255,0.32-1.831,0.578c-0.576,0.259-1.123,0.584-1.64,0.974c-0.928,0.723-1.656,1.619-2.183,2.688
		c-0.527,1.07-0.791,2.19-0.791,3.362c0,1.426,0.349,2.725,1.047,3.897c0.699,1.171,1.67,2.092,2.916,2.761
		c1.245,0.669,2.624,1.003,4.138,1.003c1.552,0,2.976-0.347,4.27-1.04c1.294-0.693,2.309-1.638,3.047-2.834
		c0.737-1.196,1.106-2.517,1.106-3.963c0-1.054-0.211-2.067-0.63-3.039c-0.42-0.972-1.031-1.819-1.831-2.542
		c-1.475-1.357-3.301-2.036-5.479-2.036C235.675,37.621,234.962,37.685,234.317,37.812 M219.274,31.293
		c-2.119,0-4.036,0.474-5.749,1.421c-1.714,0.947-3.055,2.258-4.021,3.933c-0.967,1.675-1.451,3.547-1.451,5.618
		c0,1.601,0.281,3.074,0.843,4.416c0.561,1.343,1.377,2.5,2.446,3.472s2.349,1.716,3.838,2.234c1.489,0.517,3.113,0.776,4.871,0.776
		c0.624,0,1.203-0.032,1.735-0.095c0.533-0.064,1.053-0.161,1.56-0.293c0.508-0.132,1.05-0.315,1.626-0.549l1.597-3.692
		c-1.416,0.752-2.651,1.287-3.706,1.604c-1.055,0.318-2.134,0.476-3.237,0.476c-1.465,0-2.808-0.393-4.029-1.179
		c-1.22-0.786-2.182-1.858-2.885-3.215c-0.703-1.358-1.055-2.852-1.055-4.483c0-1.503,0.32-2.844,0.959-4.021
		c0.64-1.176,1.536-2.092,2.688-2.746c1.153-0.654,2.456-0.982,3.912-0.982c0.966,0,1.904,0.139,2.812,0.418
		c0.908,0.278,1.89,0.72,2.944,1.325v-3.632C222.765,31.562,220.867,31.293,219.274,31.293 M197.425,51.515
		c-0.122-0.317-0.183-0.979-0.183-1.985V31.205c-0.371,0.401-0.991,0.601-1.86,0.601h-2.183c0.41,0.312,0.691,0.569,0.843,0.769
		c0.151,0.2,0.249,0.447,0.293,0.739c0.044,0.293,0.066,0.831,0.066,1.612V49.53c0,0.762-0.022,1.292-0.066,1.59
		s-0.142,0.549-0.293,0.754c-0.152,0.205-0.433,0.464-0.843,0.776h5.244C197.887,52.211,197.548,51.833,197.425,51.515
		 M186.908,51.024c0.161,0.44,0.481,0.811,0.959,1.114c0.381,0.234,0.782,0.398,1.202,0.49c0.419,0.093,1.01,0.169,1.772,0.227
		l1.377-2.065c-0.869-0.029-1.499-0.2-1.89-0.513c-0.361-0.263-0.586-0.549-0.673-0.857c-0.088-0.307-0.132-0.91-0.132-1.809v-4.087
		c0-1.162-0.037-1.97-0.11-2.424c-0.073-0.454-0.247-0.906-0.52-1.355c-0.889-1.416-2.671-2.124-5.347-2.124
		c-0.762,0-1.494,0.069-2.197,0.205l-2.095,3.179c1.035-0.498,1.851-0.833,2.446-1.004c0.596-0.17,1.221-0.256,1.875-0.256
		c0.586,0,1.111,0.083,1.575,0.249c0.464,0.166,0.823,0.403,1.077,0.711c0.254,0.307,0.381,0.661,0.381,1.062
		c0,0.566-0.237,0.996-0.711,1.289c-0.474,0.293-1.428,0.581-2.864,0.864c-1.982,0.381-3.369,0.791-4.16,1.23
		c-0.537,0.284-0.967,0.721-1.289,1.311c-0.322,0.591-0.483,1.214-0.483,1.868c0,1.377,0.537,2.549,1.611,3.516
		c0.918,0.82,2.168,1.23,3.75,1.23c0.615,0,1.196-0.063,1.743-0.19l1.861-2.359c-0.899,0.274-1.69,0.411-2.373,0.411
		c-1.055,0-1.878-0.23-2.469-0.689s-0.886-1.089-0.886-1.89c0-1.249,0.762-2.06,2.285-2.431c1.143-0.264,1.878-0.44,2.205-0.528
		c0.327-0.087,0.625-0.178,0.893-0.271c0.269-0.092,0.584-0.227,0.945-0.402v4.087C186.665,49.848,186.746,50.585,186.908,51.024
		 M171.699,32.758c-0.391,0.381-0.586,0.84-0.586,1.377c0,0.556,0.188,1.028,0.564,1.413c0.375,0.386,0.837,0.579,1.384,0.579
		c0.566,0,1.037-0.193,1.413-0.579c0.376-0.385,0.564-0.857,0.564-1.413c0-0.528-0.185-0.984-0.556-1.37
		c-0.371-0.385-0.826-0.578-1.362-0.578C172.562,32.187,172.089,32.377,171.699,32.758 M172.708,38.046h-2.197
		c0.41,0.313,0.691,0.571,0.842,0.776c0.152,0.205,0.249,0.454,0.293,0.747c0.044,0.293,0.066,0.826,0.066,1.597v8.364
		c0,0.762-0.022,1.292-0.066,1.59c-0.044,0.298-0.141,0.549-0.293,0.754c-0.151,0.205-0.432,0.464-0.842,0.776h5.244
		c-0.4-0.322-0.676-0.583-0.827-0.783c-0.152-0.2-0.252-0.462-0.301-0.784c-0.049-0.322-0.073-0.84-0.073-1.553V37.445
		C174.184,37.846,173.568,38.046,172.708,38.046 M164.275,37.621c-1.367,0-2.571,0.181-3.611,0.542
		c-1.04,0.362-1.985,0.933-2.834,1.714c-1.719,1.582-2.578,3.501-2.578,5.757c0,1.055,0.214,2.043,0.644,2.966
		c0.43,0.923,1.035,1.719,1.817,2.388c0.781,0.669,1.691,1.184,2.731,1.545c1.041,0.361,2.19,0.542,3.45,0.542
		c1.719,0,3.067-0.19,4.043-0.571l1.861-3.091c-0.528,0.342-1.062,0.628-1.604,0.857c-0.542,0.23-1.082,0.398-1.619,0.505
		c-0.537,0.108-1.075,0.162-1.611,0.162c-1.221,0-2.322-0.257-3.304-0.769c-0.981-0.513-1.755-1.228-2.321-2.146
		c-0.567-0.918-0.85-1.934-0.85-3.047c0-1.035,0.217-1.951,0.652-2.747c0.434-0.796,1.059-1.408,1.875-1.838
		c0.815-0.43,1.736-0.645,2.761-0.645c1.582,0,2.9,0.513,3.955,1.538v-3.266C166.6,37.753,165.447,37.621,164.275,37.621
		 M143.263,40.434c0.732-0.616,1.635-0.923,2.71-0.923c2.236,0,3.579,1.181,4.028,3.545h-8.188
		C142.048,41.923,142.531,41.049,143.263,40.434 M153.326,44.521c0-0.997-0.181-1.917-0.542-2.762
		c-0.361-0.844-0.864-1.574-1.509-2.19c-0.644-0.615-1.406-1.093-2.285-1.435c-0.879-0.342-1.836-0.513-2.871-0.513
		c-1.054,0-2.029,0.154-2.922,0.462c-0.894,0.307-1.677,0.764-2.351,1.369c-0.518,0.469-0.972,1.023-1.363,1.663
		c-0.39,0.64-0.69,1.318-0.9,2.036c-0.211,0.718-0.315,1.443-0.315,2.175c0,1.494,0.378,2.832,1.135,4.014
		c0.757,1.182,1.821,2.1,3.193,2.754c1.372,0.654,2.918,0.981,4.637,0.981c0.507,0,1.013-0.024,1.516-0.073
		c0.502-0.049,0.981-0.13,1.435-0.242s0.93-0.261,1.428-0.446l1.714-3.018c-0.576,0.391-1.133,0.706-1.67,0.945
		c-0.537,0.239-1.111,0.415-1.721,0.527s-1.247,0.169-1.911,0.169c-1.241,0-2.335-0.235-3.282-0.704
		c-0.947-0.468-1.679-1.147-2.197-2.036c-0.518-0.888-0.806-1.943-0.864-3.164h11.645V44.521z M128.65,53.075
		c1.426,0,2.722-0.347,3.889-1.04c1.167-0.693,2.08-1.643,2.74-2.849c0.659-1.206,0.988-2.561,0.988-4.065
		c0-1.064-0.175-2.053-0.527-2.966c-0.352-0.913-0.845-1.697-1.479-2.351c-0.665-0.664-1.473-1.194-2.425-1.59
		c-0.952-0.395-1.902-0.593-2.849-0.593c-0.674,0-1.343,0.091-2.007,0.271c-0.664,0.181-1.267,0.442-1.809,0.784
		s-1.013,0.752-1.413,1.23v-2.461c-0.391,0.401-1.011,0.601-1.861,0.601h-2.182c0.41,0.313,0.69,0.571,0.842,0.776
		c0.151,0.205,0.249,0.454,0.293,0.747c0.044,0.293,0.066,0.826,0.066,1.597v14.898c0,0.742-0.032,1.281-0.095,1.618
		c-0.064,0.337-0.174,0.606-0.33,0.806c-0.156,0.2-0.415,0.412-0.776,0.637h5.244c-0.372-0.225-0.635-0.439-0.791-0.645
		c-0.157-0.205-0.264-0.476-0.323-0.812c-0.058-0.337-0.087-0.872-0.087-1.604V44.403c0-0.712,0.056-1.289,0.168-1.728
		c0.112-0.44,0.315-0.845,0.608-1.216c0.43-0.527,0.974-0.945,1.633-1.252c0.659-0.308,1.345-0.462,2.058-0.462
		c0.957,0,1.797,0.24,2.52,0.718c0.722,0.479,1.284,1.155,1.684,2.029c0.401,0.874,0.601,1.858,0.601,2.951
		c0,1.143-0.195,2.129-0.586,2.959c-0.391,0.831-0.955,1.46-1.692,1.89c-0.737,0.43-1.628,0.645-2.673,0.645
		c-0.615,0-1.182-0.064-1.699-0.191c-0.518-0.127-1.133-0.351-1.846-0.674l1.714,2.578C127.039,52.934,127.84,53.075,128.65,53.075
		 M111.435,31.293c-1.592,0-2.981,0.23-4.167,0.688c-1.187,0.46-2.103,1.111-2.747,1.956c-0.645,0.845-0.967,1.834-0.967,2.966
		c0,0.674,0.149,1.338,0.447,1.993c0.298,0.654,0.696,1.211,1.194,1.669c0.459,0.42,1.005,0.813,1.64,1.18
		c0.635,0.366,1.548,0.813,2.74,1.34c1.308,0.596,2.236,1.043,2.783,1.34c0.547,0.298,0.971,0.589,1.274,0.872
		c0.694,0.625,1.04,1.377,1.04,2.256c0,0.615-0.207,1.167-0.622,1.655c-0.415,0.488-0.989,0.874-1.721,1.157
		c-0.733,0.284-1.529,0.425-2.388,0.425c-2.52,0-4.839-0.84-6.958-2.519l0.952,3.925c1.006,0.352,1.938,0.606,2.798,0.762
		c0.859,0.156,1.787,0.234,2.783,0.234c2.803,0,5.015-0.781,6.636-2.343c0.605-0.596,1.081-1.265,1.428-2.007s0.52-1.504,0.52-2.285
		c0-0.684-0.149-1.323-0.447-1.919c-0.298-0.596-0.72-1.104-1.267-1.524c-0.459-0.39-0.989-0.747-1.589-1.069
		c-0.601-0.322-1.609-0.815-3.025-1.48c-1.318-0.615-2.3-1.12-2.944-1.516c-0.645-0.395-1.097-0.791-1.355-1.186
		c-0.259-0.396-0.389-0.857-0.389-1.384c0-0.879,0.384-1.595,1.15-2.146c0.767-0.552,1.775-0.828,3.025-0.828
		c0.928,0,1.824,0.178,2.688,0.535c0.864,0.356,1.638,0.871,2.322,1.545v-3.604C114.638,31.523,113.027,31.293,111.435,31.293"/>
	<path style="fill:#00275B;" d="M241.861,21.77c1.816,0,3.06-1.033,3.06-2.654c0-1.785-1.304-2.355-2.474-2.865
		c-1.156-0.51-1.756-0.75-1.756-1.621c0-0.855,0.585-1.35,1.681-1.35c0.84,0,1.665,0.255,2.114,0.48v-1.169
		c-0.344-0.12-1.244-0.404-2.174-0.404c-1.741,0-2.955,0.823-2.955,2.458c0,1.561,0.974,2.131,1.964,2.581
		c1.366,0.63,2.191,0.87,2.191,1.95c0,1.021-0.72,1.501-1.876,1.501c-0.84,0-1.769-0.315-2.339-0.57v1.184
		C239.912,21.56,240.826,21.77,241.861,21.77 M232.368,21.65h5.113v-1.108h-3.78v-3.347h3.225v-1.063h-3.225v-2.717h3.78v-1.108
		h-5.113V21.65z M228.183,21.65h1.333v-9.343h-1.333V21.65z M220.786,16.552v-3.197h1.471c1.201,0,1.756,0.54,1.756,1.606
		c0,0.961-0.585,1.591-1.756,1.591H220.786z M225.781,21.74c0.195,0,0.36-0.015,0.54-0.06v-1.048c-0.12,0.015-0.225,0.03-0.33,0.03
		c-0.3,0-0.555-0.105-0.81-0.495l-1.873-2.777c1.424-0.359,2.068-1.408,2.068-2.444c0-1.666-1.093-2.639-2.819-2.639h-3.104v9.343
		h1.333v-4.125h1.171l2.101,3.21C224.537,21.485,225.077,21.74,225.781,21.74 M209.357,21.65h1.35l0.81-2.325h3.96l0.78,2.325h1.455
		l-3.315-9.343h-1.575L209.357,21.65z M211.892,18.232l0.99-2.835c0.24-0.675,0.525-1.515,0.645-1.98h0.03
		c0.09,0.42,0.345,1.17,0.555,1.815l1.005,3H211.892z M203.072,16.552v-3.197h1.47c1.201,0,1.756,0.54,1.756,1.606
		c0,0.961-0.585,1.591-1.756,1.591H203.072z M208.067,21.74c0.195,0,0.36-0.015,0.54-0.06v-1.048c-0.12,0.015-0.225,0.03-0.33,0.03
		c-0.3,0-0.555-0.105-0.81-0.495l-1.874-2.777c1.424-0.359,2.069-1.408,2.069-2.444c0-1.666-1.094-2.639-2.819-2.639h-3.105v9.343
		h1.334v-4.125h1.17l2.101,3.21C206.823,21.485,207.362,21.74,208.067,21.74 M194.522,16.267v-2.882h1.591
		c1.155,0,1.665,0.57,1.665,1.396c0,0.946-0.525,1.486-1.68,1.486H194.522z M194.522,20.572V17.27h1.651
		c1.23,0,1.786,0.6,1.786,1.681c0,1.066-0.616,1.621-1.816,1.621H194.522z M193.189,21.65h3.149c1.92,0,3.074-1.093,3.074-2.684
		c0-1.276-0.794-2.025-1.829-2.22v-0.03c0.795-0.195,1.544-0.959,1.544-2.04c0-1.441-0.989-2.369-2.909-2.369h-3.029V21.65z
		 M189.004,21.65h1.333v-9.343h-1.333V21.65z M181.999,21.65h4.933v-1.093h-3.6v-8.25h-1.333V21.65z M172.384,21.65h1.334v-3.659
		l3.075-5.669h-1.395l-2.265,4.469l-2.324-4.469h-1.455l3.03,5.669V21.65z M164.885,21.65h1.333v-8.235h2.7v-1.108h-6.613v1.108
		h2.58V21.65z M159.275,21.65h1.333v-9.343h-1.333V21.65z M153.964,21.77c1.816,0,3.059-1.033,3.059-2.654
		c0-1.785-1.303-2.355-2.474-2.865c-1.156-0.51-1.756-0.75-1.756-1.621c0-0.855,0.585-1.35,1.681-1.35
		c0.841,0,1.665,0.255,2.115,0.48v-1.169c-0.345-0.12-1.244-0.404-2.175-0.404c-1.741,0-2.954,0.823-2.954,2.458
		c0,1.561,0.974,2.131,1.964,2.581c1.365,0.63,2.191,0.87,2.191,1.95c0,1.021-0.72,1.501-1.876,1.501
		c-0.841,0-1.77-0.315-2.339-0.57v1.184C152.014,21.56,152.928,21.77,153.964,21.77 M144.573,16.552v-3.197h1.471
		c1.201,0,1.756,0.54,1.756,1.606c0,0.961-0.585,1.591-1.756,1.591H144.573z M149.568,21.74c0.195,0,0.36-0.015,0.54-0.06v-1.048
		c-0.12,0.015-0.225,0.03-0.33,0.03c-0.3,0-0.555-0.105-0.809-0.495l-1.874-2.777c1.424-0.359,2.068-1.408,2.068-2.444
		c0-1.666-1.093-2.639-2.819-2.639h-3.104v9.343h1.333v-4.125h1.171l2.101,3.21C148.324,21.485,148.864,21.74,149.568,21.74
		 M135.8,21.65h5.113v-1.108h-3.78v-3.347h3.225v-1.063h-3.225v-2.717h3.78v-1.108H135.8V21.65z M129.365,21.65h1.44l3.33-9.343
		h-1.35l-1.995,5.879c-0.24,0.69-0.525,1.694-0.645,2.159h-0.03c-0.105-0.465-0.39-1.454-0.615-2.159l-1.935-5.879h-1.47
		L129.365,21.65z M123.036,21.65h1.333v-9.343h-1.333V21.65z M112.971,21.65h1.213v-6.179c0-0.495-0.03-0.855-0.03-1.26h0.03
		c0.225,0.45,0.495,0.96,0.78,1.425l3.767,6.014h1.423v-9.343h-1.213v6.179c0,0.495,0.015,0.899,0.03,1.319h-0.045
		c-0.21-0.465-0.525-1.049-0.796-1.469l-3.766-6.029h-1.393V21.65z M106.73,21.77c1.996,0,3.479-1.093,3.479-3.358v-6.105h-1.258
		v5.94c0,1.515-0.72,2.415-2.221,2.415s-2.191-0.9-2.191-2.415v-5.94h-1.333v6.105C103.206,20.677,104.749,21.77,106.73,21.77"/>
</g>
</svg>
