<?xml version="1.0" standalone="no"?>
<!DOCTYPE svg PUBLIC "-//W3C//DTD SVG 20010904//EN"
 "http://www.w3.org/TR/2001/REC-SVG-20010904/DTD/svg10.dtd">
<svg version="1.0" xmlns="http://www.w3.org/2000/svg"
 width="1200.000000pt" height="1200.000000pt" viewBox="0 0 1200.000000 1200.000000"
 preserveAspectRatio="xMidYMid meet">
<metadata>
Created by potrace 1.14, written by Peter Selinger 2001-2017
</metadata>
<g transform="translate(0.000000,1200.000000) scale(0.100000,-0.100000)"
fill="#000000" stroke="none">
<path d="M0 6000 l0 -6000 6000 0 6000 0 0 6000 0 6000 -6000 0 -6000 0 0
-6000z m9638 3596 c118 -36 242 -100 277 -143 27 -34 29 -44 27 -106 -2 -86
-25 -223 -51 -302 -11 -33 -27 -89 -36 -125 -18 -71 -57 -175 -86 -230 -24
-45 -56 -138 -74 -217 -8 -35 -31 -94 -50 -133 -19 -38 -35 -74 -35 -80 0 -6
-11 -35 -24 -63 -33 -72 -76 -184 -76 -201 0 -7 -11 -39 -25 -70 -34 -78 -75
-196 -75 -217 0 -10 -6 -38 -14 -61 -8 -24 -33 -110 -56 -193 -23 -82 -55
-178 -71 -213 -16 -35 -29 -66 -29 -69 0 -3 -25 -55 -55 -117 -104 -212 -262
-368 -489 -483 -39 -19 -92 -42 -118 -50 -67 -19 -63 -38 21 -101 39 -29 73
-52 77 -52 7 0 51 -40 143 -130 95 -93 168 -203 185 -280 3 -14 7 -95 10 -180
2 -85 10 -168 16 -185 7 -16 12 -45 11 -63 0 -20 5 -35 14 -38 8 -3 24 -24 36
-47 18 -35 20 -52 15 -101 -3 -32 -10 -64 -15 -70 -4 -6 -14 -29 -21 -51 -7
-22 -23 -60 -35 -85 -42 -83 -76 -182 -91 -263 -25 -130 -49 -166 -161 -246
-54 -39 -117 -125 -144 -197 l-21 -57 20 -76 c26 -96 39 -125 107 -235 62
-101 121 -168 331 -383 239 -243 287 -343 207 -429 -75 -81 -242 7 -346 184
-18 30 -39 66 -48 80 -9 15 -19 39 -22 53 -8 30 -140 207 -171 229 -12 8 -39
34 -60 57 -60 66 -131 107 -180 106 -56 -3 -122 -22 -140 -42 -8 -9 -17 -46
-21 -86 -8 -93 -11 -103 -45 -120 -45 -23 -66 -18 -101 25 -36 45 -100 80
-145 80 -16 0 -63 -9 -104 -20 -129 -35 -171 -31 -278 25 -72 37 -101 58 -127
94 -19 25 -40 53 -48 61 -28 33 -67 97 -83 140 -21 55 -76 133 -113 159 -14
11 -53 26 -86 35 -57 15 -132 59 -147 87 -16 30 -62 150 -103 264 -37 105 -45
144 -64 312 -19 175 -30 231 -76 393 -9 30 -21 80 -26 110 -15 77 -97 320
-118 350 -10 14 -21 36 -25 48 -6 19 -78 155 -106 202 -51 83 -118 200 -127
221 -13 31 -82 139 -88 139 -8 0 4 -82 20 -130 8 -25 23 -94 34 -155 28 -152
86 -337 138 -440 38 -74 114 -327 116 -385 8 -253 -124 -269 -255 -30 -19 36
-46 97 -58 135 -12 39 -33 90 -46 115 -13 25 -53 133 -88 241 -71 219 -122
316 -244 469 -7 10 -32 -35 -27 -49 3 -8 12 -62 20 -120 25 -174 32 -210 75
-351 131 -430 235 -721 308 -860 31 -58 78 -148 105 -200 27 -52 57 -104 67
-115 47 -52 100 -198 100 -275 0 -47 -24 -126 -54 -181 -14 -24 -32 -73 -41
-108 -19 -73 -15 -95 41 -271 38 -117 44 -208 20 -282 -8 -24 -16 -54 -20 -68
-8 -37 -62 -97 -93 -104 -16 -3 -48 -10 -73 -15 -25 -5 -79 -25 -121 -44 -81
-38 -109 -72 -109 -134 0 -29 -35 -86 -67 -111 -29 -21 -52 -13 -101 33 -77
74 -159 83 -226 24 -63 -54 -82 -126 -92 -329 -5 -99 3 -247 23 -423 6 -56
-15 -121 -54 -167 -37 -44 -68 -40 -130 17 -71 67 -83 114 -78 303 2 80 9 168
15 195 17 73 4 350 -20 419 -22 64 -99 172 -145 203 -50 34 -125 49 -173 35
-114 -34 -205 9 -267 128 -21 41 -85 110 -102 110 -4 0 -16 8 -27 19 -12 10
-67 33 -124 51 -89 28 -111 40 -158 83 -55 50 -94 110 -94 144 0 32 -41 126
-71 164 -16 21 -46 62 -66 91 -20 29 -39 55 -43 58 -16 11 -54 99 -76 177 -23
77 -24 94 -19 238 4 85 10 169 16 187 5 18 9 45 9 60 0 16 14 57 31 94 17 36
28 68 25 71 -6 7 -24 1 -155 -47 -77 -28 -95 -31 -215 -32 -96 0 -159 5 -236
20 -129 26 -197 51 -378 141 -169 83 -218 112 -295 168 -32 23 -68 45 -80 49
-12 4 -24 10 -27 13 -5 7 -183 125 -305 202 -38 24 -83 56 -100 70 -16 14 -77
52 -135 84 -58 31 -112 63 -120 69 -8 7 -42 27 -75 46 -32 18 -82 49 -110 70
-27 21 -108 73 -180 116 -71 43 -132 81 -135 85 -3 3 -23 17 -45 31 -22 14
-62 45 -90 70 -27 24 -72 60 -100 79 -133 94 -186 168 -187 257 -1 83 77 231
177 340 42 45 82 82 88 82 6 0 20 9 31 19 23 21 191 107 271 139 28 11 66 29
85 40 47 27 466 162 504 162 17 0 49 7 72 14 52 19 210 43 394 62 204 20 967
5 1008 -20 5 -3 42 -8 83 -11 41 -3 91 -11 112 -16 21 -6 77 -14 125 -20 104
-11 180 -27 367 -73 77 -19 178 -42 225 -51 85 -16 402 -91 515 -121 33 -8
119 -31 190 -49 72 -19 148 -41 170 -49 46 -17 74 -19 94 -7 12 8 12 14 -2 42
-15 31 -15 35 0 52 15 16 15 20 1 45 -36 62 -29 111 21 156 12 11 21 25 21 32
0 10 -73 79 -155 146 -135 110 -359 233 -615 338 -224 91 -311 150 -388 262
-47 69 -49 189 -2 128 11 -14 20 -29 20 -34 1 -33 56 -120 102 -159 45 -38
286 -167 313 -167 12 0 313 -152 362 -183 24 -15 45 -27 49 -27 6 0 129 -85
151 -105 6 -5 25 -21 42 -34 18 -13 60 -50 94 -82 76 -71 97 -75 97 -19 0 46
12 51 36 14 11 -16 24 -24 38 -22 17 2 22 13 28 56 12 84 85 308 175 537 30
77 74 190 98 250 91 232 136 417 123 507 -12 92 6 103 32 20 11 -36 12 -63 2
-145 -11 -102 -32 -174 -92 -317 -17 -41 -38 -93 -46 -115 -8 -22 -18 -49 -24
-60 -9 -19 -104 -274 -155 -415 -38 -105 -53 -160 -68 -243 -16 -86 -18 -82
47 -91 60 -8 86 -39 86 -101 0 -59 24 -90 76 -101 27 -5 35 0 78 50 26 30 67
81 90 113 23 32 51 69 63 83 12 14 52 63 89 110 36 47 69 87 73 90 3 3 26 30
51 60 25 30 52 61 60 70 8 9 39 46 69 83 30 37 58 67 62 67 4 0 21 18 37 40
16 23 60 73 98 113 37 40 94 106 127 147 33 41 94 113 137 160 42 47 117 130
167 185 211 233 428 443 569 552 16 12 55 42 86 68 31 25 60 45 65 45 4 0 27
17 49 38 65 58 76 67 181 134 54 35 123 75 153 87 30 13 62 29 71 37 8 8 20
14 25 14 5 0 31 12 59 26 27 15 85 39 130 54 44 15 98 36 120 48 55 27 161 57
275 76 137 23 159 24 327 20 122 -4 168 -9 231 -28z"/>
</g>
</svg>
