<svg id="ec78bd97-ef24-4d4a-a4dd-493093b49cc2" data-name="svg5081" xmlns="http://www.w3.org/2000/svg" viewBox="0 0 856.58 51.48"><title>Artboard 1</title><g id="a873888a-f186-4dba-881a-ad07bbe07760" data-name="text3122"><path id="27864d95-47cd-4e33-b4e5-7e8d6ebc153e" data-name="path3997" d="M27.64,9.89l-5.5,3.31A9.54,9.54,0,0,0,19.2,9.66a6.78,6.78,0,0,0-3.75-.95,6.87,6.87,0,0,0-4.68,1.62,5.07,5.07,0,0,0-1.86,4q0,3.34,4.89,5.38l4.48,1.86a19.05,19.05,0,0,1,8,5.49A12.41,12.41,0,0,1,28.8,35,14.13,14.13,0,0,1,14.34,49.53,13.69,13.69,0,0,1,4.68,46Q.93,42.5,0,36.12l6.87-1.54q.46,4,1.63,5.55a7,7,0,0,0,6.11,3,7,7,0,0,0,5.27-2.16A7.52,7.52,0,0,0,22,35.47,7.37,7.37,0,0,0,21.59,33a5.71,5.71,0,0,0-1.13-2,8.3,8.3,0,0,0-2-1.74,18.31,18.31,0,0,0-2.91-1.57l-4.34-1.83Q2,21.92,2,14.3A11.06,11.06,0,0,1,5.88,5.7a13.86,13.86,0,0,1,9.63-3.48q7.77,0,12.13,7.68" style="fill:#666;fill-opacity:0.49779999256134033"/><path id="591b3c42-f5de-46a3-857b-367f8447d516" data-name="path3999" d="M55.6,30.18V48.7H48.82V3.1H56.5A34.18,34.18,0,0,1,65,3.9a11.39,11.39,0,0,1,5.12,3A13.08,13.08,0,0,1,74,16.6a12.59,12.59,0,0,1-4.13,9.92q-4.13,3.66-11.14,3.66H55.6m0-6.38h2.53q9.34,0,9.34-7.29,0-7.06-9.63-7.06H55.6V23.8" style="fill:#666;fill-opacity:0.49779999256134033"/><path id="e37c1502-d9f0-4050-bb4b-b736a9ee94eb" data-name="path4001" d="M117.64,9.57h-18v11h17.49V27H99.63V42.23h18V48.7H92.85V3.1h24.79V9.57" style="fill:#666;fill-opacity:0.49779999256134033"/><path id="6a0754d7-5304-4dc5-80da-6836dff66f7d" data-name="path4003" d="M171.58,5.55V13.7q-5.88-5-12.16-5a15.38,15.38,0,0,0-11.67,5A17.17,17.17,0,0,0,143,26a16.75,16.75,0,0,0,4.77,12.11,15.64,15.64,0,0,0,11.7,4.93,14.16,14.16,0,0,0,6.08-1.18,17,17,0,0,0,2.88-1.59,33.23,33.23,0,0,0,3.17-2.42v8.3a24.21,24.21,0,0,1-12.22,3.34,22.38,22.38,0,0,1-16.44-6.82,22.79,22.79,0,0,1-6.78-16.6,23.63,23.63,0,0,1,5.67-15.53,22.45,22.45,0,0,1,18.07-8.36,22.68,22.68,0,0,1,11.7,3.34" style="fill:#666;fill-opacity:0.49779999256134033"/><path id="8ef35542-b01e-46cb-a5c9-b9daead9124e" data-name="path4005" d="M198.73,3.1V48.7H192V3.1h6.78" style="fill:#666;fill-opacity:0.49779999256134033"/><path id="287beb39-ee59-4bb2-818d-d0f2139dc48b" data-name="path4007" d="M247.7,37.62H228.47l-5,11.07h-7.3L238.39.24,259.84,48.7h-7.42L247.7,37.62m-2.76-6.47-6.66-15.5-7,15.5h13.65" style="fill:#666;fill-opacity:0.49779999256134033"/><path id="80f2ce66-ffbc-4740-8ef7-faba26f8aee8" data-name="path4009" d="M284,3.1V42.23H297.2V48.7h-20V3.1H284" style="fill:#666;fill-opacity:0.49779999256134033"/><path id="e6c7786e-ca0c-48e6-b052-6964105b233d" data-name="path4011" d="M378.79,5.55V13.7q-5.88-5-12.16-5a15.38,15.38,0,0,0-11.67,5A17.17,17.17,0,0,0,350.19,26,16.75,16.75,0,0,0,355,38.16a15.64,15.64,0,0,0,11.7,4.93,14.16,14.16,0,0,0,6.08-1.18,17,17,0,0,0,2.88-1.59,33.23,33.23,0,0,0,3.17-2.42v8.3a24.21,24.21,0,0,1-12.22,3.34,22.38,22.38,0,0,1-16.44-6.82,22.79,22.79,0,0,1-6.78-16.6A23.63,23.63,0,0,1,349,10.57a22.45,22.45,0,0,1,18.07-8.36,22.68,22.68,0,0,1,11.7,3.34" style="fill:#666;fill-opacity:0.49779999256134033"/><path id="2ac45408-daa6-4b04-9ebf-75c03674f0fb" data-name="path4013" d="M396.69,25.69a22.51,22.51,0,0,1,7-16.54,22.72,22.72,0,0,1,16.64-6.91,22.3,22.3,0,0,1,16.47,7A23,23,0,0,1,443.65,26a22.59,22.59,0,0,1-6.92,16.69,23.48,23.48,0,0,1-32.41.77q-7.62-6.76-7.62-17.72m6.84.09a16.61,16.61,0,0,0,5,12.43,16.4,16.4,0,0,0,23.42-.09,16.92,16.92,0,0,0,4.86-12.23A16.84,16.84,0,0,0,432,13.68a16.57,16.57,0,0,0-23.65,0,16.57,16.57,0,0,0-4.83,12.11" style="fill:#666;fill-opacity:0.49779999256134033"/><path id="338e875e-8b9e-4a77-b998-15c9aab4a487" data-name="path4015" d="M470.8,3.1V42.23H484V48.7H464V3.1h6.78" style="fill:#666;fill-opacity:0.49779999256134033"/><path id="5311d70a-eeb7-4140-ba84-f0cb37016981" data-name="path4017" d="M509,3.1V42.23h13.21V48.7h-20V3.1H509" style="fill:#666;fill-opacity:0.49779999256134033"/><path id="dae396eb-a782-4c56-889c-e19e2794a513" data-name="path4019" d="M565.22,9.57h-18v11h17.49V27H547.21V42.23h18V48.7H540.43V3.1h24.79V9.57" style="fill:#666;fill-opacity:0.49779999256134033"/><path id="b16b369a-e1bc-4c25-b5dd-ea4ae63654a0" data-name="path4021" d="M619.16,5.55V13.7q-5.88-5-12.16-5a15.38,15.38,0,0,0-11.67,5A17.16,17.16,0,0,0,590.56,26a16.75,16.75,0,0,0,4.77,12.11A15.64,15.64,0,0,0,607,43.09a14.16,14.16,0,0,0,6.08-1.18A17,17,0,0,0,616,40.31a33.36,33.36,0,0,0,3.17-2.42v8.3a24.21,24.21,0,0,1-12.22,3.34A22.38,22.38,0,0,1,590.5,42.7a22.79,22.79,0,0,1-6.78-16.6,23.63,23.63,0,0,1,5.67-15.53,22.45,22.45,0,0,1,18.07-8.36,22.68,22.68,0,0,1,11.7,3.34" style="fill:#666;fill-opacity:0.49779999256134033"/><path id="2f9dd501-5273-4730-88e4-2164a0e3987b" data-name="path4023" d="M651.93,9.57V48.7h-6.78V9.57H634.82V3.1h27.41V9.57h-10.3" style="fill:#666;fill-opacity:0.49779999256134033"/><path id="650b5117-e617-44eb-a3c8-35db1a8524f7" data-name="path4025" d="M686.85,3.1V48.7h-6.78V3.1h6.78" style="fill:#666;fill-opacity:0.49779999256134033"/><path id="230ea72e-d38c-480e-ab5f-48c33b6e9521" data-name="path4027" d="M707.19,25.69a22.5,22.5,0,0,1,7-16.54,22.72,22.72,0,0,1,16.64-6.91,22.3,22.3,0,0,1,16.47,7A23,23,0,0,1,754.15,26a22.59,22.59,0,0,1-6.92,16.69,23.48,23.48,0,0,1-32.41.77q-7.62-6.76-7.62-17.72m6.84.09a16.61,16.61,0,0,0,5,12.43,16.4,16.4,0,0,0,23.42-.09,16.92,16.92,0,0,0,4.86-12.23,16.84,16.84,0,0,0-4.8-12.23,16.57,16.57,0,0,0-23.65,0A16.57,16.57,0,0,0,714,25.78" style="fill:#666;fill-opacity:0.49779999256134033"/><path id="16a64a04-54df-4f59-961d-db374cf385ba" data-name="path4029" d="M770.77,48.7V0l32.76,34.79V3.1h6.78V51.48l-32.76-34.7V48.7h-6.78" style="fill:#666;fill-opacity:0.49779999256134033"/><path id="a6ab72fc-3859-492a-be5e-197d04aad928" data-name="path4031" d="M855.41,9.89l-5.5,3.31A9.55,9.55,0,0,0,847,9.66a6.78,6.78,0,0,0-3.75-.95,6.87,6.87,0,0,0-4.68,1.62,5.07,5.07,0,0,0-1.86,4q0,3.34,4.89,5.38L846,21.59a19.05,19.05,0,0,1,8,5.49A12.41,12.41,0,0,1,856.58,35a14.13,14.13,0,0,1-14.46,14.53A13.69,13.69,0,0,1,832.46,46q-3.75-3.51-4.68-9.89l6.87-1.54q.47,4,1.63,5.55a7.66,7.66,0,0,0,11.37.8,7.52,7.52,0,0,0,2.09-5.46,7.37,7.37,0,0,0-.38-2.42,5.71,5.71,0,0,0-1.13-2,8.32,8.32,0,0,0-2-1.74,18.34,18.34,0,0,0-2.91-1.57L839,25.87q-9.22-4-9.22-11.58a11.06,11.06,0,0,1,3.87-8.6,13.86,13.86,0,0,1,9.63-3.48q7.77,0,12.13,7.68" style="fill:#666;fill-opacity:0.49779999256134033"/></g></svg>