<svg id="3e098785-7e56-4d8a-8991-4f3e99b0d786" data-name="svg5081" xmlns="http://www.w3.org/2000/svg" viewBox="0 0 274.15 24.33"><title>ua-branding</title><polygon points="21.23 0 21.23 7.9 20.43 7.9 23.62 16.42 26.36 16.43 26.36 24.33 0 24.33 0 16.43 2.72 16.44 5.93 7.89 5.12 7.9 5.12 0 21.23 0" style="fill:#fff"/><polyline points="13.18 2.93 18.27 2.93 18.27 4.97 16.15 4.97 21.71 19.3 23.36 19.3 23.36 21.41 16.47 21.41 16.47 19.36 14.53 19.36 14.53 23.38 25.41 23.38 25.41 17.38 22.97 17.39 19.05 6.95 20.28 6.95 20.28 0.95 13.18 0.95 13.18 0.95 6.08 0.95 6.08 6.95 7.3 6.95 3.39 17.37 0.95 17.38 0.95 23.38 11.82 23.38 11.82 19.36 9.89 19.36 9.89 21.41 3 21.41 3 19.3 4.64 19.3 10.2 4.97 8.09 4.97 8.09 2.93 13.18 2.93" style="fill:#231f20"/><path d="M27.56,22.28h.25a.31.31,0,0,0,.19,0,.17.17,0,0,0,.06-.14A.14.14,0,0,0,28,22a.35.35,0,0,0-.19,0h-.25v.36Zm-.18-.51h.47a.47.47,0,0,1,.29.08.28.28,0,0,1,.11.23.31.31,0,0,1-.11.25.37.37,0,0,1-.21.08l.33.51h-.21l-.3-.5h-.19v.5h-.18V21.77Zm1,0a.82.82,0,0,0-1.17,0,.86.86,0,0,0,0,1.19.82.82,0,0,0,1.17,0,.86.86,0,0,0,0-1.19Zm.15-.12a1,1,0,0,1,0,1.43,1.06,1.06,0,0,1-1.46,0,1,1,0,0,1,0-1.43,1.05,1.05,0,0,1,1.46,0Z" style="fill:#fff"/><path d="M13.17,3l5.64,14.64s.72,1.78,1.9,1.78H16.61s.21,0,.41-.31a.68.68,0,0,0,0-.49L15.76,15.3H10.59L9.32,18.57a.69.69,0,0,0,0,.49c.21.34.41.31.41.31H5.64c1.17,0,1.9-1.78,1.9-1.78L13.17,3m0,10.8h2l-2-5.14-2,5.14Z" style="fill:#231f20"/><path d="M37,17.06a4.78,4.78,0,0,0,.19,1.57,2.33,2.33,0,0,0,.63.91H34.06a2.28,2.28,0,0,0,.63-.91,4.89,4.89,0,0,0,.19-1.57v-10H33.76a7.82,7.82,0,0,0-1.86.18,2.54,2.54,0,0,0-1.14.58l.68-2.3h9.83L40.63,7.8a1.81,1.81,0,0,0-.81-.55,3.86,3.86,0,0,0-1.26-.18H37v10Z" style="fill:#fff"/><path d="M44.42,17.39a4.41,4.41,0,0,0,.16,1.37,2,2,0,0,0,.55.8h-3.3a2,2,0,0,0,.54-.8,4.29,4.29,0,0,0,.16-1.37V9.47a4.21,4.21,0,0,0-.16-1.37,2,2,0,0,0-.54-.79h3.3a2,2,0,0,0-.55.79,4.36,4.36,0,0,0-.16,1.37v2.74h6.48V9.47a4.29,4.29,0,0,0-.16-1.37,1.94,1.94,0,0,0-.55-.79h3.3A2,2,0,0,0,53,8.1a4.18,4.18,0,0,0-.17,1.37v7.92A4.37,4.37,0,0,0,53,18.76a2,2,0,0,0,.55.8H50.2a2,2,0,0,0,.55-.8,4.34,4.34,0,0,0,.16-1.37V13.62H44.42v3.77Z" style="fill:#fff"/><path d="M55.1,19.56a2,2,0,0,0,.54-.8,4.27,4.27,0,0,0,.17-1.37V9.48a4.23,4.23,0,0,0-.17-1.37,2,2,0,0,0-.54-.79H61.7V9.25a2.83,2.83,0,0,0-1-.52,4.28,4.28,0,0,0-1.22-.16,6.11,6.11,0,0,0-.8.06c-.29,0-.63.1-1,.17v3.45h3V14a1.1,1.1,0,0,0-.56-.35,5.39,5.39,0,0,0-1.3-.1H57.71V18c.46.07.87.12,1.24.15s.69.05,1,.05a5.9,5.9,0,0,0,1.74-.25,6.39,6.39,0,0,0,1.6-.77l-.84,2.39H55.1Z" style="fill:#fff"/><path d="M78.87,19.59V18.53a8.07,8.07,0,0,1-2,1.09,6.29,6.29,0,0,1-2.07.36,5.4,5.4,0,0,1-2.14-.4A4.32,4.32,0,0,1,71,18.38a3.82,3.82,0,0,1-.76-1.47A8.77,8.77,0,0,1,70,14.66V8.11a5,5,0,0,0-.18-1.55,2.26,2.26,0,0,0-.61-.89H73a2.22,2.22,0,0,0-.61.89,4.94,4.94,0,0,0-.18,1.55v6.12a12,12,0,0,0,.14,2.13,2.56,2.56,0,0,0,.46,1.1,2.38,2.38,0,0,0,1.05.74,4.46,4.46,0,0,0,1.56.24,4.24,4.24,0,0,0,1.41-.23,3.43,3.43,0,0,0,1.15-.66,2,2,0,0,0,.62-.94,5.29,5.29,0,0,0,.19-1.57V8.11a5,5,0,0,0-.18-1.58A2.15,2.15,0,0,0,78,5.66h3.77a2.18,2.18,0,0,0-.62.91,4.84,4.84,0,0,0-.19,1.54v9a4.79,4.79,0,0,0,.19,1.55,2.33,2.33,0,0,0,.63.9H78.87Z" style="fill:#fff"/><path d="M95.08,7.32a1.93,1.93,0,0,0-.55.79,4.28,4.28,0,0,0-.16,1.36V19.84a2.16,2.16,0,0,1-1.2-.41,7.56,7.56,0,0,1-1.42-1.51l-6.22-8v7.43a4.51,4.51,0,0,0,.15,1.39,1.9,1.9,0,0,0,.54.77H83.49a2,2,0,0,0,.54-.8,4.24,4.24,0,0,0,.16-1.37V9.47A4.19,4.19,0,0,0,84,8.1a2,2,0,0,0-.54-.79h2.45l7.13,9.19v-7a4.21,4.21,0,0,0-.16-1.36,2,2,0,0,0-.54-.79h2.72Z" style="fill:#fff"/><path d="M99.65,17.39a4.3,4.3,0,0,0,.16,1.37,2,2,0,0,0,.55.8h-3.3a1.94,1.94,0,0,0,.55-.8,4.35,4.35,0,0,0,.16-1.37V9.47A4.3,4.3,0,0,0,97.6,8.1a1.94,1.94,0,0,0-.55-.79h3.3a1.93,1.93,0,0,0-.55.79,4.28,4.28,0,0,0-.16,1.36Z" style="fill:#fff"/><path d="M107.36,19.87A2.47,2.47,0,0,1,106,19a6.92,6.92,0,0,1-1-2l-2.44-7.13A13.11,13.11,0,0,0,102,8.38a8.81,8.81,0,0,0-.59-1.06h2.49a4.88,4.88,0,0,0,.06.56,3.8,3.8,0,0,0,.11.48L107,17.12l2.78-7.29a5.23,5.23,0,0,0,.19-.68,3,3,0,0,0,.08-.62,1.2,1.2,0,0,0-.14-.52,4.39,4.39,0,0,0-.47-.69h2.76Z" style="fill:#fff"/><path d="M113.08,19.56a2,2,0,0,0,.54-.8,4.24,4.24,0,0,0,.16-1.37V9.48a4.24,4.24,0,0,0-.16-1.37,2,2,0,0,0-.54-.79h6.58V9.25a2.79,2.79,0,0,0-1-.52,4.24,4.24,0,0,0-1.22-.16,6.09,6.09,0,0,0-.79.06c-.29,0-.63.1-1,.17v3.45h3V14a1.09,1.09,0,0,0-.56-.35,5.36,5.36,0,0,0-1.3-.1h-1.09V18c.46.07.87.12,1.24.15s.69.05,1,.05a5.82,5.82,0,0,0,1.72-.25,6.44,6.44,0,0,0,1.6-.77l-.84,2.39h-7.29Z" style="fill:#fff"/><path d="M124.64,17.39a4.34,4.34,0,0,0,.16,1.37,1.93,1.93,0,0,0,.55.8H122a2,2,0,0,0,.54-.8,4.2,4.2,0,0,0,.16-1.37V9.47a4.13,4.13,0,0,0-.16-1.37,2,2,0,0,0-.54-.79h4.17a4.52,4.52,0,0,1,2.88.87,2.73,2.73,0,0,1,1.1,2.25,2.65,2.65,0,0,1-.66,1.77,5.44,5.44,0,0,1-2,1.35l3.13,4.24a9.93,9.93,0,0,0,.67.8c.26.28.56.58.9.88l-.94.09h-.15a2.56,2.56,0,0,1-1.28-.35,3.2,3.2,0,0,1-1.06-1l-3.58-5a5.54,5.54,0,0,0,2.34-1,2,2,0,0,0,.74-1.63,2,2,0,0,0-.63-1.51A2.36,2.36,0,0,0,126,8.5a4.67,4.67,0,0,0-.56,0l-.74.12v8.73Z" style="fill:#fff"/><path d="M132.77,19.28l-.58-2.22a9,9,0,0,0,2,1.06,5.85,5.85,0,0,0,2,.35,3.4,3.4,0,0,0,2-.54,1.66,1.66,0,0,0,.76-1.41,1.62,1.62,0,0,0-.08-.49,1.77,1.77,0,0,0-.23-.47,6.68,6.68,0,0,0-2.22-1.44l-.74-.36a8.33,8.33,0,0,1-2.42-1.66,2.65,2.65,0,0,1-.66-1.8,2.78,2.78,0,0,1,1.2-2.37,5.44,5.44,0,0,1,3.29-.88,12.07,12.07,0,0,1,1.33.08q.72.08,1.56.25V9.45a5.83,5.83,0,0,0-1.5-.86,4.53,4.53,0,0,0-1.58-.28,2.78,2.78,0,0,0-1.66.45,1.37,1.37,0,0,0-.63,1.17,1.56,1.56,0,0,0,.49,1.14,9.12,9.12,0,0,0,2.22,1.32l.3.14a11.2,11.2,0,0,1,2.18,1.25,3,3,0,0,1,.84,1,2.85,2.85,0,0,1,.3,1.3,3.28,3.28,0,0,1-1.42,2.67,5.67,5.67,0,0,1-3.57,1.1,7.93,7.93,0,0,1-1.48-.15A15.33,15.33,0,0,1,132.77,19.28Z" style="fill:#fff"/><path d="M145.19,17.39a4.36,4.36,0,0,0,.16,1.37,2,2,0,0,0,.55.8h-3.3a2,2,0,0,0,.55-.8,4.39,4.39,0,0,0,.16-1.37V9.47a4.34,4.34,0,0,0-.16-1.36,1.94,1.94,0,0,0-.55-.79h3.3a2,2,0,0,0-.55.79,4.31,4.31,0,0,0-.16,1.36Z" style="fill:#fff"/><path d="M201.75,3.29,202.85,6l4.22,10.58c.47,1.18.84,2.33,2,2.92v.06H204.9V19.5c1-.45.83-.68.29-2.12l-1.1-2.9h-5.14l-1.06,2.9c-.43,1.15-.57,1.75.4,2.12v.06h-3.73V19.5c1.18-.6,1.52-1.75,2-2.92l5.21-13.2Zm-.24,4.46-2,5.2h4Z" style="fill:#fff"/><path d="M176,19.86a7.53,7.53,0,0,1-2.6-.45,5.94,5.94,0,0,1-3.51-3.36,6.52,6.52,0,0,1-.18-4.51,6.54,6.54,0,0,1,.93-1.81,6.41,6.41,0,0,1,2.34-2,6.66,6.66,0,0,1,3-.7,7.57,7.57,0,0,1,2.63.45,6,6,0,0,1,3.53,3.37,6.79,6.79,0,0,1,.49,2.6A6,6,0,0,1,182.1,16a6.78,6.78,0,0,1-1.56,2.17,6.12,6.12,0,0,1-2.06,1.29A6.92,6.92,0,0,1,176,19.86Zm.07-11.51a4.34,4.34,0,0,0-3.32,1.4,5.06,5.06,0,0,0-1.3,3.58,5.47,5.47,0,0,0,1.29,3.73A4.1,4.1,0,0,0,176,18.54a4.32,4.32,0,0,0,3.31-1.4,5.08,5.08,0,0,0,1.3-3.59,5.45,5.45,0,0,0-1.29-3.72A4.11,4.11,0,0,0,176.08,8.35Z" style="fill:#fff"/><path d="M186.26,17.4a4.37,4.37,0,0,0,.16,1.37,2,2,0,0,0,.55.79h-3.31a2,2,0,0,0,.54-.79,4.24,4.24,0,0,0,.16-1.37V9.49a4.27,4.27,0,0,0-.16-1.37,2,2,0,0,0-.54-.79h6.6V9.27a2.92,2.92,0,0,0-1-.52,4.21,4.21,0,0,0-1.22-.16,6.5,6.5,0,0,0-.8.06c-.29,0-.63.1-1,.17v3.45h3V14a1.13,1.13,0,0,0-.57-.35,5.59,5.59,0,0,0-1.31-.1h-1.1V17.4Z" style="fill:#fff"/><path d="M211.93,17.4a4.25,4.25,0,0,0,.16,1.36,2,2,0,0,0,.55.79h-3.3a2,2,0,0,0,.54-.79A4.1,4.1,0,0,0,210,17.4V9.49a4.12,4.12,0,0,0-.17-1.37,2,2,0,0,0-.54-.79h4.17a4.52,4.52,0,0,1,2.88.86,2.73,2.73,0,0,1,1.1,2.25,2.64,2.64,0,0,1-.66,1.77,5.43,5.43,0,0,1-2,1.35l3.13,4.23a8.54,8.54,0,0,0,.67.8c.26.28.55.57.89.88l-.93.08h-.15a2.57,2.57,0,0,1-1.28-.35,3.19,3.19,0,0,1-1.06-1l-3.59-5a5.51,5.51,0,0,0,2.35-1,2,2,0,0,0,.74-1.63,2,2,0,0,0-.64-1.51,2.37,2.37,0,0,0-1.67-.58,5.14,5.14,0,0,0-.56,0l-.74.12Z" style="fill:#fff"/><path d="M223.09,17.4a4.43,4.43,0,0,0,.16,1.37,2,2,0,0,0,.55.79h-3.3a2,2,0,0,0,.55-.79,4.25,4.25,0,0,0,.16-1.37V9.48A4.26,4.26,0,0,0,221,8.12a2,2,0,0,0-.55-.79h3.3a2,2,0,0,0-.55.79,4.41,4.41,0,0,0-.16,1.37Z" style="fill:#fff"/><path d="M235.32,17.27l-.88,2.29H225l6.41-10.65a12,12,0,0,0-1.35-.27,8.65,8.65,0,0,0-1.18-.09,5.93,5.93,0,0,0-1.54.2,6.63,6.63,0,0,0-1.51.63l.83-2h7.82L228.09,18q1.07.13,1.8.18c.48,0,.91.05,1.26.05a10.2,10.2,0,0,0,2.28-.24A7.19,7.19,0,0,0,235.32,17.27Z" style="fill:#fff"/><path d="M242.26,19.86a7.51,7.51,0,0,1-2.6-.45,5.92,5.92,0,0,1-2.09-1.28,6.06,6.06,0,0,1-1.42-2.07,6.45,6.45,0,0,1-.5-2.51,6.35,6.35,0,0,1,.32-2,6.52,6.52,0,0,1,.92-1.81,6.44,6.44,0,0,1,2.34-2,6.67,6.67,0,0,1,3-.7,7.56,7.56,0,0,1,2.62.45,6,6,0,0,1,3.53,3.37,6.82,6.82,0,0,1,.49,2.6,6,6,0,0,1-.56,2.51,6.73,6.73,0,0,1-1.56,2.17,6.12,6.12,0,0,1-2.06,1.29A6.92,6.92,0,0,1,242.26,19.86Zm.07-11.51A4.34,4.34,0,0,0,239,9.75a5,5,0,0,0-1.31,3.58A5.47,5.47,0,0,0,239,17.05a4.1,4.1,0,0,0,3.23,1.48,4.33,4.33,0,0,0,3.31-1.4,5.07,5.07,0,0,0,1.3-3.59,5.45,5.45,0,0,0-1.29-3.72A4.1,4.1,0,0,0,242.32,8.35Z" style="fill:#fff"/><path d="M261.47,7.33a1.91,1.91,0,0,0-.55.79,4.33,4.33,0,0,0-.16,1.37V19.84a2.17,2.17,0,0,1-1.2-.41,7.45,7.45,0,0,1-1.42-1.5l-6.22-8V17.4a4.48,4.48,0,0,0,.15,1.39,1.89,1.89,0,0,0,.54.77h-2.73a2,2,0,0,0,.54-.79,4.22,4.22,0,0,0,.17-1.37V9.48a4.22,4.22,0,0,0-.17-1.37,2,2,0,0,0-.54-.79h2.45l7.13,9.19v-7a4.21,4.21,0,0,0-.17-1.37,2,2,0,0,0-.54-.79h2.72Z" style="fill:#fff"/><path d="M264.29,17.91a1.79,1.79,0,0,0-.12.38,2.18,2.18,0,0,0,0,.41.76.76,0,0,0,.13.38,2.28,2.28,0,0,0,.4.47h-2.84a2.43,2.43,0,0,0,.64-.67,6.37,6.37,0,0,0,.58-1.18L266.42,9a3,3,0,0,0,.16-.48,2.13,2.13,0,0,0,.05-.42.81.81,0,0,0-.1-.39,1.28,1.28,0,0,0-.33-.35h2.74l3.84,10.26a5.21,5.21,0,0,0,.58,1.13,4.67,4.67,0,0,0,.8.84H270.7l0,0c.32-.34.48-.59.48-.74A2.55,2.55,0,0,0,271,18l0-.13-1-2.83h-4.49Zm1.63-4.15h3.55L267.76,9Z" style="fill:#fff"/><path d="M156.89,7.32,160,12.65l2.11-3.47a3.53,3.53,0,0,0,.29-.58,1.33,1.33,0,0,0,.1-.45.78.78,0,0,0-.13-.42,1.65,1.65,0,0,0-.39-.42h2.82l-4.14,6.74V17.4a4.31,4.31,0,0,0,.16,1.37,2.08,2.08,0,0,0,.55.8h-3.32a2,2,0,0,0,.55-.8,4.43,4.43,0,0,0,.16-1.37V14L156,9.35a1.27,1.27,0,0,0-.77-.58A4.46,4.46,0,0,0,154,8.66h-1.35V17.4a4.2,4.2,0,0,0,.16,1.37,2,2,0,0,0,.55.8H150a2,2,0,0,0,.55-.8,4.4,4.4,0,0,0,.16-1.37V8.66h-1a6.8,6.8,0,0,0-1.63.16,2.21,2.21,0,0,0-1,.51l.6-2h9.17Z" style="fill:#fff"/></svg>